<?xml version="1.0" encoding="UTF-8"?>
<svg width="713px" height="223px" viewBox="0 0 713 223" version="1.1" xmlns="http://www.w3.org/2000/svg" xmlns:xlink="http://www.w3.org/1999/xlink">
    <!-- Generator: Sketch 44.1 (41455) - http://www.bohemiancoding.com/sketch -->
    <title>Group 8</title>
    <desc>Created with Sketch.</desc>
    <defs></defs>
    <g id="Page-1" stroke="none" stroke-width="1" fill="none" fill-rule="evenodd">
        <g id="Desktop-HD" transform="translate(-90.000000, -189.000000)">
            <g id="slide3" transform="translate(-3.000000, 100.000000)">
                <g id="Group-8" transform="translate(93.000000, 89.000000)">
                    <path d="M21.648,205.4 L21.648,214.76 C20.4746608,215.624004 19.2240066,216.255998 17.896,216.656 C16.5679934,217.056002 15.1466742,217.256 13.632,217.256 C11.7439906,217.256 10.0346743,216.96267 8.504,216.376 C6.97332568,215.78933 5.66667208,214.973339 4.584,213.928 C3.50132792,212.882661 2.6666696,211.634674 2.08,210.184 C1.4933304,208.733326 1.2,207.149342 1.2,205.432 C1.2,203.693325 1.48266384,202.098674 2.048,200.648 C2.61333616,199.197326 3.4159948,197.949339 4.456,196.904 C5.4960052,195.858661 6.75732592,195.048003 8.24,194.472 C9.72267408,193.895997 11.3866574,193.608 13.232,193.608 C14.1706714,193.608 15.0479959,193.682666 15.864,193.832 C16.6800041,193.981334 17.4373298,194.186665 18.136,194.448 C18.8346702,194.709335 19.4719971,195.026665 20.048,195.4 C20.6240029,195.773335 21.1519976,196.183998 21.632,196.632 L20.4,198.584 C20.207999,198.893335 19.9573349,199.082666 19.648,199.152 C19.3386651,199.221334 19.0026685,199.144001 18.64,198.92 L17.584,198.312 C17.2319982,198.109332 16.8400022,197.933334 16.408,197.784 C15.9759978,197.634666 15.4906694,197.512 14.952,197.416 C14.4133306,197.32 13.7920035,197.272 13.088,197.272 C11.946661,197.272 10.9146713,197.463998 9.992,197.848 C9.06932872,198.232002 8.28266992,198.78133 7.632,199.496 C6.98133008,200.21067 6.48000176,201.069328 6.128,202.072 C5.77599824,203.074672 5.6,204.19466 5.6,205.432 C5.6,206.754673 5.78933144,207.935995 6.168,208.976 C6.54666856,210.016005 7.07999656,210.895996 7.768,211.616 C8.45600344,212.336004 9.28532848,212.885331 10.256,213.264 C11.2266715,213.642669 12.3093274,213.832 13.504,213.832 C14.3573376,213.832 15.1199966,213.741334 15.792,213.56 C16.4640034,213.378666 17.1199968,213.133335 17.76,212.824 L17.76,208.632 L14.848,208.632 C14.5706653,208.632 14.3546674,208.554667 14.2,208.4 C14.0453326,208.245333 13.968,208.056001 13.968,207.832 L13.968,205.4 L21.648,205.4 Z M35.3484167,206.904 C35.3484167,206.391997 35.2764174,205.909336 35.1324167,205.456 C34.988416,205.002664 34.7724182,204.605335 34.4844167,204.264 C34.1964153,203.922665 33.8310856,203.653334 33.3884167,203.456 C32.9457478,203.258666 32.4310863,203.16 31.8444167,203.16 C30.7030777,203.16 29.80442,203.48533 29.1484167,204.136 C28.4924134,204.78667 28.073751,205.709327 27.8924167,206.904 L35.3484167,206.904 Z M27.8124167,209.288 C27.876417,210.130671 28.0257489,210.858664 28.2604167,211.472 C28.4950846,212.085336 28.8044148,212.591998 29.1884167,212.992 C29.5724186,213.392002 30.0284141,213.690666 30.5564167,213.888 C31.0844194,214.085334 31.6684135,214.184 32.3084167,214.184 C32.9484199,214.184 33.5004144,214.109334 33.9644167,213.96 C34.428419,213.810666 34.8337483,213.645334 35.1804167,213.464 C35.5270851,213.282666 35.8310821,213.117334 36.0924167,212.968 C36.3537514,212.818666 36.6070822,212.744 36.8524167,212.744 C37.183085,212.744 37.4284159,212.866665 37.5884167,213.112 L38.7244167,214.552 C38.2870812,215.064003 37.7964194,215.493332 37.2524167,215.84 C36.708414,216.186668 36.1404197,216.463999 35.5484167,216.672 C34.9564138,216.880001 34.3537531,217.026666 33.7404167,217.112 C33.1270803,217.197334 32.5324196,217.24 31.9564167,217.24 C30.8150777,217.24 29.753755,217.050669 28.7724167,216.672 C27.7910785,216.293331 26.9377537,215.733337 26.2124167,214.992 C25.4870798,214.250663 24.9164188,213.333339 24.5004167,212.24 C24.0844146,211.146661 23.8764167,209.880007 23.8764167,208.44 C23.8764167,207.319994 24.0577482,206.266672 24.4204167,205.28 C24.7830852,204.293328 25.30308,203.43467 25.9804167,202.704 C26.6577534,201.97333 27.4844118,201.394669 28.4604167,200.968 C29.4364216,200.541331 30.5377439,200.328 31.7644167,200.328 C32.7990886,200.328 33.7537457,200.493332 34.6284167,200.824 C35.5030878,201.154668 36.2550802,201.63733 36.8844167,202.272 C37.5137532,202.90667 38.0070816,203.685329 38.3644167,204.608 C38.7217518,205.530671 38.9004167,206.583994 38.9004167,207.768 C38.9004167,208.365336 38.8364174,208.767999 38.7084167,208.976 C38.5804161,209.184001 38.3350852,209.288 37.9724167,209.288 L27.8124167,209.288 Z M46.9528335,217.256 C45.523493,217.256 44.4275039,216.853337 43.6648335,216.048 C42.902163,215.242663 42.5208335,214.130674 42.5208335,212.712 L42.5208335,203.544 L40.8408335,203.544 C40.6274991,203.544 40.4461675,203.474667 40.2968335,203.336 C40.1474994,203.197333 40.0728335,202.989335 40.0728335,202.712 L40.0728335,201.144 L42.7128335,200.712 L43.5448335,196.232 C43.5981671,196.018666 43.6994994,195.853334 43.8488335,195.736 C43.9981675,195.618666 44.1901656,195.56 44.4248335,195.56 L46.4728335,195.56 L46.4728335,200.728 L50.8568335,200.728 L50.8568335,203.544 L46.4728335,203.544 L46.4728335,212.44 C46.4728335,212.952003 46.5981655,213.351999 46.8488335,213.64 C47.0995014,213.928001 47.4434979,214.072 47.8808335,214.072 C48.126168,214.072 48.3314993,214.042667 48.4968335,213.984 C48.6621676,213.925333 48.8061662,213.864 48.9288335,213.8 C49.0515007,213.736 49.160833,213.674667 49.2568335,213.616 C49.3528339,213.557333 49.448833,213.528 49.5448335,213.528 C49.6621674,213.528 49.7581664,213.557333 49.8328335,213.616 C49.9075005,213.674667 49.9874997,213.762666 50.0728335,213.88 L51.2568335,215.8 C50.6808306,216.280002 50.0195039,216.642665 49.2728335,216.888 C48.5261631,217.133335 47.7528375,217.256 46.9528335,217.256 Z M74.8336669,200.584 L65.8896669,221.512 C65.772333,221.789335 65.6203345,221.999999 65.4336669,222.144 C65.2469993,222.288001 64.9616688,222.36 64.5776669,222.36 L61.6336669,222.36 L64.7056669,215.768 L58.0656669,200.584 L61.5376669,200.584 C61.8470018,200.584 62.089666,200.658666 62.2656669,200.808 C62.4416678,200.957334 62.5723331,201.127999 62.6576669,201.32 L66.1456669,209.832 C66.2630008,210.120001 66.3616665,210.407999 66.4416669,210.696 C66.5216673,210.984001 66.5989999,211.277332 66.6736669,211.576 C66.7696674,211.277332 66.8656664,210.981335 66.9616669,210.688 C67.0576674,210.394665 67.164333,210.104001 67.2816669,209.816 L70.5776669,201.32 C70.6630007,201.106666 70.8043326,200.930667 71.0016669,200.792 C71.1990012,200.653333 71.4203323,200.584 71.6656669,200.584 L74.8336669,200.584 Z M83.3340836,200.328 C84.5500897,200.328 85.6567453,200.525331 86.6540836,200.92 C87.651422,201.314669 88.5047468,201.874663 89.2140836,202.6 C89.9234205,203.325337 90.4700817,204.210661 90.8540836,205.256 C91.2380856,206.301339 91.4300836,207.469327 91.4300836,208.76 C91.4300836,210.06134 91.2380856,211.234661 90.8540836,212.28 C90.4700817,213.325339 89.9234205,214.215996 89.2140836,214.952 C88.5047468,215.688004 87.651422,216.253331 86.6540836,216.648 C85.6567453,217.042669 84.5500897,217.24 83.3340836,217.24 C82.1074108,217.24 80.9927553,217.042669 79.9900836,216.648 C78.987412,216.253331 78.1314205,215.688004 77.4220836,214.952 C76.7127468,214.215996 76.1634189,213.325339 75.7740836,212.28 C75.3847484,211.234661 75.1900836,210.06134 75.1900836,208.76 C75.1900836,207.469327 75.3847484,206.301339 75.7740836,205.256 C76.1634189,204.210661 76.7127468,203.325337 77.4220836,202.6 C78.1314205,201.874663 78.987412,201.314669 79.9900836,200.92 C80.9927553,200.525331 82.1074108,200.328 83.3340836,200.328 Z M83.3340836,214.2 C84.6994238,214.2 85.7100804,213.741338 86.3660836,212.824 C87.0220869,211.906662 87.3500836,210.562676 87.3500836,208.792 C87.3500836,207.021324 87.0220869,205.672005 86.3660836,204.744 C85.7100804,203.815995 84.6994238,203.352 83.3340836,203.352 C81.94741,203.352 80.9207536,203.818662 80.2540836,204.752 C79.5874136,205.685338 79.2540836,207.031991 79.2540836,208.792 C79.2540836,210.552009 79.5874136,211.893329 80.2540836,212.816 C80.9207536,213.738671 81.94741,214.2 83.3340836,214.2 Z M108.3785,200.584 L108.3785,217 L105.9625,217 C105.439831,217 105.109168,216.760002 104.9705,216.28 L104.6985,214.968 C104.026497,215.65067 103.285171,216.202665 102.4745,216.624 C101.66383,217.045335 100.709173,217.256 99.6105004,217.256 C98.7144959,217.256 97.9225038,217.104002 97.2345004,216.8 C96.5464969,216.495998 95.967836,216.066669 95.4985004,215.512 C95.0291647,214.957331 94.6745016,214.29867 94.4345004,213.536 C94.1944992,212.77333 94.0745004,211.933338 94.0745004,211.016 L94.0745004,200.584 L98.0265004,200.584 L98.0265004,211.016 C98.0265004,212.018672 98.258498,212.794664 98.7225004,213.344 C99.1865027,213.893336 99.8824957,214.168 100.8105,214.168 C101.49317,214.168 102.133164,214.016002 102.7305,213.712 C103.327837,213.407998 103.893164,212.989336 104.4265,212.456 L104.4265,200.584 L108.3785,200.584 Z M115.790917,203.432 C116.30292,202.450662 116.910914,201.680003 117.614917,201.12 C118.318921,200.559997 119.150912,200.28 120.110917,200.28 C120.868254,200.28 121.476248,200.445332 121.934917,200.776 L121.678917,203.736 C121.625583,203.928001 121.548251,204.064 121.446917,204.144 C121.345583,204.224 121.209585,204.264 121.038917,204.264 C120.878916,204.264 120.641585,204.237334 120.326917,204.184 C120.012249,204.130666 119.705585,204.104 119.406917,204.104 C118.969582,204.104 118.580252,204.167999 118.238917,204.296 C117.897582,204.424001 117.590918,204.607999 117.318917,204.848 C117.046916,205.088001 116.806918,205.378665 116.598917,205.72 C116.390916,206.061335 116.196251,206.450664 116.014917,206.888 L116.014917,217 L112.062917,217 L112.062917,200.584 L114.382917,200.584 C114.788252,200.584 115.070916,200.655999 115.230917,200.8 C115.390918,200.944001 115.497583,201.202665 115.550917,201.576 L115.790917,203.432 Z M134.615751,212.744 C135.063753,213.288003 135.551748,213.671999 136.079751,213.896 C136.607753,214.120001 137.181081,214.232 137.799751,214.232 C138.397087,214.232 138.935748,214.120001 139.415751,213.896 C139.895753,213.671999 140.303749,213.330669 140.639751,212.872 C140.975752,212.413331 141.234416,211.83467 141.415751,211.136 C141.597085,210.43733 141.687751,209.613338 141.687751,208.664 C141.687751,207.703995 141.610418,206.89067 141.455751,206.224 C141.301083,205.55733 141.079752,205.016002 140.791751,204.6 C140.503749,204.183998 140.154419,203.880001 139.743751,203.688 C139.333082,203.495999 138.86642,203.4 138.343751,203.4 C137.522413,203.4 136.823753,203.573332 136.247751,203.92 C135.671748,204.266668 135.127753,204.754664 134.615751,205.384 L134.615751,212.744 Z M134.407751,202.824 C135.079754,202.066663 135.842413,201.453336 136.695751,200.984 C137.549088,200.514664 138.551745,200.28 139.703751,200.28 C140.599755,200.28 141.418414,200.466665 142.159751,200.84 C142.901088,201.213335 143.541081,201.754663 144.079751,202.464 C144.61842,203.173337 145.034416,204.047995 145.327751,205.088 C145.621085,206.128005 145.767751,207.319993 145.767751,208.664 C145.767751,209.890673 145.602419,211.026661 145.271751,212.072 C144.941082,213.117339 144.469087,214.023996 143.855751,214.792 C143.242414,215.560004 142.501088,216.159998 141.631751,216.592 C140.762413,217.024002 139.789089,217.24 138.711751,217.24 C137.794413,217.24 137.01042,217.098668 136.359751,216.816 C135.709081,216.533332 135.127753,216.141336 134.615751,215.64 L134.615751,222.36 L130.663751,222.36 L130.663751,200.584 L133.079751,200.584 C133.591753,200.584 133.92775,200.823998 134.087751,201.304 L134.407751,202.824 Z M152.348167,203.432 C152.86017,202.450662 153.468164,201.680003 154.172167,201.12 C154.876171,200.559997 155.708162,200.28 156.668167,200.28 C157.425504,200.28 158.033498,200.445332 158.492167,200.776 L158.236167,203.736 C158.182834,203.928001 158.105501,204.064 158.004167,204.144 C157.902833,204.224 157.766835,204.264 157.596167,204.264 C157.436166,204.264 157.198836,204.237334 156.884167,204.184 C156.569499,204.130666 156.262835,204.104 155.964167,204.104 C155.526832,204.104 155.137502,204.167999 154.796167,204.296 C154.454832,204.424001 154.148169,204.607999 153.876167,204.848 C153.604166,205.088001 153.364168,205.378665 153.156167,205.72 C152.948166,206.061335 152.753502,206.450664 152.572167,206.888 L152.572167,217 L148.620167,217 L148.620167,200.584 L150.940167,200.584 C151.345503,200.584 151.628166,200.655999 151.788167,200.8 C151.948168,200.944001 152.054834,201.202665 152.108167,201.576 L152.348167,203.432 Z M170.448584,206.904 C170.448584,206.391997 170.376585,205.909336 170.232584,205.456 C170.088583,205.002664 169.872585,204.605335 169.584584,204.264 C169.296583,203.922665 168.931253,203.653334 168.488584,203.456 C168.045915,203.258666 167.531254,203.16 166.944584,203.16 C165.803245,203.16 164.904587,203.48533 164.248584,204.136 C163.592581,204.78667 163.173918,205.709327 162.992584,206.904 L170.448584,206.904 Z M162.912584,209.288 C162.976584,210.130671 163.125916,210.858664 163.360584,211.472 C163.595252,212.085336 163.904582,212.591998 164.288584,212.992 C164.672586,213.392002 165.128581,213.690666 165.656584,213.888 C166.184587,214.085334 166.768581,214.184 167.408584,214.184 C168.048587,214.184 168.600582,214.109334 169.064584,213.96 C169.528586,213.810666 169.933916,213.645334 170.280584,213.464 C170.627252,213.282666 170.931249,213.117334 171.192584,212.968 C171.453919,212.818666 171.707249,212.744 171.952584,212.744 C172.283252,212.744 172.528583,212.866665 172.688584,213.112 L173.824584,214.552 C173.387248,215.064003 172.896587,215.493332 172.352584,215.84 C171.808581,216.186668 171.240587,216.463999 170.648584,216.672 C170.056581,216.880001 169.45392,217.026666 168.840584,217.112 C168.227248,217.197334 167.632587,217.24 167.056584,217.24 C165.915245,217.24 164.853922,217.050669 163.872584,216.672 C162.891246,216.293331 162.037921,215.733337 161.312584,214.992 C160.587247,214.250663 160.016586,213.333339 159.600584,212.24 C159.184582,211.146661 158.976584,209.880007 158.976584,208.44 C158.976584,207.319994 159.157916,206.266672 159.520584,205.28 C159.883252,204.293328 160.403247,203.43467 161.080584,202.704 C161.757921,201.97333 162.584579,201.394669 163.560584,200.968 C164.536589,200.541331 165.637911,200.328 166.864584,200.328 C167.899256,200.328 168.853913,200.493332 169.728584,200.824 C170.603255,201.154668 171.355248,201.63733 171.984584,202.272 C172.61392,202.90667 173.107249,203.685329 173.464584,204.608 C173.821919,205.530671 174.000584,206.583994 174.000584,207.768 C174.000584,208.365336 173.936585,208.767999 173.808584,208.976 C173.680583,209.184001 173.435252,209.288 173.072584,209.288 L162.912584,209.288 Z M191.125001,200.584 L184.613001,217 L181.029001,217 L174.517001,200.584 L177.781001,200.584 C178.079669,200.584 178.327666,200.653333 178.525001,200.792 C178.722335,200.930667 178.853,201.106666 178.917001,201.32 L182.085001,210.088 C182.255668,210.600003 182.405,211.101331 182.533001,211.592 C182.661001,212.082669 182.773,212.573331 182.869001,213.064 C182.975668,212.573331 183.093,212.082669 183.221001,211.592 C183.349001,211.101331 183.503666,210.600003 183.685001,210.088 L186.917001,201.32 C186.991668,201.106666 187.125,200.930667 187.317001,200.792 C187.509002,200.653333 187.738333,200.584 188.005001,200.584 L191.125001,200.584 Z M203.065417,206.904 C203.065417,206.391997 202.993418,205.909336 202.849417,205.456 C202.705417,205.002664 202.489419,204.605335 202.201417,204.264 C201.913416,203.922665 201.548086,203.653334 201.105417,203.456 C200.662749,203.258666 200.148087,203.16 199.561417,203.16 C198.420078,203.16 197.521421,203.48533 196.865417,204.136 C196.209414,204.78667 195.790752,205.709327 195.609417,206.904 L203.065417,206.904 Z M195.529417,209.288 C195.593418,210.130671 195.74275,210.858664 195.977417,211.472 C196.212085,212.085336 196.521416,212.591998 196.905417,212.992 C197.289419,213.392002 197.745415,213.690666 198.273417,213.888 C198.80142,214.085334 199.385414,214.184 200.025417,214.184 C200.665421,214.184 201.217415,214.109334 201.681417,213.96 C202.14542,213.810666 202.550749,213.645334 202.897417,213.464 C203.244086,213.282666 203.548083,213.117334 203.809417,212.968 C204.070752,212.818666 204.324083,212.744 204.569417,212.744 C204.900086,212.744 205.145417,212.866665 205.305417,213.112 L206.441417,214.552 C206.004082,215.064003 205.51342,215.493332 204.969417,215.84 C204.425415,216.186668 203.85742,216.463999 203.265417,216.672 C202.673414,216.880001 202.070754,217.026666 201.457417,217.112 C200.844081,217.197334 200.24942,217.24 199.673417,217.24 C198.532078,217.24 197.470756,217.050669 196.489417,216.672 C195.508079,216.293331 194.654754,215.733337 193.929417,214.992 C193.20408,214.250663 192.63342,213.333339 192.217417,212.24 C191.801415,211.146661 191.593417,209.880007 191.593417,208.44 C191.593417,207.319994 191.774749,206.266672 192.137417,205.28 C192.500086,204.293328 193.020081,203.43467 193.697417,202.704 C194.374754,201.97333 195.201413,201.394669 196.177417,200.968 C197.153422,200.541331 198.254745,200.328 199.481417,200.328 C200.516089,200.328 201.470746,200.493332 202.345417,200.824 C203.220088,201.154668 203.972081,201.63733 204.601417,202.272 C205.230754,202.90667 205.724082,203.685329 206.081417,204.608 C206.438753,205.530671 206.617417,206.583994 206.617417,207.768 C206.617417,208.365336 206.553418,208.767999 206.425417,208.976 C206.297417,209.184001 206.052086,209.288 205.689417,209.288 L195.529417,209.288 Z M213.053834,202.6 C213.384502,202.269332 213.733832,201.962668 214.101834,201.68 C214.469836,201.397332 214.859165,201.157334 215.269834,200.96 C215.680503,200.762666 216.120498,200.608001 216.589834,200.496 C217.05917,200.383999 217.571165,200.328 218.125834,200.328 C219.021839,200.328 219.816497,200.479998 220.509834,200.784 C221.203171,201.088002 221.781832,201.514664 222.245834,202.064 C222.709836,202.613336 223.061833,203.26933 223.301834,204.032 C223.541835,204.79467 223.661834,205.634662 223.661834,206.552 L223.661834,217 L219.709834,217 L219.709834,206.552 C219.709834,205.549328 219.480503,204.773336 219.021834,204.224 C218.563165,203.674664 217.864506,203.4 216.925834,203.4 C216.243164,203.4 215.60317,203.554665 215.005834,203.864 C214.408498,204.173335 213.84317,204.594664 213.309834,205.128 L213.309834,217 L209.357834,217 L209.357834,200.584 L211.773834,200.584 C212.285837,200.584 212.621833,200.823998 212.781834,201.304 L213.053834,202.6 Z M243.522251,217 L239.570251,217 L239.570251,203.544 L231.954251,203.544 L231.954251,212.44 C231.954251,212.952003 232.079583,213.351999 232.330251,213.64 C232.580919,213.928001 232.924915,214.072 233.362251,214.072 C233.607585,214.072 233.812917,214.042667 233.978251,213.984 C234.143585,213.925333 234.287584,213.864 234.410251,213.8 C234.532918,213.736 234.64225,213.674667 234.738251,213.616 C234.834251,213.557333 234.93025,213.528 235.026251,213.528 C235.143585,213.528 235.239584,213.557333 235.314251,213.616 C235.388918,213.674667 235.468917,213.762666 235.554251,213.88 L236.738251,215.8 C236.162248,216.280002 235.500921,216.642665 234.754251,216.888 C234.007581,217.133335 233.234255,217.256 232.434251,217.256 C231.00491,217.256 229.908921,216.853337 229.146251,216.048 C228.38358,215.242663 228.002251,214.130674 228.002251,212.712 L228.002251,203.544 L226.322251,203.544 C226.108917,203.544 225.927585,203.474667 225.778251,203.336 C225.628917,203.197333 225.554251,202.989335 225.554251,202.712 L225.554251,201.144 L228.194251,200.696 L229.026251,196.232 C229.079585,196.018666 229.180917,195.853334 229.330251,195.736 C229.479585,195.618666 229.671583,195.56 229.906251,195.56 L231.954251,195.56 L231.954251,200.728 L243.522251,200.728 L243.522251,217 Z M244.210251,195.736 C244.210251,196.077335 244.140918,196.399998 244.002251,196.704 C243.863584,197.008002 243.679585,197.271999 243.450251,197.496 C243.220916,197.720001 242.948919,197.898666 242.634251,198.032 C242.319583,198.165334 241.986253,198.232 241.634251,198.232 C241.292916,198.232 240.972919,198.165334 240.674251,198.032 C240.375583,197.898666 240.114252,197.720001 239.890251,197.496 C239.66625,197.271999 239.487585,197.008002 239.354251,196.704 C239.220917,196.399998 239.154251,196.077335 239.154251,195.736 C239.154251,195.383998 239.220917,195.056002 239.354251,194.752 C239.487585,194.447998 239.66625,194.181334 239.890251,193.952 C240.114252,193.722666 240.375583,193.541334 240.674251,193.408 C240.972919,193.274666 241.292916,193.208 241.634251,193.208 C241.986253,193.208 242.319583,193.274666 242.634251,193.408 C242.948919,193.541334 243.220916,193.722666 243.450251,193.952 C243.679585,194.181334 243.863584,194.447998 244.002251,194.752 C244.140918,195.056002 244.210251,195.383998 244.210251,195.736 Z M262.134668,200.584 L255.622668,217 L252.038668,217 L245.526668,200.584 L248.790668,200.584 C249.089336,200.584 249.337333,200.653333 249.534668,200.792 C249.732002,200.930667 249.862667,201.106666 249.926668,201.32 L253.094668,210.088 C253.265335,210.600003 253.414667,211.101331 253.542668,211.592 C253.670668,212.082669 253.782667,212.573331 253.878668,213.064 C253.985335,212.573331 254.102667,212.082669 254.230668,211.592 C254.358668,211.101331 254.513333,210.600003 254.694668,210.088 L257.926668,201.32 C258.001335,201.106666 258.134667,200.930667 258.326668,200.792 C258.518669,200.653333 258.748,200.584 259.014668,200.584 L262.134668,200.584 Z M274.075084,206.904 C274.075084,206.391997 274.003085,205.909336 273.859084,205.456 C273.715084,205.002664 273.499086,204.605335 273.211084,204.264 C272.923083,203.922665 272.557753,203.653334 272.115084,203.456 C271.672415,203.258666 271.157754,203.16 270.571084,203.16 C269.429745,203.16 268.531088,203.48533 267.875084,204.136 C267.219081,204.78667 266.800419,205.709327 266.619084,206.904 L274.075084,206.904 Z M266.539084,209.288 C266.603085,210.130671 266.752417,210.858664 266.987084,211.472 C267.221752,212.085336 267.531082,212.591998 267.915084,212.992 C268.299086,213.392002 268.755082,213.690666 269.283084,213.888 C269.811087,214.085334 270.395081,214.184 271.035084,214.184 C271.675088,214.184 272.227082,214.109334 272.691084,213.96 C273.155087,213.810666 273.560416,213.645334 273.907084,213.464 C274.253753,213.282666 274.55775,213.117334 274.819084,212.968 C275.080419,212.818666 275.33375,212.744 275.579084,212.744 C275.909753,212.744 276.155084,212.866665 276.315084,213.112 L277.451084,214.552 C277.013749,215.064003 276.523087,215.493332 275.979084,215.84 C275.435082,216.186668 274.867087,216.463999 274.275084,216.672 C273.683081,216.880001 273.080421,217.026666 272.467084,217.112 C271.853748,217.197334 271.259087,217.24 270.683084,217.24 C269.541745,217.24 268.480423,217.050669 267.499084,216.672 C266.517746,216.293331 265.664421,215.733337 264.939084,214.992 C264.213747,214.250663 263.643086,213.333339 263.227084,212.24 C262.811082,211.146661 262.603084,209.880007 262.603084,208.44 C262.603084,207.319994 262.784416,206.266672 263.147084,205.28 C263.509753,204.293328 264.029748,203.43467 264.707084,202.704 C265.384421,201.97333 266.211079,201.394669 267.187084,200.968 C268.163089,200.541331 269.264412,200.328 270.491084,200.328 C271.525756,200.328 272.480413,200.493332 273.355084,200.824 C274.229755,201.154668 274.981748,201.63733 275.611084,202.272 C276.240421,202.90667 276.733749,203.685329 277.091084,204.608 C277.448419,205.530671 277.627084,206.583994 277.627084,207.768 C277.627084,208.365336 277.563085,208.767999 277.435084,208.976 C277.307084,209.184001 277.061753,209.288 276.699084,209.288 L266.539084,209.288 Z M299.683918,204.056 C299.566584,204.205334 299.451918,204.322666 299.339918,204.408 C299.227917,204.493334 299.065252,204.536 298.851918,204.536 C298.64925,204.536 298.451919,204.474667 298.259918,204.352 C298.067917,204.229333 297.838586,204.090667 297.571918,203.936 C297.30525,203.781333 296.98792,203.642667 296.619918,203.52 C296.251916,203.397333 295.795921,203.336 295.251918,203.336 C294.558581,203.336 293.950587,203.461332 293.427918,203.712 C292.905249,203.962668 292.470586,204.322664 292.123918,204.792 C291.777249,205.261336 291.518585,205.82933 291.347918,206.496 C291.17725,207.16267 291.091918,207.917329 291.091918,208.76 C291.091918,209.634671 291.18525,210.41333 291.371918,211.096 C291.558585,211.77867 291.827916,212.351998 292.179918,212.816 C292.53192,213.280002 292.958582,213.631999 293.459918,213.872 C293.961254,214.112001 294.526581,214.232 295.155918,214.232 C295.785254,214.232 296.294583,214.154667 296.683918,214 C297.073253,213.845333 297.40125,213.674668 297.667918,213.488 C297.934586,213.301332 298.166583,213.130667 298.363918,212.976 C298.561252,212.821333 298.782583,212.744 299.027918,212.744 C299.347919,212.744 299.587917,212.866665 299.747918,213.112 L300.883918,214.552 C300.446582,215.064003 299.97192,215.493332 299.459918,215.84 C298.947915,216.186668 298.417254,216.463999 297.867918,216.672 C297.318582,216.880001 296.753254,217.026666 296.171918,217.112 C295.590582,217.197334 295.011921,217.24 294.435918,217.24 C293.422579,217.24 292.467922,217.050669 291.571918,216.672 C290.675913,216.293331 289.891921,215.741337 289.219918,215.016 C288.547914,214.290663 288.017253,213.402672 287.627918,212.352 C287.238583,211.301328 287.043918,210.104007 287.043918,208.76 C287.043918,207.554661 287.217249,206.437338 287.563918,205.408 C287.910586,204.378662 288.419914,203.488004 289.091918,202.736 C289.763921,201.983996 290.595913,201.394669 291.587918,200.968 C292.579923,200.541331 293.721245,200.328 295.011918,200.328 C296.238591,200.328 297.313247,200.525331 298.235918,200.92 C299.158589,201.314669 299.987914,201.879996 300.723918,202.616 L299.683918,204.056 Z M311.800335,209.992 C310.658996,210.045334 309.699005,210.143999 308.920335,210.288 C308.141664,210.432001 307.51767,210.615999 307.048335,210.84 C306.578999,211.064001 306.243002,211.325332 306.040335,211.624 C305.837667,211.922668 305.736335,212.247998 305.736335,212.6 C305.736335,213.293337 305.941666,213.789332 306.352335,214.088 C306.763003,214.386668 307.298998,214.536 307.960335,214.536 C308.771005,214.536 309.472332,214.389335 310.064335,214.096 C310.656338,213.802665 311.234998,213.357336 311.800335,212.76 L311.800335,209.992 Z M302.744335,202.872 C304.632344,201.143991 306.904321,200.28 309.560335,200.28 C310.520339,200.28 311.378997,200.437332 312.136335,200.752 C312.893672,201.066668 313.533665,201.503997 314.056335,202.064 C314.579004,202.624003 314.976333,203.293329 315.248335,204.072 C315.520336,204.850671 315.656335,205.703995 315.656335,206.632 L315.656335,217 L313.864335,217 C313.490999,217 313.203002,216.944001 313.000335,216.832 C312.797667,216.719999 312.637668,216.493335 312.520335,216.152 L312.168335,214.968 C311.752332,215.341335 311.347003,215.669332 310.952335,215.952 C310.557666,216.234668 310.147003,216.471999 309.720335,216.664 C309.293666,216.856001 308.83767,217.002666 308.352335,217.104 C307.866999,217.205334 307.331004,217.256 306.744335,217.256 C306.050998,217.256 305.411004,217.162668 304.824335,216.976 C304.237665,216.789332 303.731003,216.509335 303.304335,216.136 C302.877666,215.762665 302.547002,215.298669 302.312335,214.744 C302.077667,214.189331 301.960335,213.544004 301.960335,212.808 C301.960335,212.391998 302.029667,211.978669 302.168335,211.568 C302.307002,211.157331 302.533666,210.765335 302.848335,210.392 C303.163003,210.018665 303.570999,209.666668 304.072335,209.336 C304.57367,209.005332 305.189664,208.717335 305.920335,208.472 C306.651005,208.226665 307.501663,208.026667 308.472335,207.872 C309.443006,207.717333 310.552328,207.624 311.800335,207.592 L311.800335,206.632 C311.800335,205.533328 311.56567,204.720003 311.096335,204.192 C310.626999,203.663997 309.949672,203.4 309.064335,203.4 C308.424331,203.4 307.89367,203.474666 307.472335,203.624 C307.050999,203.773334 306.680336,203.941332 306.360335,204.128 C306.040333,204.314668 305.749669,204.482666 305.488335,204.632 C305.227,204.781334 304.936336,204.856 304.616335,204.856 C304.339,204.856 304.104336,204.784001 303.912335,204.64 C303.720334,204.495999 303.565668,204.328001 303.448335,204.136 L302.744335,202.872 Z M322.876751,203.432 C323.388754,202.450662 323.996748,201.680003 324.700751,201.12 C325.404755,200.559997 326.236746,200.28 327.196751,200.28 C327.954088,200.28 328.562082,200.445332 329.020751,200.776 L328.764751,203.736 C328.711418,203.928001 328.634085,204.064 328.532751,204.144 C328.431417,204.224 328.295419,204.264 328.124751,204.264 C327.96475,204.264 327.72742,204.237334 327.412751,204.184 C327.098083,204.130666 326.791419,204.104 326.492751,204.104 C326.055416,204.104 325.666086,204.167999 325.324751,204.296 C324.983416,204.424001 324.676753,204.607999 324.404751,204.848 C324.13275,205.088001 323.892752,205.378665 323.684751,205.72 C323.47675,206.061335 323.282086,206.450664 323.100751,206.888 L323.100751,217 L319.148751,217 L319.148751,200.584 L321.468751,200.584 C321.874087,200.584 322.15675,200.655999 322.316751,200.8 C322.476752,200.944001 322.583418,201.202665 322.636751,201.576 L322.876751,203.432 Z M340.977168,206.904 C340.977168,206.391997 340.905169,205.909336 340.761168,205.456 C340.617167,205.002664 340.401169,204.605335 340.113168,204.264 C339.825167,203.922665 339.459837,203.653334 339.017168,203.456 C338.574499,203.258666 338.059838,203.16 337.473168,203.16 C336.331829,203.16 335.433171,203.48533 334.777168,204.136 C334.121165,204.78667 333.702502,205.709327 333.521168,206.904 L340.977168,206.904 Z M333.441168,209.288 C333.505168,210.130671 333.6545,210.858664 333.889168,211.472 C334.123836,212.085336 334.433166,212.591998 334.817168,212.992 C335.20117,213.392002 335.657165,213.690666 336.185168,213.888 C336.713171,214.085334 337.297165,214.184 337.937168,214.184 C338.577171,214.184 339.129166,214.109334 339.593168,213.96 C340.05717,213.810666 340.4625,213.645334 340.809168,213.464 C341.155836,213.282666 341.459833,213.117334 341.721168,212.968 C341.982503,212.818666 342.235833,212.744 342.481168,212.744 C342.811836,212.744 343.057167,212.866665 343.217168,213.112 L344.353168,214.552 C343.915832,215.064003 343.425171,215.493332 342.881168,215.84 C342.337165,216.186668 341.769171,216.463999 341.177168,216.672 C340.585165,216.880001 339.982504,217.026666 339.369168,217.112 C338.755832,217.197334 338.161171,217.24 337.585168,217.24 C336.443829,217.24 335.382506,217.050669 334.401168,216.672 C333.41983,216.293331 332.566505,215.733337 331.841168,214.992 C331.115831,214.250663 330.54517,213.333339 330.129168,212.24 C329.713166,211.146661 329.505168,209.880007 329.505168,208.44 C329.505168,207.319994 329.6865,206.266672 330.049168,205.28 C330.411836,204.293328 330.931831,203.43467 331.609168,202.704 C332.286505,201.97333 333.113163,201.394669 334.089168,200.968 C335.065173,200.541331 336.166495,200.328 337.393168,200.328 C338.42784,200.328 339.382497,200.493332 340.257168,200.824 C341.131839,201.154668 341.883832,201.63733 342.513168,202.272 C343.142504,202.90667 343.635833,203.685329 343.993168,204.608 C344.350503,205.530671 344.529168,206.583994 344.529168,207.768 C344.529168,208.365336 344.465169,208.767999 344.337168,208.976 C344.209167,209.184001 343.963836,209.288 343.601168,209.288 L333.441168,209.288 Z M355.978001,217 L355.978001,203.56 L354.554001,203.336 C354.244667,203.272 353.996669,203.162667 353.810001,203.008 C353.623334,202.853333 353.530001,202.632001 353.530001,202.344 L353.530001,200.728 L355.978001,200.728 L355.978001,199.512 C355.978001,198.573329 356.119333,197.73067 356.402001,196.984 C356.68467,196.23733 357.089999,195.602669 357.618001,195.08 C358.146004,194.557331 358.788664,194.157335 359.546001,193.88 C360.303339,193.602665 361.156663,193.464 362.106001,193.464 C362.863339,193.464 363.567332,193.565332 364.218001,193.768 L364.138001,195.752 C364.127335,195.901334 364.084668,196.021333 364.010001,196.112 C363.935334,196.202667 363.836669,196.272 363.714001,196.32 C363.591334,196.368 363.450002,196.4 363.290001,196.416 C363.130001,196.432 362.959336,196.44 362.778001,196.44 C362.308666,196.44 361.890003,196.490666 361.522001,196.592 C361.154,196.693334 360.842003,196.869332 360.586001,197.12 C360.33,197.370668 360.135335,197.701331 360.002001,198.112 C359.868667,198.522669 359.802001,199.031997 359.802001,199.64 L359.802001,200.728 L364.074001,200.728 L364.074001,203.544 L359.930001,203.544 L359.930001,217 L355.978001,217 Z M372.910418,200.328 C374.126424,200.328 375.23308,200.525331 376.230418,200.92 C377.227756,201.314669 378.081081,201.874663 378.790418,202.6 C379.499755,203.325337 380.046416,204.210661 380.430418,205.256 C380.81442,206.301339 381.006418,207.469327 381.006418,208.76 C381.006418,210.06134 380.81442,211.234661 380.430418,212.28 C380.046416,213.325339 379.499755,214.215996 378.790418,214.952 C378.081081,215.688004 377.227756,216.253331 376.230418,216.648 C375.23308,217.042669 374.126424,217.24 372.910418,217.24 C371.683745,217.24 370.56909,217.042669 369.566418,216.648 C368.563746,216.253331 367.707755,215.688004 366.998418,214.952 C366.289081,214.215996 365.739753,213.325339 365.350418,212.28 C364.961083,211.234661 364.766418,210.06134 364.766418,208.76 C364.766418,207.469327 364.961083,206.301339 365.350418,205.256 C365.739753,204.210661 366.289081,203.325337 366.998418,202.6 C367.707755,201.874663 368.563746,201.314669 369.566418,200.92 C370.56909,200.525331 371.683745,200.328 372.910418,200.328 Z M372.910418,214.2 C374.275758,214.2 375.286415,213.741338 375.942418,212.824 C376.598421,211.906662 376.926418,210.562676 376.926418,208.792 C376.926418,207.021324 376.598421,205.672005 375.942418,204.744 C375.286415,203.815995 374.275758,203.352 372.910418,203.352 C371.523745,203.352 370.497088,203.818662 369.830418,204.752 C369.163748,205.685338 368.830418,207.031991 368.830418,208.792 C368.830418,210.552009 369.163748,211.893329 369.830418,212.816 C370.497088,213.738671 371.523745,214.2 372.910418,214.2 Z M387.538835,203.432 C388.050837,202.450662 388.658831,201.680003 389.362835,201.12 C390.066838,200.559997 390.89883,200.28 391.858835,200.28 C392.616172,200.28 393.224166,200.445332 393.682835,200.776 L393.426835,203.736 C393.373501,203.928001 393.296169,204.064 393.194835,204.144 C393.093501,204.224 392.957502,204.264 392.786835,204.264 C392.626834,204.264 392.389503,204.237334 392.074835,204.184 C391.760167,204.130666 391.453503,204.104 391.154835,204.104 C390.717499,204.104 390.32817,204.167999 389.986835,204.296 C389.6455,204.424001 389.338836,204.607999 389.066835,204.848 C388.794834,205.088001 388.554836,205.378665 388.346835,205.72 C388.138834,206.061335 387.944169,206.450664 387.762835,206.888 L387.762835,217 L383.810835,217 L383.810835,200.584 L386.130835,200.584 C386.53617,200.584 386.818834,200.655999 386.978835,200.8 C387.138836,200.944001 387.245501,201.202665 387.298835,201.576 L387.538835,203.432 Z M411.083668,209.992 C409.942329,210.045334 408.982339,210.143999 408.203668,210.288 C407.424998,210.432001 406.801004,210.615999 406.331668,210.84 C405.862333,211.064001 405.526336,211.325332 405.323668,211.624 C405.121001,211.922668 405.019668,212.247998 405.019668,212.6 C405.019668,213.293337 405.225,213.789332 405.635668,214.088 C406.046337,214.386668 406.582332,214.536 407.243668,214.536 C408.054339,214.536 408.755665,214.389335 409.347668,214.096 C409.939671,213.802665 410.518332,213.357336 411.083668,212.76 L411.083668,209.992 Z M402.027668,202.872 C403.915678,201.143991 406.187655,200.28 408.843668,200.28 C409.803673,200.28 410.662331,200.437332 411.419668,200.752 C412.177005,201.066668 412.816999,201.503997 413.339668,202.064 C413.862338,202.624003 414.259667,203.293329 414.531668,204.072 C414.80367,204.850671 414.939668,205.703995 414.939668,206.632 L414.939668,217 L413.147668,217 C412.774333,217 412.486336,216.944001 412.283668,216.832 C412.081001,216.719999 411.921002,216.493335 411.803668,216.152 L411.451668,214.968 C411.035666,215.341335 410.630337,215.669332 410.235668,215.952 C409.841,216.234668 409.430337,216.471999 409.003668,216.664 C408.577,216.856001 408.121004,217.002666 407.635668,217.104 C407.150333,217.205334 406.614338,217.256 406.027668,217.256 C405.334332,217.256 404.694338,217.162668 404.107668,216.976 C403.520999,216.789332 403.014337,216.509335 402.587668,216.136 C402.161,215.762665 401.830336,215.298669 401.595668,214.744 C401.361001,214.189331 401.243668,213.544004 401.243668,212.808 C401.243668,212.391998 401.313001,211.978669 401.451668,211.568 C401.590336,211.157331 401.817,210.765335 402.131668,210.392 C402.446337,210.018665 402.854333,209.666668 403.355668,209.336 C403.857004,209.005332 404.472998,208.717335 405.203668,208.472 C405.934339,208.226665 406.784997,208.026667 407.755668,207.872 C408.72634,207.717333 409.835662,207.624 411.083668,207.592 L411.083668,206.632 C411.083668,205.533328 410.849004,204.720003 410.379668,204.192 C409.910333,203.663997 409.233006,203.4 408.347668,203.4 C407.707665,203.4 407.177004,203.474666 406.755668,203.624 C406.334333,203.773334 405.96367,203.941332 405.643668,204.128 C405.323667,204.314668 405.033003,204.482666 404.771668,204.632 C404.510334,204.781334 404.21967,204.856 403.899668,204.856 C403.622334,204.856 403.387669,204.784001 403.195668,204.64 C403.003667,204.495999 402.849002,204.328001 402.731668,204.136 L402.027668,202.872 Z M429.988502,193.224 L429.988502,217 L426.036502,217 L426.036502,193.224 L429.988502,193.224 Z M440.984919,200.328 C442.200925,200.328 443.30758,200.525331 444.304919,200.92 C445.302257,201.314669 446.155582,201.874663 446.864919,202.6 C447.574255,203.325337 448.120917,204.210661 448.504919,205.256 C448.88892,206.301339 449.080919,207.469327 449.080919,208.76 C449.080919,210.06134 448.88892,211.234661 448.504919,212.28 C448.120917,213.325339 447.574255,214.215996 446.864919,214.952 C446.155582,215.688004 445.302257,216.253331 444.304919,216.648 C443.30758,217.042669 442.200925,217.24 440.984919,217.24 C439.758246,217.24 438.64359,217.042669 437.640919,216.648 C436.638247,216.253331 435.782255,215.688004 435.072919,214.952 C434.363582,214.215996 433.814254,213.325339 433.424919,212.28 C433.035583,211.234661 432.840919,210.06134 432.840919,208.76 C432.840919,207.469327 433.035583,206.301339 433.424919,205.256 C433.814254,204.210661 434.363582,203.325337 435.072919,202.6 C435.782255,201.874663 436.638247,201.314669 437.640919,200.92 C438.64359,200.525331 439.758246,200.328 440.984919,200.328 Z M440.984919,214.2 C442.350259,214.2 443.360915,213.741338 444.016919,212.824 C444.672922,211.906662 445.000919,210.562676 445.000919,208.792 C445.000919,207.021324 444.672922,205.672005 444.016919,204.744 C443.360915,203.815995 442.350259,203.352 440.984919,203.352 C439.598245,203.352 438.571589,203.818662 437.904919,204.752 C437.238249,205.685338 436.904919,207.031991 436.904919,208.792 C436.904919,210.552009 437.238249,211.893329 437.904919,212.816 C438.571589,213.738671 439.598245,214.2 440.984919,214.2 Z M475.053335,200.584 L469.837335,217 L466.669335,217 C466.306667,217 466.056003,216.765336 465.917335,216.296 L462.973335,206.808 C462.877335,206.487998 462.789336,206.170668 462.709335,205.856 C462.629335,205.541332 462.562669,205.224002 462.509335,204.904 C462.445335,205.224002 462.373336,205.546665 462.293335,205.872 C462.213335,206.197335 462.125336,206.519998 462.029335,206.84 L459.037335,216.296 C458.909335,216.765336 458.626671,217 458.189335,217 L455.149335,217 L449.949335,200.584 L453.101335,200.584 C453.389337,200.584 453.634668,200.653333 453.837335,200.792 C454.040003,200.930667 454.173335,201.106666 454.237335,201.32 L456.589335,210.088 C456.706669,210.568002 456.810668,211.037331 456.901335,211.496 C456.992002,211.954669 457.069335,212.413331 457.133335,212.872 C457.250669,212.413331 457.376001,211.954669 457.509335,211.496 C457.642669,211.037331 457.784001,210.568002 457.933335,210.088 L460.653335,201.288 C460.717336,201.074666 460.842668,200.898667 461.029335,200.76 C461.216003,200.621333 461.442667,200.552 461.709335,200.552 L463.453335,200.552 C463.73067,200.552 463.968001,200.621333 464.165335,200.76 C464.36267,200.898667 464.493335,201.074666 464.557335,201.288 L467.197335,210.088 C467.336003,210.568002 467.466668,211.039998 467.589335,211.504 C467.712003,211.968002 467.832001,212.429331 467.949335,212.888 C468.088003,211.981329 468.285334,211.048005 468.541335,210.088 L470.957335,201.32 C471.032002,201.106666 471.165334,200.930667 471.357335,200.792 C471.549336,200.653333 471.778667,200.584 472.045335,200.584 L475.053335,200.584 Z M483.974169,217 L483.974169,200.584 L486.390169,200.584 C486.902171,200.584 487.238168,200.823998 487.398169,201.304 L487.654169,202.52 C487.94217,202.199998 488.2435,201.906668 488.558169,201.64 C488.872837,201.373332 489.208834,201.144001 489.566169,200.952 C489.923504,200.759999 490.3075,200.608001 490.718169,200.496 C491.128837,200.383999 491.5795,200.328 492.070169,200.328 C493.104841,200.328 493.955499,200.607997 494.622169,201.168 C495.288839,201.728003 495.7875,202.471995 496.118169,203.4 C496.37417,202.855997 496.694167,202.389335 497.078169,202 C497.462171,201.610665 497.8835,201.293335 498.342169,201.048 C498.800838,200.802665 499.288833,200.621334 499.806169,200.504 C500.323505,200.386666 500.843499,200.328 501.366169,200.328 C502.27284,200.328 503.078165,200.466665 503.782169,200.744 C504.486172,201.021335 505.078166,201.426664 505.558169,201.96 C506.038171,202.493336 506.403501,203.143996 506.654169,203.912 C506.904837,204.680004 507.030169,205.559995 507.030169,206.552 L507.030169,217 L503.078169,217 L503.078169,206.552 C503.078169,205.506661 502.848838,204.720003 502.390169,204.192 C501.9315,203.663997 501.259506,203.4 500.374169,203.4 C499.968833,203.4 499.592837,203.469333 499.246169,203.608 C498.8995,203.746667 498.595503,203.946665 498.334169,204.208 C498.072834,204.469335 497.867503,204.797331 497.718169,205.192 C497.568835,205.586669 497.494169,206.039997 497.494169,206.552 L497.494169,217 L493.526169,217 L493.526169,206.552 C493.526169,205.453328 493.304838,204.653336 492.862169,204.152 C492.4195,203.650664 491.771506,203.4 490.918169,203.4 C490.342166,203.4 489.806171,203.541332 489.310169,203.824 C488.814166,204.106668 488.352838,204.493331 487.926169,204.984 L487.926169,217 L483.974169,217 Z M517.818585,200.328 C519.034592,200.328 520.141247,200.525331 521.138585,200.92 C522.135924,201.314669 522.989249,201.874663 523.698585,202.6 C524.407922,203.325337 524.954584,204.210661 525.338585,205.256 C525.722587,206.301339 525.914585,207.469327 525.914585,208.76 C525.914585,210.06134 525.722587,211.234661 525.338585,212.28 C524.954584,213.325339 524.407922,214.215996 523.698585,214.952 C522.989249,215.688004 522.135924,216.253331 521.138585,216.648 C520.141247,217.042669 519.034592,217.24 517.818585,217.24 C516.591913,217.24 515.477257,217.042669 514.474585,216.648 C513.471914,216.253331 512.615922,215.688004 511.906585,214.952 C511.197249,214.215996 510.647921,213.325339 510.258585,212.28 C509.86925,211.234661 509.674585,210.06134 509.674585,208.76 C509.674585,207.469327 509.86925,206.301339 510.258585,205.256 C510.647921,204.210661 511.197249,203.325337 511.906585,202.6 C512.615922,201.874663 513.471914,201.314669 514.474585,200.92 C515.477257,200.525331 516.591913,200.328 517.818585,200.328 Z M517.818585,214.2 C519.183926,214.2 520.194582,213.741338 520.850585,212.824 C521.506589,211.906662 521.834585,210.562676 521.834585,208.792 C521.834585,207.021324 521.506589,205.672005 520.850585,204.744 C520.194582,203.815995 519.183926,203.352 517.818585,203.352 C516.431912,203.352 515.405255,203.818662 514.738585,204.752 C514.071915,205.685338 513.738585,207.031991 513.738585,208.792 C513.738585,210.552009 514.071915,211.893329 514.738585,212.816 C515.405255,213.738671 516.431912,214.2 517.818585,214.2 Z M532.415002,202.6 C532.74567,202.269332 533.095,201.962668 533.463002,201.68 C533.831004,201.397332 534.220333,201.157334 534.631002,200.96 C535.041671,200.762666 535.481666,200.608001 535.951002,200.496 C536.420338,200.383999 536.932333,200.328 537.487002,200.328 C538.383007,200.328 539.177665,200.479998 539.871002,200.784 C540.564339,201.088002 541.143,201.514664 541.607002,202.064 C542.071004,202.613336 542.423001,203.26933 542.663002,204.032 C542.903003,204.79467 543.023002,205.634662 543.023002,206.552 L543.023002,217 L539.071002,217 L539.071002,206.552 C539.071002,205.549328 538.841671,204.773336 538.383002,204.224 C537.924333,203.674664 537.225674,203.4 536.287002,203.4 C535.604332,203.4 534.964338,203.554665 534.367002,203.864 C533.769666,204.173335 533.204338,204.594664 532.671002,205.128 L532.671002,217 L528.719002,217 L528.719002,200.584 L531.135002,200.584 C531.647005,200.584 531.983001,200.823998 532.143002,201.304 L532.415002,202.6 Z M551.795419,217.256 C550.366078,217.256 549.270089,216.853337 548.507419,216.048 C547.744748,215.242663 547.363419,214.130674 547.363419,212.712 L547.363419,203.544 L545.683419,203.544 C545.470085,203.544 545.288753,203.474667 545.139419,203.336 C544.990085,203.197333 544.915419,202.989335 544.915419,202.712 L544.915419,201.144 L547.555419,200.712 L548.387419,196.232 C548.440753,196.018666 548.542085,195.853334 548.691419,195.736 C548.840753,195.618666 549.032751,195.56 549.267419,195.56 L551.315419,195.56 L551.315419,200.728 L555.699419,200.728 L555.699419,203.544 L551.315419,203.544 L551.315419,212.44 C551.315419,212.952003 551.440751,213.351999 551.691419,213.64 C551.942087,213.928001 552.286083,214.072 552.723419,214.072 C552.968753,214.072 553.174085,214.042667 553.339419,213.984 C553.504753,213.925333 553.648752,213.864 553.771419,213.8 C553.894086,213.736 554.003418,213.674667 554.099419,213.616 C554.195419,213.557333 554.291418,213.528 554.387419,213.528 C554.504753,213.528 554.600752,213.557333 554.675419,213.616 C554.750086,213.674667 554.830085,213.762666 554.915419,213.88 L556.099419,215.8 C555.523416,216.280002 554.862089,216.642665 554.115419,216.888 C553.368749,217.133335 552.595423,217.256 551.795419,217.256 Z M561.959836,202.344 C562.599839,201.746664 563.303832,201.261335 564.071836,200.888 C564.839839,200.514665 565.741164,200.328 566.775836,200.328 C567.67184,200.328 568.466499,200.479998 569.159836,200.784 C569.853172,201.088002 570.431833,201.514664 570.895836,202.064 C571.359838,202.613336 571.711834,203.26933 571.951836,204.032 C572.191837,204.79467 572.311836,205.634662 572.311836,206.552 L572.311836,217 L568.359836,217 L568.359836,206.552 C568.359836,205.549328 568.130505,204.773336 567.671836,204.224 C567.213167,203.674664 566.514507,203.4 565.575836,203.4 C564.893166,203.4 564.253172,203.554665 563.655836,203.864 C563.058499,204.173335 562.493172,204.594664 561.959836,205.128 L561.959836,217 L558.007836,217 L558.007836,193.224 L561.959836,193.224 L561.959836,202.344 Z M579.836252,193.224 L579.836252,217 L575.884252,217 L575.884252,193.224 L579.836252,193.224 Z M598.480669,200.584 L589.536669,221.512 C589.419335,221.789335 589.267337,221.999999 589.080669,222.144 C588.894001,222.288001 588.608671,222.36 588.224669,222.36 L585.280669,222.36 L588.352669,215.768 L581.712669,200.584 L585.184669,200.584 C585.494004,200.584 585.736668,200.658666 585.912669,200.808 C586.08867,200.957334 586.219335,201.127999 586.304669,201.32 L589.792669,209.832 C589.910003,210.120001 590.008669,210.407999 590.088669,210.696 C590.168669,210.984001 590.246002,211.277332 590.320669,211.576 C590.41667,211.277332 590.512669,210.981335 590.608669,210.688 C590.70467,210.394665 590.811335,210.104001 590.928669,209.816 L594.224669,201.32 C594.310003,201.106666 594.451335,200.930667 594.648669,200.792 C594.846003,200.653333 595.067335,200.584 595.312669,200.584 L598.480669,200.584 Z M608.137503,217 L608.137503,203.56 L606.713503,203.336 C606.404168,203.272 606.15617,203.162667 605.969503,203.008 C605.782835,202.853333 605.689503,202.632001 605.689503,202.344 L605.689503,200.728 L608.137503,200.728 L608.137503,199.512 C608.137503,198.573329 608.278834,197.73067 608.561503,196.984 C608.844171,196.23733 609.2495,195.602669 609.777503,195.08 C610.305505,194.557331 610.948165,194.157335 611.705503,193.88 C612.46284,193.602665 613.316164,193.464 614.265503,193.464 C615.02284,193.464 615.726833,193.565332 616.377503,193.768 L616.297503,195.752 C616.286836,195.901334 616.24417,196.021333 616.169503,196.112 C616.094835,196.202667 615.99617,196.272 615.873503,196.32 C615.750835,196.368 615.609503,196.4 615.449503,196.416 C615.289502,196.432 615.118837,196.44 614.937503,196.44 C614.468167,196.44 614.049504,196.490666 613.681503,196.592 C613.313501,196.693334 613.001504,196.869332 612.745503,197.12 C612.489501,197.370668 612.294837,197.701331 612.161503,198.112 C612.028169,198.522669 611.961503,199.031997 611.961503,199.64 L611.961503,200.728 L616.233503,200.728 L616.233503,203.544 L612.089503,203.544 L612.089503,217 L608.137503,217 Z M628.381919,206.904 C628.381919,206.391997 628.30992,205.909336 628.165919,205.456 C628.021919,205.002664 627.805921,204.605335 627.517919,204.264 C627.229918,203.922665 626.864588,203.653334 626.421919,203.456 C625.97925,203.258666 625.464589,203.16 624.877919,203.16 C623.73658,203.16 622.837923,203.48533 622.181919,204.136 C621.525916,204.78667 621.107254,205.709327 620.925919,206.904 L628.381919,206.904 Z M620.845919,209.288 C620.90992,210.130671 621.059251,210.858664 621.293919,211.472 C621.528587,212.085336 621.837917,212.591998 622.221919,212.992 C622.605921,213.392002 623.061917,213.690666 623.589919,213.888 C624.117922,214.085334 624.701916,214.184 625.341919,214.184 C625.981922,214.184 626.533917,214.109334 626.997919,213.96 C627.461922,213.810666 627.867251,213.645334 628.213919,213.464 C628.560588,213.282666 628.864585,213.117334 629.125919,212.968 C629.387254,212.818666 629.640585,212.744 629.885919,212.744 C630.216588,212.744 630.461918,212.866665 630.621919,213.112 L631.757919,214.552 C631.320584,215.064003 630.829922,215.493332 630.285919,215.84 C629.741917,216.186668 629.173922,216.463999 628.581919,216.672 C627.989916,216.880001 627.387256,217.026666 626.773919,217.112 C626.160583,217.197334 625.565922,217.24 624.989919,217.24 C623.84858,217.24 622.787258,217.050669 621.805919,216.672 C620.824581,216.293331 619.971256,215.733337 619.245919,214.992 C618.520582,214.250663 617.949921,213.333339 617.533919,212.24 C617.117917,211.146661 616.909919,209.880007 616.909919,208.44 C616.909919,207.319994 617.091251,206.266672 617.453919,205.28 C617.816588,204.293328 618.336583,203.43467 619.013919,202.704 C619.691256,201.97333 620.517914,201.394669 621.493919,200.968 C622.469924,200.541331 623.571246,200.328 624.797919,200.328 C625.832591,200.328 626.787248,200.493332 627.661919,200.824 C628.53659,201.154668 629.288583,201.63733 629.917919,202.272 C630.547256,202.90667 631.040584,203.685329 631.397919,204.608 C631.755254,205.530671 631.933919,206.583994 631.933919,207.768 C631.933919,208.365336 631.86992,208.767999 631.741919,208.976 C631.613919,209.184001 631.368588,209.288 631.005919,209.288 L620.845919,209.288 Z M645.250336,206.904 C645.250336,206.391997 645.178337,205.909336 645.034336,205.456 C644.890335,205.002664 644.674337,204.605335 644.386336,204.264 C644.098335,203.922665 643.733005,203.653334 643.290336,203.456 C642.847667,203.258666 642.333006,203.16 641.746336,203.16 C640.604997,203.16 639.706339,203.48533 639.050336,204.136 C638.394333,204.78667 637.97567,205.709327 637.794336,206.904 L645.250336,206.904 Z M637.714336,209.288 C637.778336,210.130671 637.927668,210.858664 638.162336,211.472 C638.397004,212.085336 638.706334,212.591998 639.090336,212.992 C639.474338,213.392002 639.930333,213.690666 640.458336,213.888 C640.986339,214.085334 641.570333,214.184 642.210336,214.184 C642.850339,214.184 643.402334,214.109334 643.866336,213.96 C644.330338,213.810666 644.735668,213.645334 645.082336,213.464 C645.429004,213.282666 645.733001,213.117334 645.994336,212.968 C646.255671,212.818666 646.509001,212.744 646.754336,212.744 C647.085004,212.744 647.330335,212.866665 647.490336,213.112 L648.626336,214.552 C648.189,215.064003 647.698339,215.493332 647.154336,215.84 C646.610333,216.186668 646.042339,216.463999 645.450336,216.672 C644.858333,216.880001 644.255672,217.026666 643.642336,217.112 C643.029,217.197334 642.434339,217.24 641.858336,217.24 C640.716997,217.24 639.655674,217.050669 638.674336,216.672 C637.692998,216.293331 636.839673,215.733337 636.114336,214.992 C635.388999,214.250663 634.818338,213.333339 634.402336,212.24 C633.986334,211.146661 633.778336,209.880007 633.778336,208.44 C633.778336,207.319994 633.959668,206.266672 634.322336,205.28 C634.685004,204.293328 635.204999,203.43467 635.882336,202.704 C636.559673,201.97333 637.386331,201.394669 638.362336,200.968 C639.338341,200.541331 640.439663,200.328 641.666336,200.328 C642.701008,200.328 643.655665,200.493332 644.530336,200.824 C645.405007,201.154668 646.157,201.63733 646.786336,202.272 C647.415672,202.90667 647.909001,203.685329 648.266336,204.608 C648.623671,205.530671 648.802336,206.583994 648.802336,207.768 C648.802336,208.365336 648.738337,208.767999 648.610336,208.976 C648.482335,209.184001 648.237004,209.288 647.874336,209.288 L637.714336,209.288 Z M650.966753,214.824 C650.966753,214.493332 651.028085,214.178668 651.150753,213.88 C651.27342,213.581332 651.441418,213.325334 651.654753,213.112 C651.868087,212.898666 652.124085,212.728001 652.422753,212.6 C652.721421,212.471999 653.041418,212.408 653.382753,212.408 C653.724088,212.408 654.041418,212.471999 654.334753,212.6 C654.628088,212.728001 654.884085,212.898666 655.102753,213.112 C655.32142,213.325334 655.494752,213.581332 655.622753,213.88 C655.750753,214.178668 655.814753,214.493332 655.814753,214.824 C655.814753,215.165335 655.750753,215.482665 655.622753,215.776 C655.494752,216.069335 655.32142,216.322666 655.102753,216.536 C654.884085,216.749334 654.628088,216.917333 654.334753,217.04 C654.041418,217.162667 653.724088,217.224 653.382753,217.224 C653.041418,217.224 652.721421,217.162667 652.422753,217.04 C652.124085,216.917333 651.868087,216.749334 651.654753,216.536 C651.441418,216.322666 651.27342,216.069335 651.150753,215.776 C651.028085,215.482665 650.966753,215.165335 650.966753,214.824 Z" id="Get-your-preventive" fill="#4D4D4D"></path>
                    <path d="M35.076,103.482 C33.966,102.89 32.486,102.594 30.636,102.594 C16.502,102.594 0,124.868 0,143.886 C0,154.986 5.772,162.238 14.208,162.238 C26.122,162.238 42.994,147.438 42.994,120.502 C42.994,114.73 41.81,106.22 36.704,106.22 C31.82,106.22 23.31,115.174 23.31,120.428 C23.31,122.056 24.346,123.462 26.862,124.054 C28.046,118.504 33.226,108.218 36.852,108.218 C39.368,108.218 40.182,114.36 40.182,118.43 C40.182,135.968 30.266,159.722 16.428,159.722 C9.398,159.722 6.512,152.84 6.512,144.922 C6.512,126.94 21.534,103.482 34.262,103.482 L35.076,103.482 Z M64.4639999,135.746 C65.2779999,135.894 68.0159999,136.412 68.0159999,137.67 C68.0159999,138.484 63.0579999,147.882 63.0579999,152.84 C63.0579999,154.616 63.7239999,155.8 65.4999999,155.8 C68.6079999,155.8 74.2319999,151.434 77.8579999,143.812 L78.8199999,144.478 C75.6379999,152.47 69.1999999,158.02 63.9459999,158.02 C60.0239999,158.02 58.7659999,155.578 58.7659999,152.544 C58.7659999,151.36 58.9879999,150.102 59.2839999,148.844 C56.5459999,153.728 53.2899999,158.02 49.5899999,158.02 C46.2599999,158.02 44.0399999,154.542 44.0399999,150.546 C44.0399999,144.922 48.3319999,133.748 50.5519999,133.748 C51.0699999,133.748 52.4759999,134.34 53.2899999,135.228 C51.6619999,137.744 48.3319999,145.144 48.3319999,150.102 C48.3319999,151.36 48.5539999,155.06 50.9959999,155.06 C55.5839999,155.06 61.6519999,141.296 64.4639999,135.746 Z M76.9059997,147.66 L76.2399997,146.402 C77.5719997,143.812 80.0879997,138.632 82.2339997,132.342 C81.7899997,131.898 81.4939997,131.306 81.4939997,130.566 C81.4939997,127.606 83.7879997,125.534 84.6019997,125.534 C85.6379997,125.534 85.6379997,126.792 85.6379997,127.31 C85.6379997,127.828 84.8239997,129.752 84.8239997,130.048 C84.8239997,132.786 92.3719997,134.044 92.3719997,140.334 C92.3719997,144.848 88.6719997,149.732 88.6719997,152.84 C88.6719997,154.616 89.7079997,155.06 90.8919997,155.06 C95.5539997,155.06 101.622,148.326 103.472,144.034 L104.434,144.774 C101.622,151.064 95.2579997,157.724 88.9679997,157.724 C85.6379997,157.724 83.5659997,155.8 83.5659997,152.914 C83.5659997,148.548 87.6359997,142.998 87.6359997,139.076 C87.6359997,135.894 85.3419997,134.784 83.4919997,133.452 C81.1979997,139.298 78.4599997,144.996 76.9059997,147.66 Z M131.019999,157.724 C141.231999,157.724 148.483999,146.846 148.483999,139.15 C148.483999,134.118 145.375999,130.714 141.009999,130.714 C135.237999,130.714 130.723999,136.708 128.207999,141.592 C129.243999,136.782 129.909999,133.008 129.909999,131.602 C129.909999,129.9 128.873999,128.198 126.357999,128.198 C125.173999,128.198 125.025999,128.568 124.951999,129.456 C121.399999,159.13 118.365999,161.498 114.887999,173.708 C114.813999,174.004 115.923999,176.52 117.181999,176.52 C117.477999,176.52 117.847999,176.372 118.069999,176.15 C119.771999,174.522 123.693999,160.832 127.171999,146.032 C129.021999,141.74 134.275999,134.118 139.455999,134.118 C142.415999,134.118 143.673999,136.708 143.673999,139.816 C143.673999,147.364 136.495999,156.022 128.577999,156.022 C127.541999,156.022 126.727999,156.022 126.727999,156.392 C126.727999,156.984 128.429999,157.724 131.019999,157.724 Z M171.285999,140.112 C172.173999,140.26 174.245999,140.852 174.245999,141.962 C174.245999,143.664 169.953999,148.696 169.953999,152.248 C169.953999,153.728 170.693999,155.504 172.469999,155.504 C175.133999,155.504 179.869999,151.656 184.309999,143.812 L185.049999,144.552 C181.941999,152.544 175.651999,158.02 170.397999,158.02 C166.771999,158.02 165.069999,155.43 165.069999,152.84 C165.069999,152.248 165.143999,151.508 165.291999,150.694 C160.999999,156.392 157.743999,159.278 154.117999,159.278 C151.009999,159.278 148.641999,157.28 148.641999,153.136 C148.641999,144.33 159.519999,130.418 169.139999,130.418 C172.987999,130.418 175.873999,132.638 175.873999,135.968 C175.873999,138.41 174.393999,139.15 172.247999,139.15 C172.469999,138.336 172.617999,137.374 172.617999,136.56 C172.617999,134.34 171.655999,132.416 168.991999,132.416 C162.035999,132.416 153.747999,146.18 153.747999,153.358 C153.747999,155.356 154.413999,156.244 155.745999,156.244 C160.333999,156.244 167.659999,145.44 171.285999,140.112 Z M205.039999,132.194 L205.039999,133.526 C199.637999,134.118 195.345999,134.414 192.015999,134.414 L190.905999,134.414 C188.611999,139.668 186.835999,145.292 186.835999,150.546 C186.835999,154.838 188.019999,156.466 190.979999,156.466 C196.085999,156.466 201.265999,151.582 205.039999,143.812 L206.001999,144.552 C202.449999,152.914 195.789999,159.204 188.833999,159.204 C184.541999,159.204 182.247999,156.762 182.247999,151.878 C182.247999,147.512 184.023999,140.778 186.539999,134.044 C185.577999,133.896 184.689999,133.748 183.875999,133.452 L183.875999,132.12 C184.615999,132.194 185.725999,132.342 187.131999,132.416 C191.275999,121.76 196.973999,111.622 200.007999,111.622 C200.747999,111.622 201.561999,112.214 201.561999,113.25 C201.561999,115.84 196.011999,123.536 191.719999,132.638 L194.457999,132.638 C197.713999,132.638 201.339999,132.564 205.039999,132.194 Z M213.633999,130.714 C214.521999,130.714 215.261999,131.306 215.261999,132.342 C215.261999,134.784 207.565999,143.738 207.565999,150.694 C207.565999,154.246 208.749999,155.134 211.191999,155.134 C214.521999,155.134 218.369999,152.248 222.587999,143.812 L223.253999,144.552 C220.367999,153.062 214.447999,157.724 208.675999,157.724 C204.827999,157.724 202.977999,154.986 202.977999,151.508 C202.977999,145.884 208.601999,130.714 213.633999,130.714 Z M217.555999,123.832 C219.923999,123.832 222.365999,121.686 222.365999,119.836 C222.365999,118.134 221.403999,117.542 219.923999,117.542 C217.555999,117.542 214.521999,119.318 214.521999,121.39 C214.521999,123.092 215.927999,123.832 217.555999,123.832 Z M243.243999,133.674 C243.243999,141.222 233.327999,147.216 224.891999,148.03 C224.669999,148.992 224.595999,149.954 224.595999,150.694 C224.595999,153.728 225.853999,156.91 230.441999,156.91 C236.731999,156.91 243.317999,150.916 247.017999,143.812 L247.905999,144.478 C243.909999,153.358 236.213999,159.056 228.887999,159.056 C222.893999,159.056 219.859999,155.282 219.859999,150.472 C219.859999,141.666 229.923999,129.16 238.655999,129.16 C240.949999,129.16 243.243999,130.048 243.243999,133.674 Z M238.433999,131.454 C233.697999,131.454 227.259999,139.594 225.261999,146.624 C230.515999,144.774 239.987999,139.52 239.987999,133.156 C239.987999,132.046 239.691999,131.454 238.433999,131.454 Z M242.439999,155.282 C242.439999,154.394 247.619999,143.516 247.693999,137.078 C248.285999,136.412 249.691999,135.524 251.097999,135.524 C252.429999,135.524 253.095999,136.264 253.095999,137.448 C253.095999,139.002 252.059999,143.146 250.727999,147.216 C254.649999,141.222 260.495999,134.192 266.119999,134.192 C269.967999,134.192 271.595999,137.522 271.595999,140.852 C271.595999,145.44 268.561999,148.918 268.561999,152.544 C268.561999,154.616 269.523999,155.356 270.781999,155.356 C274.481999,155.356 278.403999,149.288 281.141999,143.812 L281.955999,144.774 C278.847999,152.026 274.703999,157.28 269.153999,157.28 C265.675999,157.28 263.973999,155.282 263.973999,152.544 C263.973999,149.51 266.119999,145.736 266.119999,142.258 C266.119999,139.52 264.861999,138.632 263.159999,138.632 C257.017999,138.632 250.209999,150.398 246.361999,156.91 C244.807999,156.91 243.253999,156.392 242.439999,155.282 Z M301.945999,132.194 L301.945999,133.526 C296.543999,134.118 292.251999,134.414 288.921999,134.414 L287.811999,134.414 C285.517999,139.668 283.741999,145.292 283.741999,150.546 C283.741999,154.838 284.925999,156.466 287.885999,156.466 C292.991999,156.466 298.171999,151.582 301.945999,143.812 L302.907999,144.552 C299.355999,152.914 292.695999,159.204 285.739999,159.204 C281.447999,159.204 279.153999,156.762 279.153999,151.878 C279.153999,147.512 280.929999,140.778 283.445999,134.044 C282.483999,133.896 281.595999,133.748 280.781999,133.452 L280.781999,132.12 C281.521999,132.194 282.631999,132.342 284.037999,132.416 C288.181999,121.76 293.879999,111.622 296.913999,111.622 C297.653999,111.622 298.467999,112.214 298.467999,113.25 C298.467999,115.84 292.917999,123.536 288.625999,132.638 L291.363999,132.638 C294.619999,132.638 298.245999,132.564 301.945999,132.194 Z M298.773999,149.88 C298.773999,144.034 302.695999,144.108 303.509999,143.22 C306.469999,139.964 308.985999,136.412 310.835999,132.49 L310.835999,131.602 C310.835999,127.976 312.315999,126.57 313.721999,126.57 C314.535999,126.57 314.905999,127.014 314.905999,127.532 C314.905999,128.05 314.461999,129.086 314.461999,130.788 C314.461999,135.672 318.309999,141.814 318.309999,148.622 C318.309999,149.954 318.161999,151.138 317.865999,152.248 C321.269999,151.656 324.303999,149.436 327.189999,143.886 L327.855999,144.626 C326.005999,150.028 321.935999,152.766 317.495999,153.432 C315.941999,157.65 312.241999,159.574 308.023999,159.574 C301.067999,159.574 298.773999,154.32 298.773999,149.88 Z M313.499999,148.696 C313.499999,144.034 311.945999,139.372 311.205999,135.302 C308.911999,139.076 306.247999,142.702 304.027999,144.922 C305.507999,148.104 308.689999,151.212 313.203999,152.174 C313.351999,151.212 313.499999,150.176 313.499999,148.696 Z M308.171999,156.984 C309.355999,156.984 311.723999,156.614 312.833999,153.358 C308.689999,152.544 305.285999,149.732 303.731999,147.216 C302.547999,147.29 302.103999,148.252 302.103999,149.806 C302.103999,153.358 304.323999,156.984 308.171999,156.984 Z M367.613998,132.49 C367.095998,131.75 366.133998,131.38 364.801998,131.38 C356.809998,131.38 349.779998,145.218 349.779998,150.916 C349.779998,153.136 350.815998,154.468 352.443998,154.468 C356.439998,154.468 363.691998,146.476 368.427998,134.118 C373.903998,119.836 380.563998,102.52 384.633998,102.52 C385.447998,102.52 386.113998,103.26 386.113998,104.222 C386.113998,108.884 369.093998,135.968 369.093998,150.62 C369.093998,153.432 369.093998,154.764 370.795998,154.764 C373.829998,154.764 379.083998,150.546 382.191998,143.812 L383.079998,144.478 C380.193998,152.1 373.755998,157.724 368.723998,157.724 C365.023998,157.724 363.839998,154.764 363.839998,152.174 C363.839998,150.472 364.357998,147.66 365.245998,144.256 C360.435998,152.174 354.663998,158.02 350.149998,158.02 C347.633998,158.02 344.599998,156.17 344.599998,151.804 C344.599998,143.59 355.329998,129.16 364.505998,129.16 C366.577998,129.16 367.761998,129.9 367.761998,131.454 C367.761998,131.824 367.687998,132.12 367.613998,132.49 Z M411.875998,143.96 L412.837998,144.7 C410.691998,149.658 407.879998,151.064 405.437998,151.064 C402.699998,151.064 399.961998,149.288 398.481998,145.884 C395.373998,153.136 390.711998,158.168 385.531998,158.168 C381.757998,158.168 379.611998,155.504 379.611998,151.73 C379.611998,143.886 388.713998,129.752 397.519998,129.752 C399.369998,129.752 400.257998,130.418 400.701998,131.306 C400.849998,131.232 400.997998,131.232 401.219998,131.232 C403.069998,131.232 403.735998,133.23 403.735998,134.118 C403.735998,135.968 400.849998,139.52 400.849998,143.442 C400.849998,147.216 403.439998,149.584 406.029998,149.584 C408.101998,149.584 409.951998,148.03 411.875998,143.96 Z M387.159998,154.986 C390.489998,154.986 395.077998,149.954 397.741998,143.59 C397.445998,142.406 397.297998,141.074 397.297998,139.372 C397.297998,136.042 397.889998,133.896 398.703998,132.638 C390.341998,132.638 384.347998,145.588 384.347998,151.212 C384.347998,153.506 385.383998,154.986 387.159998,154.986 Z M407.297998,155.282 C407.297998,154.394 412.477998,143.516 412.551998,137.078 C413.143998,136.412 414.549998,135.524 415.955998,135.524 C417.287998,135.524 417.953998,136.264 417.953998,137.448 C417.953998,139.002 416.917998,143.146 415.585998,147.216 C419.507998,141.222 425.353998,134.192 430.977998,134.192 C434.825998,134.192 436.453998,137.522 436.453998,140.852 C436.453998,145.44 433.419998,148.918 433.419998,152.544 C433.419998,154.616 434.381998,155.356 435.639998,155.356 C439.339998,155.356 443.261998,149.288 445.999998,143.812 L446.813998,144.774 C443.705998,152.026 439.561998,157.28 434.011998,157.28 C430.533998,157.28 428.831998,155.282 428.831998,152.544 C428.831998,149.51 430.977998,145.736 430.977998,142.258 C430.977998,139.52 429.719998,138.632 428.017998,138.632 C421.875998,138.632 415.067998,150.398 411.219998,156.91 C409.665998,156.91 408.111998,156.392 407.297998,155.282 Z M453.335998,104.592 C453.335998,106.516 450.005998,110.438 448.229998,113.176 C447.489998,112.732 446.823998,111.992 446.823998,111.104 C446.823998,110.882 446.897998,110.66 446.971998,110.438 C448.229998,107.552 450.893998,104.814 451.485998,102.52 C452.447998,102.52 453.335998,103.482 453.335998,104.592 Z M475.915998,132.194 L475.915998,133.526 C470.513998,134.118 466.221998,134.414 462.891998,134.414 L461.781998,134.414 C459.487998,139.668 457.711998,145.292 457.711998,150.546 C457.711998,154.838 458.895998,156.466 461.855998,156.466 C466.961998,156.466 472.141998,151.582 475.915998,143.812 L476.877998,144.552 C473.325998,152.914 466.665998,159.204 459.709998,159.204 C455.417998,159.204 453.123998,156.762 453.123998,151.878 C453.123998,147.512 454.899998,140.778 457.415998,134.044 C456.453998,133.896 455.565998,133.748 454.751998,133.452 L454.751998,132.12 C455.491998,132.194 456.601998,132.342 458.007998,132.416 C462.151998,121.76 467.849998,111.622 470.883998,111.622 C471.623998,111.622 472.437998,112.214 472.437998,113.25 C472.437998,115.84 466.887998,123.536 462.595998,132.638 L465.333998,132.638 C468.589998,132.638 472.215998,132.564 475.915998,132.194 Z M491.697997,155.282 C491.697997,154.394 496.877997,143.516 496.951997,137.078 C497.543997,136.412 498.949997,135.524 500.355997,135.524 C501.687997,135.524 502.353997,136.264 502.353997,137.448 C502.353997,139.002 501.317997,143.146 499.985997,147.216 C503.907997,141.222 509.753997,134.192 515.377997,134.192 C519.225997,134.192 520.853997,137.522 520.853997,140.852 C520.853997,145.44 517.819997,148.918 517.819997,152.544 C517.819997,154.616 518.781997,155.356 520.039997,155.356 C523.739997,155.356 527.661997,149.288 530.399997,143.812 L531.213997,144.774 C528.105997,152.026 523.961997,157.28 518.411997,157.28 C514.933997,157.28 513.231997,155.282 513.231997,152.544 C513.231997,149.51 515.377997,145.736 515.377997,142.258 C515.377997,139.52 514.119997,138.632 512.417997,138.632 C506.275997,138.632 499.467997,150.398 495.619997,156.91 C494.065997,156.91 492.511997,156.392 491.697997,155.282 Z M551.055997,133.674 C551.055997,141.222 541.139997,147.216 532.703997,148.03 C532.481997,148.992 532.407997,149.954 532.407997,150.694 C532.407997,153.728 533.665997,156.91 538.253997,156.91 C543.507997,156.91 548.909997,152.766 552.757997,147.29 C554.533997,139.15 562.451997,130.196 570.147997,130.196 C572.441997,130.196 574.735997,131.084 574.735997,134.71 C574.735997,142.258 565.855997,147.216 557.419997,148.03 C557.197997,148.992 557.123997,149.954 557.123997,150.694 C557.123997,153.728 558.233997,157.28 562.821997,157.28 C569.111997,157.28 575.993997,150.916 579.693997,143.812 L580.581997,144.478 C576.585997,153.358 568.593997,159.426 561.267997,159.426 C555.273997,159.426 552.387997,155.282 552.387997,150.472 L552.387997,150.102 C548.169997,155.726 542.323997,159.056 536.699997,159.056 C530.705997,159.056 527.671997,155.282 527.671997,150.472 C527.671997,141.666 537.735997,129.16 546.467997,129.16 C548.761997,129.16 551.055997,130.048 551.055997,133.674 Z M546.245997,131.454 C541.509997,131.454 535.071997,139.594 533.073997,146.624 C538.327997,144.774 547.799997,139.52 547.799997,133.156 C547.799997,132.046 547.503997,131.454 546.245997,131.454 Z M569.925997,132.49 C565.189997,132.49 559.787997,139.594 557.789997,146.624 C563.043997,144.774 571.627997,140.778 571.627997,134.414 C571.627997,133.304 571.183997,132.49 569.925997,132.49 Z M599.683997,132.49 C599.165997,131.75 598.203997,131.38 596.871997,131.38 C588.879997,131.38 581.849997,145.218 581.849997,150.916 C581.849997,153.136 582.885997,154.468 584.513997,154.468 C588.509997,154.468 595.761997,146.476 600.497997,134.118 C605.973997,119.836 612.633997,102.52 616.703997,102.52 C617.517997,102.52 618.183997,103.26 618.183997,104.222 C618.183997,108.884 601.163997,135.968 601.163997,150.62 C601.163997,153.432 601.163997,154.764 602.865997,154.764 C605.899997,154.764 611.153997,150.546 614.261997,143.812 L615.149997,144.478 C612.263997,152.1 605.825997,157.724 600.793997,157.724 C597.093997,157.724 595.909997,154.764 595.909997,152.174 C595.909997,150.472 596.427997,147.66 597.315997,144.256 C592.505997,152.174 586.733997,158.02 582.219997,158.02 C579.703997,158.02 576.669997,156.17 576.669997,151.804 C576.669997,143.59 587.399997,129.16 596.575997,129.16 C598.647997,129.16 599.831997,129.9 599.831997,131.454 C599.831997,131.824 599.757997,132.12 599.683997,132.49 Z M643.141997,130.714 C644.029997,130.714 644.769997,131.306 644.769997,132.342 C644.769997,134.784 637.073997,143.738 637.073997,150.694 C637.073997,154.246 638.257997,155.134 640.699997,155.134 C644.029997,155.134 647.877997,152.248 652.095997,143.812 L652.761997,144.552 C649.875997,153.062 643.955997,157.724 638.183997,157.724 C634.335997,157.724 632.485997,154.986 632.485997,151.508 C632.485997,145.884 638.109997,130.714 643.141997,130.714 Z M647.063997,123.832 C645.435997,123.832 644.029997,123.092 644.029997,121.39 C644.029997,119.318 647.063997,117.542 649.431997,117.542 C650.911997,117.542 651.873997,118.134 651.873997,119.836 C651.873997,121.686 649.431997,123.832 647.063997,123.832 Z M672.899997,132.194 L672.899997,133.526 C667.497997,134.118 663.205997,134.414 659.875997,134.414 L658.765997,134.414 C656.471997,139.668 654.695997,145.292 654.695997,150.546 C654.695997,154.838 655.879997,156.466 658.839997,156.466 C663.945997,156.466 669.125997,151.582 672.899997,143.812 L673.861997,144.552 C670.309997,152.914 663.649997,159.204 656.693997,159.204 C652.401997,159.204 650.107997,156.762 650.107997,151.878 C650.107997,147.512 651.883997,140.778 654.399997,134.044 C653.437997,133.896 652.549997,133.748 651.735997,133.452 L651.735997,132.12 C652.475997,132.194 653.585997,132.342 654.991997,132.416 C659.135997,121.76 664.833997,111.622 667.867997,111.622 C668.607997,111.622 669.421997,112.214 669.421997,113.25 C669.421997,115.84 663.871997,123.536 659.579997,132.638 L662.317997,132.638 C665.573997,132.638 669.199997,132.564 672.899997,132.194 Z M677.201997,148.178 C682.677997,140.186 698.957997,108.366 698.957997,104.222 C698.957997,103.26 698.291997,102.52 697.477997,102.52 C693.407997,102.52 686.747997,119.836 681.271997,134.118 C679.643997,138.336 677.201997,144.626 677.201997,148.178 Z M675.055997,156.54 C673.797997,156.54 672.687997,155.948 672.687997,154.542 C672.687997,152.914 675.055997,151.508 676.979997,151.508 C678.163997,151.508 678.903997,151.952 678.903997,153.284 C678.903997,154.764 676.979997,156.54 675.055997,156.54 Z" id="Our-patients-dont-n" fill="#198582"></path>
                    <path d="M57.854,75 L38.474,75 L38.474,44.808 C38.474,42.1559867 37.8790059,40.235006 36.689,39.045 C35.498994,37.8549941 34.1220078,37.26 32.558,37.26 C30.9259918,37.26 29.1920092,37.9739929 27.356,39.402 C25.5199908,40.8300071 24.1600044,42.6659888 23.276,44.91 L23.276,75 L3.896,75 L3.896,21.348 L21.338,21.348 L21.338,29.304 C23.2420095,26.3799854 25.9109828,24.1530077 29.345,22.623 C32.7790172,21.0929924 36.8419765,20.328 41.534,20.328 C45.2060184,20.328 48.1129893,20.9909934 50.255,22.317 C52.3970107,23.6430066 54.0289944,25.2919901 55.151,27.264 C56.2730056,29.2360099 57.0039983,31.3439888 57.344,33.588 C57.6840017,35.8320112 57.854,37.8719908 57.854,39.708 L57.854,75 Z M95.4892425,76.02 C90.6612184,76.02 86.4282607,75.2550076 82.7902425,73.725 C79.1522243,72.1949923 76.0922549,70.1550127 73.6102425,67.605 C71.1282301,65.0549872 69.2582488,62.0970168 68.0002425,58.731 C66.7422362,55.3649832 66.1132425,51.8460184 66.1132425,48.174 C66.1132425,44.5019816 66.7422362,40.9830168 68.0002425,37.617 C69.2582488,34.2509832 71.1282301,31.2930127 73.6102425,28.743 C76.0922549,26.1929873 79.1522243,24.1530077 82.7902425,22.623 C86.4282607,21.0929924 90.6612184,20.328 95.4892425,20.328 C100.249266,20.328 104.465224,21.0929924 108.137243,22.623 C111.809261,24.1530077 114.88623,26.1929873 117.368243,28.743 C119.850255,31.2930127 121.720236,34.2509832 122.978243,37.617 C124.236249,40.9830168 124.865243,44.5019816 124.865243,48.174 C124.865243,51.8460184 124.236249,55.3649832 122.978243,58.731 C121.720236,62.0970168 119.850255,65.0549872 117.368243,67.605 C114.88623,70.1550127 111.809261,72.1949923 108.137243,73.725 C104.465224,75.2550076 100.249266,76.02 95.4892425,76.02 Z M86.0032425,48.174 C86.0032425,51.778018 86.8872337,54.5999898 88.6552425,56.64 C90.4232514,58.6800102 92.7012286,59.7 95.4892425,59.7 C98.2772565,59.7 100.555234,58.6800102 102.323243,56.64 C104.091251,54.5999898 104.975243,51.778018 104.975243,48.174 C104.975243,44.569982 104.091251,41.7480102 102.323243,39.708 C100.555234,37.6679898 98.2772565,36.648 95.4892425,36.648 C92.7012286,36.648 90.4232514,37.6679898 88.6552425,39.708 C86.8872337,41.7480102 86.0032425,44.569982 86.0032425,48.174 Z M158.315728,75 L158.315728,21.348 L177.695728,21.348 L177.695728,75 L158.315728,75 Z M158.315728,16.86 L158.315728,0.54 L177.695728,0.54 L177.695728,16.86 L158.315728,16.86 Z M243.27897,75 L223.89897,75 L223.89897,44.808 C223.89897,42.1559867 223.303976,40.235006 222.11397,39.045 C220.923964,37.8549941 219.546978,37.26 217.98297,37.26 C216.350962,37.26 214.616979,37.9739929 212.78097,39.402 C210.944961,40.8300071 209.584975,42.6659888 208.70097,44.91 L208.70097,75 L189.32097,75 L189.32097,21.348 L206.76297,21.348 L206.76297,29.304 C208.66698,26.3799854 211.335953,24.1530077 214.76997,22.623 C218.203987,21.0929924 222.266947,20.328 226.95897,20.328 C230.630989,20.328 233.537959,20.9909934 235.67997,22.317 C237.821981,23.6430066 239.453965,25.2919901 240.57597,27.264 C241.697976,29.2360099 242.428968,31.3439888 242.76897,33.588 C243.108972,35.8320112 243.27897,37.8719908 243.27897,39.708 L243.27897,75 Z M276.630213,76.02 C271.938189,76.02 267.348235,75.2550076 262.860213,73.725 C258.37219,72.1949924 254.564228,69.9680146 251.436213,67.044 L258.066213,55.416 C261.398229,57.6600112 264.611197,59.3939939 267.705213,60.618 C270.799228,61.8420061 273.6382,62.454 276.222213,62.454 C278.942226,62.454 280.302213,61.6040085 280.302213,59.904 C280.302213,58.9519952 279.775218,58.1360034 278.721213,57.456 C277.667207,56.7759966 275.610228,55.9940044 272.550213,55.11 C268.742194,54.0219946 265.563225,52.9510053 263.013213,51.897 C260.4632,50.8429947 258.389221,49.7040061 256.791213,48.48 C255.193205,47.2559939 254.054216,45.8960075 253.374213,44.4 C252.694209,42.9039925 252.354213,41.1360102 252.354213,39.096 C252.354213,36.3759864 252.898207,33.8600116 253.986213,31.548 C255.074218,29.2359884 256.587203,27.2300085 258.525213,25.53 C260.463222,23.8299915 262.775199,22.5210046 265.461213,21.603 C268.147226,20.6849954 271.088197,20.226 274.284213,20.226 C278.228232,20.226 281.985195,20.7359949 285.555213,21.756 C289.125231,22.7760051 292.712195,24.8499844 296.316213,27.978 L288.972213,39.606 C285.640196,37.4299891 282.852224,35.8830046 280.608213,34.965 C278.364201,34.0469954 276.256223,33.588 274.284213,33.588 C273.128207,33.588 272.176216,33.8089978 271.428213,34.251 C270.680209,34.6930022 270.306213,35.3899952 270.306213,36.342 C270.306213,37.3620051 270.850207,38.1949968 271.938213,38.841 C273.026218,39.4870032 275.168197,40.2179959 278.364213,41.034 C282.240232,42.0540051 285.504199,43.1249944 288.156213,44.247 C290.808226,45.3690056 292.933205,46.5929934 294.531213,47.919 C296.129221,49.2450066 297.268209,50.7409917 297.948213,52.407 C298.628216,54.0730083 298.968213,55.9939891 298.968213,58.17 C298.968213,60.9580139 298.458218,63.4399891 297.438213,65.616 C296.418208,67.7920109 294.939222,69.6619922 293.001213,71.226 C291.063203,72.7900078 288.717226,73.9799959 285.963213,74.796 C283.209199,75.6120041 280.09823,76.02 276.630213,76.02 Z M323.649455,76.02 C318.209428,76.02 314.061469,74.3710165 311.205455,71.073 C308.349441,67.7749835 306.921455,62.9640316 306.921455,56.64 L306.921455,21.348 L326.301455,21.348 L326.301455,52.254 C326.301455,54.6340119 326.82845,56.4699935 327.882455,57.762 C328.93646,59.0540065 330.381446,59.7 332.217455,59.7 C333.713463,59.7 335.243447,59.3600034 336.807455,58.68 C338.371463,57.9999966 339.935447,56.5040116 341.499455,54.192 L341.499455,21.348 L360.879455,21.348 L360.879455,53.58 C360.879455,55.4160092 361.151452,56.6909964 361.695455,57.405 C362.239458,58.1190036 363.191448,58.5439993 364.551455,58.68 L364.551455,75 C361.219439,75.6800034 358.499466,76.02 356.391455,76.02 C349.795422,76.02 345.98746,73.5380248 344.967455,68.574 L344.559455,66.636 C342.043443,69.9680167 339.051473,72.3649927 335.583455,73.827 C332.115438,75.2890073 328.137478,76.02 323.649455,76.02 Z M410.754698,37.872 C407.014679,37.872 403.614713,38.2799959 400.554698,39.096 C397.494682,39.9120041 395.216705,41.2719905 393.720698,43.176 L393.720698,75 L374.340698,75 L374.340698,21.348 L392.088698,21.348 L392.088698,31.548 C393.992707,27.943982 396.355684,25.1730097 399.177698,23.235 C401.999712,21.2969903 405.042681,20.328 408.306698,20.328 C409.598704,20.328 410.414696,20.3619997 410.754698,20.43 L410.754698,37.872 Z M433.80394,76.02 C431.151927,76.02 428.669952,75.5780044 426.35794,74.694 C424.045929,73.8099956 422.056949,72.6030076 420.39094,71.073 C418.724932,69.5429923 417.415945,67.7240105 416.46394,65.616 C415.511936,63.5079895 415.03594,61.2300122 415.03594,58.782 C415.03594,56.0619864 415.613935,53.5800112 416.76994,51.336 C417.925946,49.0919888 419.52393,47.1540082 421.56394,45.522 C423.60395,43.8899918 426.034926,42.6320044 428.85694,41.748 C431.678954,40.8639956 434.789923,40.422 438.18994,40.422 C442.541962,40.422 446.145926,41.1019932 449.00194,42.462 L449.00194,40.83 C449.00194,38.3139874 448.270948,36.4440061 446.80894,35.22 C445.346933,33.9959939 442.983957,33.384 439.71994,33.384 C436.659925,33.384 433.837953,33.8769951 431.25394,34.863 C428.669927,35.8490049 425.949955,37.2939905 423.09394,39.198 L417.48394,27.162 C424.555976,22.6059772 432.613895,20.328 441.65794,20.328 C450.225983,20.328 456.821917,22.231981 461.44594,26.04 C466.069963,29.848019 468.38194,35.5599619 468.38194,43.176 L468.38194,53.58 C468.38194,55.4160092 468.653938,56.6909964 469.19794,57.405 C469.741943,58.1190036 470.693933,58.5439993 472.05394,58.68 L472.05394,75 C470.489932,75.3400017 469.010947,75.5949991 467.61694,75.765 C466.222933,75.9350008 464.981946,76.02 463.89394,76.02 C460.425923,76.02 457.790949,75.3910063 455.98894,74.133 C454.186931,72.8749937 453.013943,71.0220122 452.46994,68.574 L452.06194,66.636 C449.681928,69.6960153 446.927956,72.024992 443.79994,73.623 C440.671925,75.221008 437.339958,76.02 433.80394,76.02 Z M439.61794,62.148 C440.773946,62.148 441.963934,61.9610019 443.18794,61.587 C444.411946,61.2129981 445.499936,60.7200031 446.45194,60.108 C447.199944,59.5639973 447.811938,58.9690032 448.28794,58.323 C448.763943,57.6769968 449.00194,57.0140034 449.00194,56.334 L449.00194,52.356 C447.845935,51.947998 446.587947,51.6080014 445.22794,51.336 C443.867933,51.0639986 442.643946,50.928 441.55594,50.928 C439.175928,50.928 437.203948,51.5059942 435.63994,52.662 C434.075932,53.8180058 433.29394,55.2799912 433.29394,57.048 C433.29394,58.5440075 433.888934,59.7679952 435.07894,60.72 C436.268946,61.6720048 437.781931,62.148 439.61794,62.148 Z M534.883183,75 L515.503183,75 L515.503183,44.808 C515.503183,42.1559867 514.908189,40.235006 513.718183,39.045 C512.528177,37.8549941 511.151191,37.26 509.587183,37.26 C507.955175,37.26 506.221192,37.9739929 504.385183,39.402 C502.549174,40.8300071 501.189187,42.6659888 500.305183,44.91 L500.305183,75 L480.925183,75 L480.925183,21.348 L498.367183,21.348 L498.367183,29.304 C500.271192,26.3799854 502.940166,24.1530077 506.374183,22.623 C509.8082,21.0929924 513.871159,20.328 518.563183,20.328 C522.235201,20.328 525.142172,20.9909934 527.284183,22.317 C529.426194,23.6430066 531.058177,25.2919901 532.180183,27.264 C533.302188,29.2360099 534.033181,31.3439888 534.373183,33.588 C534.713185,35.8320112 534.883183,37.8719908 534.883183,39.708 L534.883183,75 Z M543.142425,48.174 C543.142425,44.5019816 543.788419,40.9830168 545.080425,37.617 C546.372432,34.2509832 548.259413,31.2930127 550.741425,28.743 C553.223438,26.1929873 556.300407,24.1530077 559.972425,22.623 C563.644444,21.0929924 567.860402,20.328 572.620425,20.328 C579.148458,20.328 584.605403,21.6879864 588.991425,24.408 C593.377447,27.1280136 596.658414,30.6299786 598.834425,34.914 L579.964425,40.626 C578.128416,37.9739867 575.646441,36.648 572.518425,36.648 C569.866412,36.648 567.622435,37.65099 565.786425,39.657 C563.950416,41.66301 563.032425,44.5019816 563.032425,48.174 C563.032425,51.8460184 563.950416,54.68499 565.786425,56.691 C567.622435,58.69701 569.866412,59.7 572.518425,59.7 C575.646441,59.7 578.128416,58.3740133 579.964425,55.722 L598.834425,61.434 C596.658414,65.7180214 593.377447,69.2199864 588.991425,71.94 C584.605403,74.6600136 579.148458,76.02 572.620425,76.02 C567.860402,76.02 563.644444,75.2550076 559.972425,73.725 C556.300407,72.1949923 553.223438,70.1550127 550.741425,67.605 C548.259413,65.0549872 546.372432,62.0970168 545.080425,58.731 C543.788419,55.3649832 543.142425,51.8460184 543.142425,48.174 Z M632.695668,76.02 C628.003644,76.02 623.821686,75.2890073 620.149668,73.827 C616.47765,72.3649927 613.40068,70.3760126 610.918668,67.86 C608.436655,65.3439874 606.549674,62.4540163 605.257668,59.19 C603.965661,55.9259837 603.319668,52.492018 603.319668,48.888 C603.319668,45.0119806 603.948662,41.3400173 605.206668,37.872 C606.464674,34.4039827 608.334655,31.3780129 610.816668,28.794 C613.29868,26.2099871 616.35865,24.1530077 619.996668,22.623 C623.634686,21.0929924 627.867644,20.328 632.695668,20.328 C637.455692,20.328 641.67165,21.0929924 645.343668,22.623 C649.015686,24.1530077 652.092655,26.1929873 654.574668,28.743 C657.05668,31.2930127 658.926662,34.2509832 660.184668,37.617 C661.442674,40.9830168 662.071668,44.5019816 662.071668,48.174 C662.071668,49.1940051 662.020668,50.2309947 661.918668,51.285 C661.816667,52.3390053 661.697669,53.2739959 661.561668,54.09 L623.923668,54.09 C624.127669,56.9460143 625.181658,59.0029937 627.085668,60.261 C628.989677,61.5190063 631.063657,62.148 633.307668,62.148 C635.415678,62.148 637.404659,61.6720048 639.274668,60.72 C641.144677,59.7679952 642.385665,58.4420085 642.997668,56.742 L659.419668,61.434 C657.243657,65.7180214 653.894691,69.2199864 649.372668,71.94 C644.850645,74.6600136 639.291701,76.02 632.695668,76.02 Z M641.263668,42.462 C640.923666,39.8779871 639.971676,37.8380075 638.407668,36.342 C636.84366,34.8459925 634.83768,34.098 632.389668,34.098 C629.941656,34.098 627.935676,34.8459925 626.371668,36.342 C624.80766,37.8380075 623.85567,39.8779871 623.515668,42.462 L641.263668,42.462 Z M675.02291,48.582 C675.02291,47.1539929 675.09091,45.743007 675.22691,44.349 C675.362911,42.954993 675.702908,41.6290063 676.24691,40.371 C676.790913,39.1129937 677.606905,37.9060058 678.69491,36.75 C679.782916,35.5939942 681.244901,34.5400048 683.08091,33.588 C683.828914,33.179998 684.899903,32.6360034 686.29391,31.956 C687.687917,31.2759966 689.081903,30.4600048 690.47591,29.508 C691.869917,28.5559952 693.076905,27.4850059 694.09691,26.295 C695.116916,25.104994 695.62691,23.7960071 695.62691,22.368 C695.62691,20.8039922 695.014917,19.5630046 693.79091,18.645 C692.566904,17.7269954 691.138919,17.268 689.50691,17.268 C688.282904,17.268 687.228915,17.5059976 686.34491,17.982 C685.460906,18.4580024 684.695914,19.0359966 684.04991,19.716 C683.403907,20.3960034 682.859913,21.0929964 682.41791,21.807 C681.975908,22.5210036 681.550912,23.1159976 681.14291,23.592 L668.80091,14.82 C670.568919,10.6719793 673.356891,7.44201156 677.16491,5.13 C680.972929,2.81798844 685.324886,1.662 690.22091,1.662 C692.804923,1.662 695.422897,2.03599626 698.07491,2.784 C700.726924,3.53200374 703.1239,4.72199184 705.26591,6.354 C707.407921,7.98600816 709.141904,10.1279867 710.46791,12.78 C711.793917,15.4320133 712.45691,18.661981 712.45691,22.47 C712.45691,25.7340163 711.861916,28.7089866 710.67191,31.395 C709.481904,34.0810134 707.356926,36.4439898 704.29691,38.484 C702.800903,39.5040051 701.270918,40.3879963 699.70691,41.136 C698.142903,41.8840037 696.697917,42.6319963 695.37191,43.38 C694.045904,44.1280037 692.957915,44.9099959 692.10791,45.726 C691.257906,46.5420041 690.83291,47.4939946 690.83291,48.582 L675.02291,48.582 Z M675.32891,75 L675.32891,58.272 L691.13891,58.272 L691.13891,75 L675.32891,75 Z" id="no-insurance?" fill="#7DBC3A"></path>
                </g>
            </g>
        </g>
    </g>
</svg>