<?xml version="1.0" encoding="utf-8"?>
<!-- Generator: Adobe Illustrator 21.1.0, SVG Export Plug-In . SVG Version: 6.00 Build 0)  -->
<svg version="1.1" id="Layer_1" xmlns="http://www.w3.org/2000/svg" xmlns:xlink="http://www.w3.org/1999/xlink" x="0px" y="0px"
	 viewBox="0 0 713 223" style="enable-background:new 0 0 713 223;" xml:space="preserve">
<style type="text/css">
	.st0{fill:#4D4D4D;}
	.st1{fill:#198582;}
	.st2{fill:#7DBC3A;}
</style>
<title>Group 8</title>
<desc>Created with Sketch.</desc>
<g id="Page-1">
	<g id="Desktop-HD" transform="translate(-90.000000, -189.000000)">
		<g id="slide3" transform="translate(-3.000000, 100.000000)">
			<g id="Group-8" transform="translate(93.000000, 89.000000)">
				<path id="Get-your-preventive" class="st0" d="M21.6,205.4v9.4c-1.2,0.9-2.4,1.5-3.8,1.9c-1.3,0.4-2.7,0.6-4.3,0.6
					c-1.9,0-3.6-0.3-5.1-0.9s-2.8-1.4-3.9-2.4c-1.1-1-1.9-2.3-2.5-3.7c-0.6-1.5-0.9-3-0.9-4.8c0-1.7,0.3-3.3,0.8-4.8
					c0.6-1.5,1.4-2.7,2.4-3.7c1-1,2.3-1.9,3.8-2.4s3.1-0.9,5-0.9c0.9,0,1.8,0.1,2.6,0.2c0.8,0.1,1.6,0.4,2.3,0.6
					c0.7,0.3,1.3,0.6,1.9,1c0.6,0.4,1.1,0.8,1.6,1.2l-1.2,2c-0.2,0.3-0.4,0.5-0.8,0.6c-0.3,0.1-0.6,0-1-0.2l-1.1-0.6
					c-0.4-0.2-0.7-0.4-1.2-0.5c-0.4-0.1-0.9-0.3-1.5-0.4c-0.5-0.1-1.2-0.1-1.9-0.1c-1.1,0-2.2,0.2-3.1,0.6c-0.9,0.4-1.7,0.9-2.4,1.6
					c-0.7,0.7-1.2,1.6-1.5,2.6c-0.4,1-0.5,2.1-0.5,3.4c0,1.3,0.2,2.5,0.6,3.5c0.4,1,0.9,1.9,1.6,2.6s1.5,1.3,2.5,1.6
					c1,0.4,2.1,0.6,3.2,0.6c0.9,0,1.6-0.1,2.3-0.3s1.3-0.4,2-0.7v-4.2h-2.9c-0.3,0-0.5-0.1-0.6-0.2c-0.2-0.2-0.2-0.3-0.2-0.6v-2.4
					H21.6z M35.3,206.9c0-0.5-0.1-1-0.2-1.4c-0.1-0.5-0.4-0.9-0.6-1.2c-0.3-0.3-0.7-0.6-1.1-0.8c-0.4-0.2-1-0.3-1.5-0.3
					c-1.1,0-2,0.3-2.7,1s-1.1,1.6-1.3,2.8H35.3z M27.8,209.3c0.1,0.8,0.2,1.6,0.4,2.2c0.2,0.6,0.5,1.1,0.9,1.5
					c0.4,0.4,0.8,0.7,1.4,0.9c0.5,0.2,1.1,0.3,1.8,0.3c0.6,0,1.2-0.1,1.7-0.2c0.5-0.1,0.9-0.3,1.2-0.5s0.7-0.3,0.9-0.5
					c0.3-0.1,0.5-0.2,0.8-0.2c0.3,0,0.6,0.1,0.7,0.4l1.1,1.4c-0.4,0.5-0.9,0.9-1.5,1.3c-0.5,0.3-1.1,0.6-1.7,0.8
					c-0.6,0.2-1.2,0.4-1.8,0.4c-0.6,0.1-1.2,0.1-1.8,0.1c-1.1,0-2.2-0.2-3.2-0.6c-1-0.4-1.8-0.9-2.6-1.7c-0.7-0.7-1.3-1.7-1.7-2.8
					c-0.4-1.1-0.6-2.4-0.6-3.8c0-1.1,0.2-2.2,0.5-3.2c0.4-1,0.9-1.8,1.6-2.6c0.7-0.7,1.5-1.3,2.5-1.7s2.1-0.6,3.3-0.6
					c1,0,2,0.2,2.9,0.5c0.9,0.3,1.6,0.8,2.3,1.4c0.6,0.6,1.1,1.4,1.5,2.3c0.4,0.9,0.5,2,0.5,3.2c0,0.6-0.1,1-0.2,1.2
					c-0.1,0.2-0.4,0.3-0.7,0.3H27.8z M47,217.3c-1.4,0-2.5-0.4-3.3-1.2c-0.8-0.8-1.1-1.9-1.1-3.3v-9.2h-1.7c-0.2,0-0.4-0.1-0.5-0.2
					s-0.2-0.3-0.2-0.6v-1.6l2.6-0.4l0.8-4.5c0.1-0.2,0.2-0.4,0.3-0.5c0.1-0.1,0.3-0.2,0.6-0.2h2v5.2h4.4v2.8h-4.4v8.9
					c0,0.5,0.1,0.9,0.4,1.2c0.3,0.3,0.6,0.4,1,0.4c0.2,0,0.5,0,0.6-0.1c0.2-0.1,0.3-0.1,0.4-0.2c0.1-0.1,0.2-0.1,0.3-0.2
					s0.2-0.1,0.3-0.1c0.1,0,0.2,0,0.3,0.1c0.1,0.1,0.2,0.1,0.2,0.3l1.2,1.9c-0.6,0.5-1.2,0.8-2,1.1C48.5,217.1,47.8,217.3,47,217.3z
					 M74.8,200.6l-8.9,20.9c-0.1,0.3-0.3,0.5-0.5,0.6c-0.2,0.1-0.5,0.2-0.9,0.2h-2.9l3.1-6.6l-6.6-15.2h3.5c0.3,0,0.6,0.1,0.7,0.2
					s0.3,0.3,0.4,0.5l3.5,8.5c0.1,0.3,0.2,0.6,0.3,0.9s0.2,0.6,0.2,0.9c0.1-0.3,0.2-0.6,0.3-0.9s0.2-0.6,0.3-0.9l3.3-8.5
					c0.1-0.2,0.2-0.4,0.4-0.5c0.2-0.1,0.4-0.2,0.7-0.2H74.8z M83.3,200.3c1.2,0,2.3,0.2,3.3,0.6s1.9,1,2.6,1.7
					c0.7,0.7,1.3,1.6,1.6,2.7c0.4,1,0.6,2.2,0.6,3.5c0,1.3-0.2,2.5-0.6,3.5c-0.4,1-0.9,1.9-1.6,2.7c-0.7,0.7-1.6,1.3-2.6,1.7
					s-2.1,0.6-3.3,0.6c-1.2,0-2.3-0.2-3.3-0.6s-1.9-1-2.6-1.7c-0.7-0.7-1.3-1.6-1.6-2.7s-0.6-2.2-0.6-3.5c0-1.3,0.2-2.5,0.6-3.5
					c0.4-1,0.9-1.9,1.6-2.7c0.7-0.7,1.6-1.3,2.6-1.7S82.1,200.3,83.3,200.3z M83.3,214.2c1.4,0,2.4-0.5,3-1.4c0.7-0.9,1-2.3,1-4
					c0-1.8-0.3-3.1-1-4c-0.7-0.9-1.7-1.4-3-1.4c-1.4,0-2.4,0.5-3.1,1.4s-1,2.3-1,4c0,1.8,0.3,3.1,1,4
					C80.9,213.7,81.9,214.2,83.3,214.2z M108.4,200.6V217H106c-0.5,0-0.9-0.2-1-0.7l-0.3-1.3c-0.7,0.7-1.4,1.2-2.2,1.7
					c-0.8,0.4-1.8,0.6-2.9,0.6c-0.9,0-1.7-0.2-2.4-0.5s-1.3-0.7-1.7-1.3c-0.5-0.6-0.8-1.2-1.1-2c-0.2-0.8-0.4-1.6-0.4-2.5v-10.4h4
					V211c0,1,0.2,1.8,0.7,2.3c0.5,0.5,1.2,0.8,2.1,0.8c0.7,0,1.3-0.2,1.9-0.5s1.2-0.7,1.7-1.3v-11.9H108.4z M115.8,203.4
					c0.5-1,1.1-1.8,1.8-2.3c0.7-0.6,1.5-0.8,2.5-0.8c0.8,0,1.4,0.2,1.8,0.5l-0.3,3c-0.1,0.2-0.1,0.3-0.2,0.4s-0.2,0.1-0.4,0.1
					c-0.2,0-0.4,0-0.7-0.1c-0.3-0.1-0.6-0.1-0.9-0.1c-0.4,0-0.8,0.1-1.2,0.2c-0.3,0.1-0.6,0.3-0.9,0.6c-0.3,0.2-0.5,0.5-0.7,0.9
					s-0.4,0.7-0.6,1.2V217h-4v-16.4h2.3c0.4,0,0.7,0.1,0.8,0.2c0.2,0.1,0.3,0.4,0.3,0.8L115.8,203.4z M134.6,212.7
					c0.4,0.5,0.9,0.9,1.5,1.2c0.5,0.2,1.1,0.3,1.7,0.3c0.6,0,1.1-0.1,1.6-0.3c0.5-0.2,0.9-0.6,1.2-1c0.3-0.5,0.6-1,0.8-1.7
					s0.3-1.5,0.3-2.5c0-1-0.1-1.8-0.2-2.4s-0.4-1.2-0.7-1.6c-0.3-0.4-0.6-0.7-1-0.9c-0.4-0.2-0.9-0.3-1.4-0.3
					c-0.8,0-1.5,0.2-2.1,0.5c-0.6,0.3-1.1,0.8-1.6,1.5V212.7z M134.4,202.8c0.7-0.8,1.4-1.4,2.3-1.8c0.9-0.5,1.9-0.7,3-0.7
					c0.9,0,1.7,0.2,2.5,0.6c0.7,0.4,1.4,0.9,1.9,1.6c0.5,0.7,1,1.6,1.2,2.6s0.4,2.2,0.4,3.6c0,1.2-0.2,2.4-0.5,3.4
					c-0.3,1-0.8,2-1.4,2.7c-0.6,0.8-1.4,1.4-2.2,1.8c-0.9,0.4-1.8,0.6-2.9,0.6c-0.9,0-1.7-0.1-2.4-0.4c-0.7-0.3-1.2-0.7-1.7-1.2v6.7
					h-4v-21.8h2.4c0.5,0,0.8,0.2,1,0.7L134.4,202.8z M152.3,203.4c0.5-1,1.1-1.8,1.8-2.3c0.7-0.6,1.5-0.8,2.5-0.8
					c0.8,0,1.4,0.2,1.8,0.5l-0.3,3c-0.1,0.2-0.1,0.3-0.2,0.4s-0.2,0.1-0.4,0.1c-0.2,0-0.4,0-0.7-0.1c-0.3-0.1-0.6-0.1-0.9-0.1
					c-0.4,0-0.8,0.1-1.2,0.2c-0.3,0.1-0.6,0.3-0.9,0.6c-0.3,0.2-0.5,0.5-0.7,0.9c-0.2,0.3-0.4,0.7-0.6,1.2V217h-4v-16.4h2.3
					c0.4,0,0.7,0.1,0.8,0.2s0.3,0.4,0.3,0.8L152.3,203.4z M170.4,206.9c0-0.5-0.1-1-0.2-1.4c-0.1-0.5-0.4-0.9-0.6-1.2
					c-0.3-0.3-0.7-0.6-1.1-0.8c-0.4-0.2-1-0.3-1.5-0.3c-1.1,0-2,0.3-2.7,1s-1.1,1.6-1.3,2.8H170.4z M162.9,209.3
					c0.1,0.8,0.2,1.6,0.4,2.2s0.5,1.1,0.9,1.5c0.4,0.4,0.8,0.7,1.4,0.9c0.5,0.2,1.1,0.3,1.8,0.3s1.2-0.1,1.7-0.2
					c0.5-0.1,0.9-0.3,1.2-0.5c0.3-0.2,0.7-0.3,0.9-0.5s0.5-0.2,0.8-0.2c0.3,0,0.6,0.1,0.7,0.4l1.1,1.4c-0.4,0.5-0.9,0.9-1.5,1.3
					s-1.1,0.6-1.7,0.8c-0.6,0.2-1.2,0.4-1.8,0.4c-0.6,0.1-1.2,0.1-1.8,0.1c-1.1,0-2.2-0.2-3.2-0.6c-1-0.4-1.8-0.9-2.6-1.7
					c-0.7-0.7-1.3-1.7-1.7-2.8s-0.6-2.4-0.6-3.8c0-1.1,0.2-2.2,0.5-3.2c0.4-1,0.9-1.8,1.6-2.6c0.7-0.7,1.5-1.3,2.5-1.7
					c1-0.4,2.1-0.6,3.3-0.6c1,0,2,0.2,2.9,0.5c0.9,0.3,1.6,0.8,2.3,1.4s1.1,1.4,1.5,2.3s0.5,2,0.5,3.2c0,0.6-0.1,1-0.2,1.2
					c-0.1,0.2-0.4,0.3-0.7,0.3H162.9z M191.1,200.6l-6.5,16.4H181l-6.5-16.4h3.3c0.3,0,0.5,0.1,0.7,0.2c0.2,0.1,0.3,0.3,0.4,0.5
					l3.2,8.8c0.2,0.5,0.3,1,0.4,1.5c0.1,0.5,0.2,1,0.3,1.5c0.1-0.5,0.2-1,0.4-1.5c0.1-0.5,0.3-1,0.5-1.5l3.2-8.8
					c0.1-0.2,0.2-0.4,0.4-0.5c0.2-0.1,0.4-0.2,0.7-0.2H191.1z M203.1,206.9c0-0.5-0.1-1-0.2-1.4c-0.1-0.5-0.4-0.9-0.6-1.2
					c-0.3-0.3-0.7-0.6-1.1-0.8c-0.4-0.2-1-0.3-1.5-0.3c-1.1,0-2,0.3-2.7,1s-1.1,1.6-1.3,2.8H203.1z M195.5,209.3
					c0.1,0.8,0.2,1.6,0.4,2.2s0.5,1.1,0.9,1.5c0.4,0.4,0.8,0.7,1.4,0.9c0.5,0.2,1.1,0.3,1.8,0.3c0.6,0,1.2-0.1,1.7-0.2
					c0.5-0.1,0.9-0.3,1.2-0.5s0.7-0.3,0.9-0.5s0.5-0.2,0.8-0.2c0.3,0,0.6,0.1,0.7,0.4l1.1,1.4c-0.4,0.5-0.9,0.9-1.5,1.3
					c-0.5,0.3-1.1,0.6-1.7,0.8c-0.6,0.2-1.2,0.4-1.8,0.4c-0.6,0.1-1.2,0.1-1.8,0.1c-1.1,0-2.2-0.2-3.2-0.6c-1-0.4-1.8-0.9-2.6-1.7
					c-0.7-0.7-1.3-1.7-1.7-2.8s-0.6-2.4-0.6-3.8c0-1.1,0.2-2.2,0.5-3.2c0.4-1,0.9-1.8,1.6-2.6c0.7-0.7,1.5-1.3,2.5-1.7
					c1-0.4,2.1-0.6,3.3-0.6c1,0,2,0.2,2.9,0.5c0.9,0.3,1.6,0.8,2.3,1.4c0.6,0.6,1.1,1.4,1.5,2.3c0.4,0.9,0.5,2,0.5,3.2
					c0,0.6-0.1,1-0.2,1.2c-0.1,0.2-0.4,0.3-0.7,0.3H195.5z M213.1,202.6c0.3-0.3,0.7-0.6,1-0.9c0.4-0.3,0.8-0.5,1.2-0.7
					c0.4-0.2,0.9-0.4,1.3-0.5c0.5-0.1,1-0.2,1.5-0.2c0.9,0,1.7,0.2,2.4,0.5c0.7,0.3,1.3,0.7,1.7,1.3c0.5,0.5,0.8,1.2,1.1,2
					s0.4,1.6,0.4,2.5V217h-4v-10.4c0-1-0.2-1.8-0.7-2.3s-1.2-0.8-2.1-0.8c-0.7,0-1.3,0.2-1.9,0.5c-0.6,0.3-1.2,0.7-1.7,1.3V217h-4
					v-16.4h2.4c0.5,0,0.8,0.2,1,0.7L213.1,202.6z M243.5,217h-4v-13.5H232v8.9c0,0.5,0.1,0.9,0.4,1.2c0.3,0.3,0.6,0.4,1,0.4
					c0.2,0,0.5,0,0.6-0.1c0.2-0.1,0.3-0.1,0.4-0.2c0.1-0.1,0.2-0.1,0.3-0.2c0.1-0.1,0.2-0.1,0.3-0.1c0.1,0,0.2,0,0.3,0.1
					c0.1,0.1,0.2,0.1,0.2,0.3l1.2,1.9c-0.6,0.5-1.2,0.8-2,1.1c-0.7,0.2-1.5,0.4-2.3,0.4c-1.4,0-2.5-0.4-3.3-1.2
					c-0.8-0.8-1.1-1.9-1.1-3.3v-9.2h-1.7c-0.2,0-0.4-0.1-0.5-0.2c-0.1-0.1-0.2-0.3-0.2-0.6v-1.6l2.6-0.4l0.8-4.5
					c0.1-0.2,0.2-0.4,0.3-0.5c0.1-0.1,0.3-0.2,0.6-0.2h2v5.2h11.6V217z M244.2,195.7c0,0.3-0.1,0.7-0.2,1c-0.1,0.3-0.3,0.6-0.6,0.8
					c-0.2,0.2-0.5,0.4-0.8,0.5s-0.6,0.2-1,0.2c-0.3,0-0.7-0.1-1-0.2c-0.3-0.1-0.6-0.3-0.8-0.5c-0.2-0.2-0.4-0.5-0.5-0.8
					s-0.2-0.6-0.2-1c0-0.4,0.1-0.7,0.2-1s0.3-0.6,0.5-0.8c0.2-0.2,0.5-0.4,0.8-0.5c0.3-0.1,0.6-0.2,1-0.2c0.4,0,0.7,0.1,1,0.2
					s0.6,0.3,0.8,0.5c0.2,0.2,0.4,0.5,0.6,0.8C244.1,195.1,244.2,195.4,244.2,195.7z M262.1,200.6l-6.5,16.4H252l-6.5-16.4h3.3
					c0.3,0,0.5,0.1,0.7,0.2c0.2,0.1,0.3,0.3,0.4,0.5l3.2,8.8c0.2,0.5,0.3,1,0.4,1.5c0.1,0.5,0.2,1,0.3,1.5c0.1-0.5,0.2-1,0.4-1.5
					c0.1-0.5,0.3-1,0.5-1.5l3.2-8.8c0.1-0.2,0.2-0.4,0.4-0.5c0.2-0.1,0.4-0.2,0.7-0.2H262.1z M274.1,206.9c0-0.5-0.1-1-0.2-1.4
					c-0.1-0.5-0.4-0.9-0.6-1.2c-0.3-0.3-0.7-0.6-1.1-0.8c-0.4-0.2-1-0.3-1.5-0.3c-1.1,0-2,0.3-2.7,1s-1.1,1.6-1.3,2.8H274.1z
					 M266.5,209.3c0.1,0.8,0.2,1.6,0.4,2.2c0.2,0.6,0.5,1.1,0.9,1.5c0.4,0.4,0.8,0.7,1.4,0.9c0.5,0.2,1.1,0.3,1.8,0.3
					c0.6,0,1.2-0.1,1.7-0.2c0.5-0.1,0.9-0.3,1.2-0.5c0.3-0.2,0.7-0.3,0.9-0.5c0.3-0.1,0.5-0.2,0.8-0.2c0.3,0,0.6,0.1,0.7,0.4
					l1.1,1.4c-0.4,0.5-0.9,0.9-1.5,1.3s-1.1,0.6-1.7,0.8c-0.6,0.2-1.2,0.4-1.8,0.4c-0.6,0.1-1.2,0.1-1.8,0.1c-1.1,0-2.2-0.2-3.2-0.6
					c-1-0.4-1.8-0.9-2.6-1.7c-0.7-0.7-1.3-1.7-1.7-2.8c-0.4-1.1-0.6-2.4-0.6-3.8c0-1.1,0.2-2.2,0.5-3.2c0.4-1,0.9-1.8,1.6-2.6
					c0.7-0.7,1.5-1.3,2.5-1.7c1-0.4,2.1-0.6,3.3-0.6c1,0,2,0.2,2.9,0.5c0.9,0.3,1.6,0.8,2.3,1.4s1.1,1.4,1.5,2.3
					c0.4,0.9,0.5,2,0.5,3.2c0,0.6-0.1,1-0.2,1.2c-0.1,0.2-0.4,0.3-0.7,0.3H266.5z M299.7,204.1c-0.1,0.1-0.2,0.3-0.3,0.4
					c-0.1,0.1-0.3,0.1-0.5,0.1c-0.2,0-0.4-0.1-0.6-0.2s-0.4-0.3-0.7-0.4c-0.3-0.2-0.6-0.3-1-0.4c-0.4-0.1-0.8-0.2-1.4-0.2
					c-0.7,0-1.3,0.1-1.8,0.4c-0.5,0.3-1,0.6-1.3,1.1c-0.3,0.5-0.6,1-0.8,1.7c-0.2,0.7-0.3,1.4-0.3,2.3c0,0.9,0.1,1.7,0.3,2.3
					c0.2,0.7,0.5,1.3,0.8,1.7c0.4,0.5,0.8,0.8,1.3,1.1c0.5,0.2,1.1,0.4,1.7,0.4s1.1-0.1,1.5-0.2c0.4-0.2,0.7-0.3,1-0.5
					c0.3-0.2,0.5-0.4,0.7-0.5s0.4-0.2,0.7-0.2c0.3,0,0.6,0.1,0.7,0.4l1.1,1.4c-0.4,0.5-0.9,0.9-1.4,1.3c-0.5,0.3-1,0.6-1.6,0.8
					c-0.5,0.2-1.1,0.4-1.7,0.4c-0.6,0.1-1.2,0.1-1.7,0.1c-1,0-2-0.2-2.9-0.6c-0.9-0.4-1.7-0.9-2.4-1.7c-0.7-0.7-1.2-1.6-1.6-2.7
					c-0.4-1.1-0.6-2.2-0.6-3.6c0-1.2,0.2-2.3,0.5-3.4c0.3-1,0.9-1.9,1.5-2.7c0.7-0.8,1.5-1.3,2.5-1.8s2.1-0.6,3.4-0.6
					c1.2,0,2.3,0.2,3.2,0.6c0.9,0.4,1.8,1,2.5,1.7L299.7,204.1z M311.8,210c-1.1,0.1-2.1,0.2-2.9,0.3c-0.8,0.1-1.4,0.3-1.9,0.6
					s-0.8,0.5-1,0.8c-0.2,0.3-0.3,0.6-0.3,1c0,0.7,0.2,1.2,0.6,1.5c0.4,0.3,0.9,0.4,1.6,0.4c0.8,0,1.5-0.1,2.1-0.4s1.2-0.7,1.7-1.3
					V210z M302.7,202.9c1.9-1.7,4.2-2.6,6.8-2.6c1,0,1.8,0.2,2.6,0.5c0.8,0.3,1.4,0.8,1.9,1.3c0.5,0.6,0.9,1.2,1.2,2
					s0.4,1.6,0.4,2.6V217h-1.8c-0.4,0-0.7-0.1-0.9-0.2s-0.4-0.3-0.5-0.7l-0.4-1.2c-0.4,0.4-0.8,0.7-1.2,1c-0.4,0.3-0.8,0.5-1.2,0.7
					s-0.9,0.3-1.4,0.4c-0.5,0.1-1,0.2-1.6,0.2c-0.7,0-1.3-0.1-1.9-0.3c-0.6-0.2-1.1-0.5-1.5-0.8c-0.4-0.4-0.8-0.8-1-1.4
					c-0.2-0.6-0.4-1.2-0.4-1.9c0-0.4,0.1-0.8,0.2-1.2c0.1-0.4,0.4-0.8,0.7-1.2s0.7-0.7,1.2-1.1s1.1-0.6,1.8-0.9
					c0.7-0.2,1.6-0.4,2.6-0.6c1-0.2,2.1-0.2,3.3-0.3v-1c0-1.1-0.2-1.9-0.7-2.4s-1.1-0.8-2-0.8c-0.6,0-1.2,0.1-1.6,0.2
					c-0.4,0.1-0.8,0.3-1.1,0.5c-0.3,0.2-0.6,0.4-0.9,0.5c-0.3,0.1-0.6,0.2-0.9,0.2c-0.3,0-0.5-0.1-0.7-0.2c-0.2-0.1-0.3-0.3-0.5-0.5
					L302.7,202.9z M322.9,203.4c0.5-1,1.1-1.8,1.8-2.3c0.7-0.6,1.5-0.8,2.5-0.8c0.8,0,1.4,0.2,1.8,0.5l-0.3,3
					c-0.1,0.2-0.1,0.3-0.2,0.4c-0.1,0.1-0.2,0.1-0.4,0.1c-0.2,0-0.4,0-0.7-0.1c-0.3-0.1-0.6-0.1-0.9-0.1c-0.4,0-0.8,0.1-1.2,0.2
					c-0.3,0.1-0.6,0.3-0.9,0.6c-0.3,0.2-0.5,0.5-0.7,0.9s-0.4,0.7-0.6,1.2V217h-4v-16.4h2.3c0.4,0,0.7,0.1,0.8,0.2s0.3,0.4,0.3,0.8
					L322.9,203.4z M341,206.9c0-0.5-0.1-1-0.2-1.4c-0.1-0.5-0.4-0.9-0.6-1.2c-0.3-0.3-0.7-0.6-1.1-0.8c-0.4-0.2-1-0.3-1.5-0.3
					c-1.1,0-2,0.3-2.7,1s-1.1,1.6-1.3,2.8H341z M333.4,209.3c0.1,0.8,0.2,1.6,0.4,2.2c0.2,0.6,0.5,1.1,0.9,1.5
					c0.4,0.4,0.8,0.7,1.4,0.9c0.5,0.2,1.1,0.3,1.8,0.3c0.6,0,1.2-0.1,1.7-0.2c0.5-0.1,0.9-0.3,1.2-0.5c0.3-0.2,0.7-0.3,0.9-0.5
					c0.3-0.1,0.5-0.2,0.8-0.2c0.3,0,0.6,0.1,0.7,0.4l1.1,1.4c-0.4,0.5-0.9,0.9-1.5,1.3s-1.1,0.6-1.7,0.8c-0.6,0.2-1.2,0.4-1.8,0.4
					s-1.2,0.1-1.8,0.1c-1.1,0-2.2-0.2-3.2-0.6c-1-0.4-1.8-0.9-2.6-1.7c-0.7-0.7-1.3-1.7-1.7-2.8c-0.4-1.1-0.6-2.4-0.6-3.8
					c0-1.1,0.2-2.2,0.5-3.2c0.4-1,0.9-1.8,1.6-2.6c0.7-0.7,1.5-1.3,2.5-1.7s2.1-0.6,3.3-0.6c1,0,2,0.2,2.9,0.5
					c0.9,0.3,1.6,0.8,2.3,1.4c0.6,0.6,1.1,1.4,1.5,2.3s0.5,2,0.5,3.2c0,0.6-0.1,1-0.2,1.2c-0.1,0.2-0.4,0.3-0.7,0.3H333.4z M356,217
					v-13.4l-1.4-0.2c-0.3-0.1-0.6-0.2-0.7-0.3c-0.2-0.2-0.3-0.4-0.3-0.7v-1.6h2.4v-1.2c0-0.9,0.1-1.8,0.4-2.5
					c0.3-0.7,0.7-1.4,1.2-1.9c0.5-0.5,1.2-0.9,1.9-1.2c0.8-0.3,1.6-0.4,2.6-0.4c0.8,0,1.5,0.1,2.1,0.3l-0.1,2c0,0.1-0.1,0.3-0.1,0.4
					c-0.1,0.1-0.2,0.2-0.3,0.2c-0.1,0-0.3,0.1-0.4,0.1s-0.3,0-0.5,0c-0.5,0-0.9,0.1-1.3,0.2s-0.7,0.3-0.9,0.5
					c-0.3,0.3-0.5,0.6-0.6,1c-0.1,0.4-0.2,0.9-0.2,1.5v1.1h4.3v2.8h-4.1V217H356z M372.9,200.3c1.2,0,2.3,0.2,3.3,0.6
					c1,0.4,1.9,1,2.6,1.7c0.7,0.7,1.3,1.6,1.6,2.7c0.4,1,0.6,2.2,0.6,3.5c0,1.3-0.2,2.5-0.6,3.5s-0.9,1.9-1.6,2.7
					c-0.7,0.7-1.6,1.3-2.6,1.7c-1,0.4-2.1,0.6-3.3,0.6c-1.2,0-2.3-0.2-3.3-0.6c-1-0.4-1.9-1-2.6-1.7c-0.7-0.7-1.3-1.6-1.6-2.7
					c-0.4-1-0.6-2.2-0.6-3.5c0-1.3,0.2-2.5,0.6-3.5c0.4-1,0.9-1.9,1.6-2.7c0.7-0.7,1.6-1.3,2.6-1.7
					C370.6,200.5,371.7,200.3,372.9,200.3z M372.9,214.2c1.4,0,2.4-0.5,3-1.4c0.7-0.9,1-2.3,1-4c0-1.8-0.3-3.1-1-4s-1.7-1.4-3-1.4
					c-1.4,0-2.4,0.5-3.1,1.4c-0.7,0.9-1,2.3-1,4c0,1.8,0.3,3.1,1,4C370.5,213.7,371.5,214.2,372.9,214.2z M387.5,203.4
					c0.5-1,1.1-1.8,1.8-2.3c0.7-0.6,1.5-0.8,2.5-0.8c0.8,0,1.4,0.2,1.8,0.5l-0.3,3c-0.1,0.2-0.1,0.3-0.2,0.4
					c-0.1,0.1-0.2,0.1-0.4,0.1c-0.2,0-0.4,0-0.7-0.1c-0.3-0.1-0.6-0.1-0.9-0.1c-0.4,0-0.8,0.1-1.2,0.2c-0.3,0.1-0.6,0.3-0.9,0.6
					c-0.3,0.2-0.5,0.5-0.7,0.9s-0.4,0.7-0.6,1.2V217h-4v-16.4h2.3c0.4,0,0.7,0.1,0.8,0.2c0.2,0.1,0.3,0.4,0.3,0.8L387.5,203.4z
					 M411.1,210c-1.1,0.1-2.1,0.2-2.9,0.3c-0.8,0.1-1.4,0.3-1.9,0.6s-0.8,0.5-1,0.8c-0.2,0.3-0.3,0.6-0.3,1c0,0.7,0.2,1.2,0.6,1.5
					c0.4,0.3,0.9,0.4,1.6,0.4c0.8,0,1.5-0.1,2.1-0.4c0.6-0.3,1.2-0.7,1.7-1.3V210z M402,202.9c1.9-1.7,4.2-2.6,6.8-2.6
					c1,0,1.8,0.2,2.6,0.5c0.8,0.3,1.4,0.8,1.9,1.3c0.5,0.6,0.9,1.2,1.2,2s0.4,1.6,0.4,2.6V217h-1.8c-0.4,0-0.7-0.1-0.9-0.2
					s-0.4-0.3-0.5-0.7l-0.4-1.2c-0.4,0.4-0.8,0.7-1.2,1c-0.4,0.3-0.8,0.5-1.2,0.7s-0.9,0.3-1.4,0.4c-0.5,0.1-1,0.2-1.6,0.2
					c-0.7,0-1.3-0.1-1.9-0.3c-0.6-0.2-1.1-0.5-1.5-0.8s-0.8-0.8-1-1.4c-0.2-0.6-0.4-1.2-0.4-1.9c0-0.4,0.1-0.8,0.2-1.2
					c0.1-0.4,0.4-0.8,0.7-1.2c0.3-0.4,0.7-0.7,1.2-1.1c0.5-0.3,1.1-0.6,1.8-0.9c0.7-0.2,1.6-0.4,2.6-0.6c1-0.2,2.1-0.2,3.3-0.3v-1
					c0-1.1-0.2-1.9-0.7-2.4s-1.1-0.8-2-0.8c-0.6,0-1.2,0.1-1.6,0.2c-0.4,0.1-0.8,0.3-1.1,0.5c-0.3,0.2-0.6,0.4-0.9,0.5
					s-0.6,0.2-0.9,0.2c-0.3,0-0.5-0.1-0.7-0.2c-0.2-0.1-0.3-0.3-0.5-0.5L402,202.9z M430,193.2V217h-4v-23.8H430z M441,200.3
					c1.2,0,2.3,0.2,3.3,0.6c1,0.4,1.9,1,2.6,1.7c0.7,0.7,1.3,1.6,1.6,2.7c0.4,1,0.6,2.2,0.6,3.5c0,1.3-0.2,2.5-0.6,3.5
					s-0.9,1.9-1.6,2.7c-0.7,0.7-1.6,1.3-2.6,1.7c-1,0.4-2.1,0.6-3.3,0.6c-1.2,0-2.3-0.2-3.3-0.6c-1-0.4-1.9-1-2.6-1.7
					c-0.7-0.7-1.3-1.6-1.6-2.7c-0.4-1-0.6-2.2-0.6-3.5c0-1.3,0.2-2.5,0.6-3.5c0.4-1,0.9-1.9,1.6-2.7c0.7-0.7,1.6-1.3,2.6-1.7
					C438.6,200.5,439.8,200.3,441,200.3z M441,214.2c1.4,0,2.4-0.5,3-1.4c0.7-0.9,1-2.3,1-4c0-1.8-0.3-3.1-1-4s-1.7-1.4-3-1.4
					c-1.4,0-2.4,0.5-3.1,1.4c-0.7,0.9-1,2.3-1,4c0,1.8,0.3,3.1,1,4C438.6,213.7,439.6,214.2,441,214.2z M475.1,200.6l-5.2,16.4h-3.2
					c-0.4,0-0.6-0.2-0.8-0.7l-2.9-9.5c-0.1-0.3-0.2-0.6-0.3-1c-0.1-0.3-0.1-0.6-0.2-1c-0.1,0.3-0.1,0.6-0.2,1
					c-0.1,0.3-0.2,0.6-0.3,1l-3,9.5c-0.1,0.5-0.4,0.7-0.8,0.7h-3l-5.2-16.4h3.2c0.3,0,0.5,0.1,0.7,0.2c0.2,0.1,0.3,0.3,0.4,0.5
					l2.4,8.8c0.1,0.5,0.2,0.9,0.3,1.4s0.2,0.9,0.2,1.4c0.1-0.5,0.2-0.9,0.4-1.4s0.3-0.9,0.4-1.4l2.7-8.8c0.1-0.2,0.2-0.4,0.4-0.5
					c0.2-0.1,0.4-0.2,0.7-0.2h1.7c0.3,0,0.5,0.1,0.7,0.2c0.2,0.1,0.3,0.3,0.4,0.5l2.6,8.8c0.1,0.5,0.3,1,0.4,1.4
					c0.1,0.5,0.2,0.9,0.4,1.4c0.1-0.9,0.3-1.8,0.6-2.8l2.4-8.8c0.1-0.2,0.2-0.4,0.4-0.5c0.2-0.1,0.4-0.2,0.7-0.2H475.1z M484,217
					v-16.4h2.4c0.5,0,0.8,0.2,1,0.7l0.3,1.2c0.3-0.3,0.6-0.6,0.9-0.9s0.7-0.5,1-0.7s0.7-0.3,1.2-0.5s0.9-0.2,1.4-0.2
					c1,0,1.9,0.3,2.6,0.8c0.7,0.6,1.2,1.3,1.5,2.2c0.3-0.5,0.6-1,1-1.4s0.8-0.7,1.3-1c0.5-0.2,0.9-0.4,1.5-0.5
					c0.5-0.1,1-0.2,1.6-0.2c0.9,0,1.7,0.1,2.4,0.4c0.7,0.3,1.3,0.7,1.8,1.2c0.5,0.5,0.8,1.2,1.1,2s0.4,1.6,0.4,2.6V217h-4v-10.4
					c0-1-0.2-1.8-0.7-2.4s-1.1-0.8-2-0.8c-0.4,0-0.8,0.1-1.1,0.2c-0.3,0.1-0.7,0.3-0.9,0.6c-0.3,0.3-0.5,0.6-0.6,1s-0.2,0.8-0.2,1.4
					V217h-4v-10.4c0-1.1-0.2-1.9-0.7-2.4c-0.4-0.5-1.1-0.8-1.9-0.8c-0.6,0-1.1,0.1-1.6,0.4s-1,0.7-1.4,1.2v12H484z M517.8,200.3
					c1.2,0,2.3,0.2,3.3,0.6c1,0.4,1.9,1,2.6,1.7c0.7,0.7,1.3,1.6,1.6,2.7c0.4,1,0.6,2.2,0.6,3.5c0,1.3-0.2,2.5-0.6,3.5
					c-0.4,1-0.9,1.9-1.6,2.7c-0.7,0.7-1.6,1.3-2.6,1.7c-1,0.4-2.1,0.6-3.3,0.6c-1.2,0-2.3-0.2-3.3-0.6c-1-0.4-1.9-1-2.6-1.7
					c-0.7-0.7-1.3-1.6-1.6-2.7c-0.4-1-0.6-2.2-0.6-3.5c0-1.3,0.2-2.5,0.6-3.5c0.4-1,0.9-1.9,1.6-2.7c0.7-0.7,1.6-1.3,2.6-1.7
					C515.5,200.5,516.6,200.3,517.8,200.3z M517.8,214.2c1.4,0,2.4-0.5,3-1.4c0.7-0.9,1-2.3,1-4c0-1.8-0.3-3.1-1-4s-1.7-1.4-3-1.4
					c-1.4,0-2.4,0.5-3.1,1.4s-1,2.3-1,4c0,1.8,0.3,3.1,1,4C515.4,213.7,516.4,214.2,517.8,214.2z M532.4,202.6
					c0.3-0.3,0.7-0.6,1-0.9c0.4-0.3,0.8-0.5,1.2-0.7c0.4-0.2,0.9-0.4,1.3-0.5c0.5-0.1,1-0.2,1.5-0.2c0.9,0,1.7,0.2,2.4,0.5
					c0.7,0.3,1.3,0.7,1.7,1.3c0.5,0.5,0.8,1.2,1.1,2c0.2,0.8,0.4,1.6,0.4,2.5V217h-4v-10.4c0-1-0.2-1.8-0.7-2.3s-1.2-0.8-2.1-0.8
					c-0.7,0-1.3,0.2-1.9,0.5c-0.6,0.3-1.2,0.7-1.7,1.3V217h-4v-16.4h2.4c0.5,0,0.8,0.2,1,0.7L532.4,202.6z M551.8,217.3
					c-1.4,0-2.5-0.4-3.3-1.2c-0.8-0.8-1.1-1.9-1.1-3.3v-9.2h-1.7c-0.2,0-0.4-0.1-0.5-0.2c-0.1-0.1-0.2-0.3-0.2-0.6v-1.6l2.6-0.4
					l0.8-4.5c0.1-0.2,0.2-0.4,0.3-0.5c0.1-0.1,0.3-0.2,0.6-0.2h2v5.2h4.4v2.8h-4.4v8.9c0,0.5,0.1,0.9,0.4,1.2s0.6,0.4,1,0.4
					c0.2,0,0.5,0,0.6-0.1c0.2-0.1,0.3-0.1,0.4-0.2c0.1-0.1,0.2-0.1,0.3-0.2s0.2-0.1,0.3-0.1c0.1,0,0.2,0,0.3,0.1s0.2,0.1,0.2,0.3
					l1.2,1.9c-0.6,0.5-1.2,0.8-2,1.1S552.6,217.3,551.8,217.3z M562,202.3c0.6-0.6,1.3-1.1,2.1-1.5s1.7-0.6,2.7-0.6
					c0.9,0,1.7,0.2,2.4,0.5c0.7,0.3,1.3,0.7,1.7,1.3c0.5,0.5,0.8,1.2,1.1,2s0.4,1.6,0.4,2.5V217h-4v-10.4c0-1-0.2-1.8-0.7-2.3
					c-0.5-0.5-1.2-0.8-2.1-0.8c-0.7,0-1.3,0.2-1.9,0.5c-0.6,0.3-1.2,0.7-1.7,1.3V217h-4v-23.8h4V202.3z M579.8,193.2V217h-4v-23.8
					H579.8z M598.5,200.6l-8.9,20.9c-0.1,0.3-0.3,0.5-0.5,0.6c-0.2,0.1-0.5,0.2-0.9,0.2h-2.9l3.1-6.6l-6.6-15.2h3.5
					c0.3,0,0.6,0.1,0.7,0.2c0.2,0.1,0.3,0.3,0.4,0.5l3.5,8.5c0.1,0.3,0.2,0.6,0.3,0.9c0.1,0.3,0.2,0.6,0.2,0.9
					c0.1-0.3,0.2-0.6,0.3-0.9c0.1-0.3,0.2-0.6,0.3-0.9l3.3-8.5c0.1-0.2,0.2-0.4,0.4-0.5c0.2-0.1,0.4-0.2,0.7-0.2H598.5z M608.1,217
					v-13.4l-1.4-0.2c-0.3-0.1-0.6-0.2-0.7-0.3c-0.2-0.2-0.3-0.4-0.3-0.7v-1.6h2.4v-1.2c0-0.9,0.1-1.8,0.4-2.5
					c0.3-0.7,0.7-1.4,1.2-1.9c0.5-0.5,1.2-0.9,1.9-1.2c0.8-0.3,1.6-0.4,2.6-0.4c0.8,0,1.5,0.1,2.1,0.3l-0.1,2c0,0.1-0.1,0.3-0.1,0.4
					s-0.2,0.2-0.3,0.2c-0.1,0-0.3,0.1-0.4,0.1c-0.2,0-0.3,0-0.5,0c-0.5,0-0.9,0.1-1.3,0.2c-0.4,0.1-0.7,0.3-0.9,0.5
					c-0.3,0.3-0.5,0.6-0.6,1c-0.1,0.4-0.2,0.9-0.2,1.5v1.1h4.3v2.8h-4.1V217H608.1z M628.4,206.9c0-0.5-0.1-1-0.2-1.4
					c-0.1-0.5-0.4-0.9-0.6-1.2c-0.3-0.3-0.7-0.6-1.1-0.8c-0.4-0.2-1-0.3-1.5-0.3c-1.1,0-2,0.3-2.7,1s-1.1,1.6-1.3,2.8H628.4z
					 M620.8,209.3c0.1,0.8,0.2,1.6,0.4,2.2c0.2,0.6,0.5,1.1,0.9,1.5c0.4,0.4,0.8,0.7,1.4,0.9c0.5,0.2,1.1,0.3,1.8,0.3
					s1.2-0.1,1.7-0.2c0.5-0.1,0.9-0.3,1.2-0.5s0.7-0.3,0.9-0.5s0.5-0.2,0.8-0.2c0.3,0,0.6,0.1,0.7,0.4l1.1,1.4
					c-0.4,0.5-0.9,0.9-1.5,1.3c-0.5,0.3-1.1,0.6-1.7,0.8c-0.6,0.2-1.2,0.4-1.8,0.4s-1.2,0.1-1.8,0.1c-1.1,0-2.2-0.2-3.2-0.6
					c-1-0.4-1.8-0.9-2.6-1.7c-0.7-0.7-1.3-1.7-1.7-2.8s-0.6-2.4-0.6-3.8c0-1.1,0.2-2.2,0.5-3.2c0.4-1,0.9-1.8,1.6-2.6
					c0.7-0.7,1.5-1.3,2.5-1.7c1-0.4,2.1-0.6,3.3-0.6c1,0,2,0.2,2.9,0.5c0.9,0.3,1.6,0.8,2.3,1.4s1.1,1.4,1.5,2.3
					c0.4,0.9,0.5,2,0.5,3.2c0,0.6-0.1,1-0.2,1.2c-0.1,0.2-0.4,0.3-0.7,0.3H620.8z M645.3,206.9c0-0.5-0.1-1-0.2-1.4
					c-0.1-0.5-0.4-0.9-0.6-1.2c-0.3-0.3-0.7-0.6-1.1-0.8c-0.4-0.2-1-0.3-1.5-0.3c-1.1,0-2,0.3-2.7,1s-1.1,1.6-1.3,2.8H645.3z
					 M637.7,209.3c0.1,0.8,0.2,1.6,0.4,2.2s0.5,1.1,0.9,1.5c0.4,0.4,0.8,0.7,1.4,0.9c0.5,0.2,1.1,0.3,1.8,0.3s1.2-0.1,1.7-0.2
					c0.5-0.1,0.9-0.3,1.2-0.5s0.7-0.3,0.9-0.5s0.5-0.2,0.8-0.2c0.3,0,0.6,0.1,0.7,0.4l1.1,1.4c-0.4,0.5-0.9,0.9-1.5,1.3
					s-1.1,0.6-1.7,0.8c-0.6,0.2-1.2,0.4-1.8,0.4s-1.2,0.1-1.8,0.1c-1.1,0-2.2-0.2-3.2-0.6c-1-0.4-1.8-0.9-2.6-1.7
					c-0.7-0.7-1.3-1.7-1.7-2.8s-0.6-2.4-0.6-3.8c0-1.1,0.2-2.2,0.5-3.2c0.4-1,0.9-1.8,1.6-2.6c0.7-0.7,1.5-1.3,2.5-1.7
					c1-0.4,2.1-0.6,3.3-0.6c1,0,2,0.2,2.9,0.5c0.9,0.3,1.6,0.8,2.3,1.4s1.1,1.4,1.5,2.3c0.4,0.9,0.5,2,0.5,3.2c0,0.6-0.1,1-0.2,1.2
					c-0.1,0.2-0.4,0.3-0.7,0.3H637.7z M651,214.8c0-0.3,0.1-0.6,0.2-0.9c0.1-0.3,0.3-0.6,0.5-0.8c0.2-0.2,0.5-0.4,0.8-0.5
					c0.3-0.1,0.6-0.2,1-0.2s0.7,0.1,1,0.2c0.3,0.1,0.5,0.3,0.8,0.5c0.2,0.2,0.4,0.5,0.5,0.8c0.1,0.3,0.2,0.6,0.2,0.9
					c0,0.3-0.1,0.7-0.2,1s-0.3,0.5-0.5,0.8c-0.2,0.2-0.5,0.4-0.8,0.5c-0.3,0.1-0.6,0.2-1,0.2s-0.7-0.1-1-0.2
					c-0.3-0.1-0.6-0.3-0.8-0.5c-0.2-0.2-0.4-0.5-0.5-0.8S651,215.2,651,214.8z"/>
				<g>
					<path class="st1" d="M217.6,123.8c2.4,0,4.8-2.1,4.8-4c0-1.7-1-2.3-2.4-2.3c-2.4,0-5.4,1.8-5.4,3.8
						C214.5,123.1,215.9,123.8,217.6,123.8z"/>
					<path class="st1" d="M697.5,102.5c-4.1,0-10.7,17.3-16.2,31.6c-1.6,4.2-4.1,10.5-4.1,14.1c5.5-8,21.8-39.8,21.8-44
						C699,103.3,698.3,102.5,697.5,102.5z"/>
					<path class="st1" d="M36.7,106.2c-4.9,0-13.4,9-13.4,14.2c0,1.6,1,3,3.6,3.6c1.2-5.6,6.4-15.8,10-15.8c2.5,0,3.3,6.1,3.3,10.2
						c0,17.5-9.9,41.3-23.8,41.3c-7,0-9.9-6.9-9.9-14.8c0-18,15-41.4,27.8-41.4h0.8c-1.1-0.6-2.6-0.9-4.4-0.9
						C16.5,102.6,0,124.9,0,143.9c0,11.1,5.8,18.4,14.2,18.4c11.9,0,28.8-14.8,28.8-41.7C43,114.7,41.8,106.2,36.7,106.2z"/>
					<path class="st1" d="M141,130.7c-5.8,0-10.3,6-12.8,10.9c1-4.8,1.7-8.6,1.7-10c0-1.7-1-3.4-3.6-3.4c-1.2,0-1.3,0.4-1.4,1.3
						c-3.6,29.7-6.6,32-10.1,44.3c-0.1,0.3,1,2.8,2.3,2.8c0.3,0,0.7-0.1,0.9-0.4c1.7-1.6,5.6-15.3,9.1-30.1
						c1.9-4.3,7.1-11.9,12.3-11.9c3,0,4.2,2.6,4.2,5.7c0,7.5-7.2,16.2-15.1,16.2c-1,0-1.8,0-1.8,0.4c0,0.6,1.7,1.3,4.3,1.3
						c10.2,0,17.5-10.9,17.5-18.6C148.5,134.1,145.4,130.7,141,130.7z"/>
					<path class="st1" d="M90.9,155.1c-1.2,0-2.2-0.4-2.2-2.2c0-3.1,3.7-8,3.7-12.5c0-6.3-7.5-7.5-7.5-10.3c0-0.3,0.8-2.2,0.8-2.7
						s0-1.8-1-1.8c-0.8,0-3.1,2.1-3.1,5c0,0.7,0.3,1.3,0.7,1.8c-2.1,6.3-4.7,11.5-6,14.1l0.1,0.2c-3.5,5.9-8.1,9.2-10.9,9.2
						c-1.8,0-2.4-1.2-2.4-3c0-5,5-14.4,5-15.2c0-1.3-2.7-1.8-3.6-1.9c-2.8,5.6-8.9,19.3-13.5,19.3c-2.4,0-2.7-3.7-2.7-5
						c0-5,3.3-12.4,5-14.9c-0.8-0.9-2.2-1.5-2.7-1.5c-2.2,0-6.5,11.2-6.5,16.8c0,4,2.2,7.5,5.6,7.5c3.7,0,7-4.3,9.7-9.2
						c-0.3,1.3-0.5,2.5-0.5,3.7c0,3,1.3,5.5,5.2,5.5c5.3,0,11.7-5.6,14.9-13.5l-0.2-0.1c1.5-2.9,3.3-6.9,4.8-10.9
						c1.8,1.3,4.1,2.4,4.1,5.6c0,3.9-4.1,9.5-4.1,13.8c0,2.9,2.1,4.8,5.4,4.8c6.3,0,12.7-6.7,15.5-13l-1-0.7
						C101.6,148.3,95.6,155.1,90.9,155.1z"/>
					<path class="st1" d="M647.1,123.8c2.4,0,4.8-2.1,4.8-4c0-1.7-1-2.3-2.4-2.3c-2.4,0-5.4,1.8-5.4,3.8
						C644,123.1,645.4,123.8,647.1,123.8z"/>
					<path class="st1" d="M672.9,143.8c-3.8,7.8-9,12.7-14.1,12.7c-3,0-4.1-1.6-4.1-5.9c0-5.3,1.8-10.9,4.1-16.1h1.1
						c3.3,0,7.6-0.3,13-0.9v-1.3c-3.7,0.4-7.3,0.4-10.6,0.4h-2.7c4.3-9.1,9.8-16.8,9.8-19.4c0-1-0.8-1.6-1.6-1.6
						c-3,0-8.7,10.1-12.9,20.8c-1.4-0.1-2.5-0.2-3.3-0.3v1.3c0.8,0.3,1.7,0.4,2.7,0.6c-1.6,4.3-2.9,8.6-3.6,12.3
						c-3.7,6.5-7.1,8.8-10.1,8.8c-2.4,0-3.6-0.9-3.6-4.4c0-7,7.7-15.9,7.7-18.4c0-1-0.7-1.6-1.6-1.6c-5,0-10.7,15.2-10.7,20.8
						c0,3.5,1.8,6.2,5.7,6.2c4.4,0,8.9-2.7,12-7.7c-0.1,0.7-0.1,1.3-0.1,1.9c0,4.9,2.3,7.3,6.6,7.3c7,0,13.6-6.3,17.2-14.7
						L672.9,143.8z"/>
					<path class="st1" d="M616.7,102.5c-4.1,0-10.7,17.3-16.2,31.6c-4.7,12.4-12,20.4-16,20.4c-1.6,0-2.7-1.3-2.7-3.6
						c0-5.7,7-19.5,15-19.5c1.3,0,2.3,0.4,2.8,1.1c0.1-0.4,0.1-0.7,0.1-1c0-1.6-1.2-2.3-3.3-2.3c-7.7,0-16.5,10.2-19.1,18.3
						c-3.9,5.5-9.4,9.8-14.6,9.8c-4.6,0-5.7-3.6-5.7-6.6c0-0.7,0.1-1.7,0.3-2.7c8.4-0.8,17.3-5.8,17.3-13.3c0-3.6-2.3-4.5-4.6-4.5
						c-7.7,0-15.6,9-17.4,17.1c-3.8,5.5-9.2,9.6-14.5,9.6c-4.6,0-5.8-3.2-5.8-6.2c0-0.7,0.1-1.7,0.3-2.7c8.4-0.8,18.4-6.8,18.4-14.4
						c0-3.6-2.3-4.5-4.6-4.5c-8.1,0-17.3,10.7-18.6,19.2c-2.4,3.8-5.1,7-7.8,7c-1.3,0-2.2-0.7-2.2-2.8c0-3.6,3-7.1,3-11.7
						c0-3.3-1.6-6.7-5.5-6.7c-5.6,0-11.5,7-15.4,13c1.3-4.1,2.4-8.2,2.4-9.8c0-1.2-0.7-1.9-2-1.9c-1.4,0-2.8,0.9-3.4,1.6
						c-0.1,6.4-5.3,17.3-5.3,18.2c0.8,1.1,2.4,1.6,3.9,1.6c3.8-6.5,10.7-18.3,16.8-18.3c1.7,0,3,0.9,3,3.6c0,3.5-2.1,7.3-2.1,10.3
						c0,2.7,1.7,4.7,5.2,4.7c3.7,0,6.7-2.3,9.3-6c0.3,4.4,3.3,7.8,9,7.8c5.6,0,11.5-3.3,15.7-9v0.4c0,4.8,2.9,9,8.9,9
						c5.4,0,11.2-3.3,15.5-8.6c0,0.4-0.1,0.7-0.1,1c0,4.4,3,6.2,5.5,6.2c4.5,0,10.3-5.8,15.1-13.8c-0.9,3.4-1.4,6.2-1.4,7.9
						c0,2.6,1.2,5.5,4.9,5.5c5,0,11.5-5.6,14.4-13.2l-0.9-0.7c-3.1,6.7-8.4,11-11.4,11c-1.7,0-1.7-1.3-1.7-4.1
						c0-14.7,17-41.7,17-46.4C618.2,103.3,617.5,102.5,616.7,102.5z M569.9,132.5c1.3,0,1.7,0.8,1.7,1.9c0,6.4-8.6,10.4-13.8,12.2
						C559.8,139.6,565.2,132.5,569.9,132.5z M546.2,131.5c1.3,0,1.6,0.6,1.6,1.7c0,6.4-9.5,11.6-14.7,13.5
						C535.1,139.6,541.5,131.5,546.2,131.5z"/>
					<path class="st1" d="M677,151.5c-1.9,0-4.3,1.4-4.3,3c0,1.4,1.1,2,2.4,2c1.9,0,3.8-1.8,3.8-3.3
						C678.9,152,678.2,151.5,677,151.5z"/>
					<path class="st1" d="M435.6,155.4c-1.3,0-2.2-0.7-2.2-2.8c0-3.6,3-7.1,3-11.7c0-3.3-1.6-6.7-5.5-6.7c-5.6,0-11.5,7-15.4,13
						c1.3-4.1,2.4-8.2,2.4-9.8c0-1.2-0.7-1.9-2-1.9c-1.4,0-2.8,0.9-3.4,1.6c0,2.7-0.9,6.1-2,9.3c-1.5,2.3-2.9,3.2-4.5,3.2
						c-2.6,0-5.2-2.4-5.2-6.1c0-3.9,2.9-7.5,2.9-9.3c0-0.9-0.7-2.9-2.5-2.9c-0.2,0-0.4,0-0.5,0.1c-0.4-0.9-1.3-1.6-3.2-1.6
						c-7.2,0-14.6,9.5-17.1,17.3c-3.1,4.8-7.1,7.8-9.6,7.8c-1.7,0-1.7-1.3-1.7-4.1c0-14.7,17-41.7,17-46.4c0-1-0.7-1.7-1.5-1.7
						c-4.1,0-10.7,17.3-16.2,31.6c-4.7,12.4-12,20.4-16,20.4c-1.6,0-2.7-1.3-2.7-3.6c0-5.7,7-19.5,15-19.5c1.3,0,2.3,0.4,2.8,1.1
						c0.1-0.4,0.1-0.7,0.1-1c0-1.6-1.2-2.3-3.3-2.3c-9.2,0-19.9,14.4-19.9,22.6c0,4.4,3,6.2,5.5,6.2c4.5,0,10.3-5.8,15.1-13.8
						c-0.9,3.4-1.4,6.2-1.4,7.9c0,2.6,1.2,5.5,4.9,5.5c3.5,0,7.7-2.8,10.9-7c0,0.4-0.1,0.7-0.1,1.1c0,3.8,2.1,6.4,5.9,6.4
						c5.2,0,9.8-5,12.9-12.3c1.5,3.4,4.2,5.2,7,5.2c1.3,0,2.6-0.4,4-1.4c-1.1,3-2.1,5.3-2.1,5.7c0.8,1.1,2.4,1.6,3.9,1.6
						c3.8-6.5,10.7-18.3,16.8-18.3c1.7,0,3,0.9,3,3.6c0,3.5-2.1,7.3-2.1,10.3c0,2.7,1.7,4.7,5.2,4.7c5.5,0,9.7-5.3,12.8-12.5l-0.8-1
						C443.3,149.3,439.3,155.4,435.6,155.4z M397.3,139.4c0,1.7,0.1,3,0.4,4.2c-2.7,6.4-7.3,11.4-10.6,11.4c-1.8,0-2.8-1.5-2.8-3.8
						c0-5.6,6-18.6,14.4-18.6C397.9,133.9,397.3,136,397.3,139.4z"/>
					<path class="st1" d="M461.9,156.5c-3,0-4.1-1.6-4.1-5.9c0-5.3,1.8-10.9,4.1-16.1h1.1c3.3,0,7.6-0.3,13-0.9v-1.3
						c-3.7,0.4-7.3,0.4-10.6,0.4h-2.7c4.3-9.1,9.8-16.8,9.8-19.4c0-1-0.8-1.6-1.6-1.6c-3,0-8.7,10.1-12.9,20.8
						c-1.4-0.1-2.5-0.2-3.3-0.3v1.3c0.8,0.3,1.7,0.4,2.7,0.6c-2.5,6.7-4.3,13.5-4.3,17.8c0,4.9,2.3,7.3,6.6,7.3
						c7,0,13.6-6.3,17.2-14.7l-1-0.7C472.1,151.6,467,156.5,461.9,156.5z"/>
					<path class="st1" d="M317.9,152.2c0.3-1.1,0.4-2.3,0.4-3.6c0-6.8-3.8-13-3.8-17.8c0-1.7,0.4-2.7,0.4-3.3s-0.4-1-1.2-1
						c-1.4,0-2.9,1.4-2.9,5v0.9c-1.8,3.9-4.4,7.5-7.3,10.7c-0.2,0.3-0.8,0.4-1.4,0.7l-0.2-0.1c0,0.1-0.1,0.2-0.1,0.3
						c-1.3,0.6-2.8,1.8-3,5.1c-3.3,4.6-7.1,7.3-10.9,7.3c-3,0-4.1-1.6-4.1-5.9c0-5.3,1.8-10.9,4.1-16.1h1.1c3.3,0,7.6-0.3,13-0.9
						v-1.3c-3.7,0.4-7.3,0.4-10.6,0.4h-2.7c4.3-9.1,9.8-16.8,9.8-19.4c0-1-0.8-1.6-1.6-1.6c-3,0-8.7,10.1-12.9,20.8
						c-1.4-0.1-2.5-0.2-3.3-0.3v1.3c0.8,0.3,1.7,0.4,2.7,0.6c-1.6,4.3-2.9,8.6-3.6,12.3c-2.6,4.7-5.9,9-9,9c-1.3,0-2.2-0.7-2.2-2.8
						c0-3.6,3-7.1,3-11.7c0-3.3-1.6-6.7-5.5-6.7c-5.6,0-11.5,7-15.4,13c1.3-4.1,2.4-8.2,2.4-9.8c0-1.2-0.7-1.9-2-1.9
						c-1.4,0-2.8,0.9-3.4,1.6c0,2.5-0.8,5.7-1.8,8.7c-3.8,6.2-9.7,11.1-15.4,11.1c-4.6,0-5.8-3.2-5.8-6.2c0-0.7,0.1-1.7,0.3-2.7
						c8.4-0.8,18.4-6.8,18.4-14.4c0-3.6-2.3-4.5-4.6-4.5c-8,0-17.2,10.6-18.6,19.1c-3.2,5-6.2,6.8-8.9,6.8c-2.4,0-3.6-0.9-3.6-4.4
						c0-7,7.7-15.9,7.7-18.4c0-1-0.7-1.6-1.6-1.6c-3.8,0-7.9,8.6-9.7,15.2c-3.6,6.5-8.3,10.5-12.9,10.5c-3,0-4.1-1.6-4.1-5.9
						c0-5.3,1.8-10.9,4.1-16.1h1.1c3.3,0,7.6-0.3,13-0.9v-1.3c-3.7,0.4-7.3,0.4-10.6,0.4h-2.7c4.3-9.1,9.8-16.8,9.8-19.4
						c0-1-0.8-1.6-1.6-1.6c-3,0-8.7,10.1-12.9,20.8c-1.4-0.1-2.5-0.2-3.3-0.3v1.3c0.8,0.3,1.7,0.4,2.7,0.6c-1.6,4.2-2.9,8.4-3.6,12
						c-4,6.3-8.1,9.4-10.5,9.4c-1.8,0-2.5-1.8-2.5-3.3c0-3.6,4.3-8.6,4.3-10.3c0-1.1-2.1-1.7-3-1.8c-3.6,5.3-11,16.1-15.5,16.1
						c-1.3,0-2-0.9-2-2.9c0-7.2,8.3-20.9,15.2-20.9c2.7,0,3.6,1.9,3.6,4.1c0,0.8-0.1,1.8-0.4,2.6c2.1,0,3.6-0.7,3.6-3.2
						c0-3.3-2.9-5.6-6.7-5.6c-9.6,0-20.5,13.9-20.5,22.7c0,4.1,2.4,6.1,5.5,6.1c3.6,0,6.9-2.9,11.2-8.6c-0.1,0.8-0.2,1.6-0.2,2.1
						c0,2.6,1.7,5.2,5.3,5.2c4,0,8.6-3.2,12-8.3c-0.1,0.8-0.1,1.5-0.1,2.1c0,4.9,2.3,7.3,6.6,7.3c5.4,0,10.5-3.7,14.3-9.3
						c-0.1,0.6-0.1,1.1-0.1,1.6c0,3.5,1.8,6.2,5.7,6.2c4,0,8.1-2.3,11.2-6.5c0.3,4.5,3.3,7.9,9,7.9c5.4,0,11.1-3.1,15.3-8.4
						c-0.9,2.5-1.7,4.3-1.7,4.6c0.8,1.1,2.4,1.6,3.9,1.6c3.8-6.5,10.7-18.3,16.8-18.3c1.7,0,3,0.9,3,3.6c0,3.5-2.1,7.3-2.1,10.3
						c0,2.7,1.7,4.7,5.2,4.7c4.1,0,7.4-2.8,10.1-7.2c-0.1,0.6-0.1,1.2-0.1,1.8c0,4.9,2.3,7.3,6.6,7.3c4.8,0,9.5-3,13.1-7.7
						c0.5,4,3,8.1,9.1,8.1c4.2,0,7.9-1.9,9.5-6.1c4.4-0.7,8.5-3.4,10.4-8.8l-0.7-0.7C324.3,149.4,321.3,151.7,317.9,152.2z
						 M238.4,131.5c1.3,0,1.6,0.6,1.6,1.7c0,6.4-9.5,11.6-14.7,13.5C227.3,139.6,233.7,131.5,238.4,131.5z M308.2,157
						c-3.8,0-6.1-3.6-6.1-7.2c0-1.6,0.4-2.5,1.6-2.6c1.6,2.5,5,5.3,9.1,6.1C311.7,156.6,309.4,157,308.2,157z M313.2,152.2
						c-4.5-1-7.7-4.1-9.2-7.3c2.2-2.2,4.9-5.8,7.2-9.6c0.7,4.1,2.3,8.7,2.3,13.4C313.5,150.2,313.4,151.2,313.2,152.2z"/>
					<path class="st1" d="M451.5,102.5c-0.6,2.3-3.3,5-4.5,7.9c-0.1,0.2-0.1,0.4-0.1,0.7c0,0.9,0.7,1.6,1.4,2.1
						c1.8-2.7,5.1-6.7,5.1-8.6C453.3,103.5,452.4,102.5,451.5,102.5z"/>
				</g>
				<path id="no-insurance_x3F_" class="st2" d="M57.9,75H38.5V44.8c0-2.7-0.6-4.6-1.8-5.8c-1.2-1.2-2.6-1.8-4.1-1.8
					c-1.6,0-3.4,0.7-5.2,2.1c-1.8,1.4-3.2,3.3-4.1,5.5V75H3.9V21.3h17.4v8c1.9-2.9,4.6-5.2,8-6.7c3.4-1.5,7.5-2.3,12.2-2.3
					c3.7,0,6.6,0.7,8.7,2c2.1,1.3,3.8,3,4.9,4.9s1.9,4.1,2.2,6.3c0.3,2.2,0.5,4.3,0.5,6.1V75z M95.5,76c-4.8,0-9.1-0.8-12.7-2.3
					c-3.6-1.5-6.7-3.6-9.2-6.1c-2.5-2.6-4.4-5.5-5.6-8.9c-1.3-3.4-1.9-6.9-1.9-10.6S66.7,41,68,37.6c1.3-3.4,3.1-6.3,5.6-8.9
					c2.5-2.6,5.5-4.6,9.2-6.1c3.6-1.5,7.9-2.3,12.7-2.3c4.8,0,9,0.8,12.6,2.3c3.7,1.5,6.7,3.6,9.2,6.1c2.5,2.6,4.4,5.5,5.6,8.9
					c1.3,3.4,1.9,6.9,1.9,10.6s-0.6,7.2-1.9,10.6c-1.3,3.4-3.1,6.3-5.6,8.9c-2.5,2.6-5.6,4.6-9.2,6.1C104.5,75.3,100.2,76,95.5,76z
					 M86,48.2c0,3.6,0.9,6.4,2.7,8.5c1.8,2,4,3.1,6.8,3.1s5.1-1,6.8-3.1c1.8-2,2.7-4.9,2.7-8.5s-0.9-6.4-2.7-8.5s-4-3.1-6.8-3.1
					s-5.1,1-6.8,3.1C86.9,41.7,86,44.6,86,48.2z M158.3,75V21.3h19.4V75H158.3z M158.3,16.9V0.5h19.4v16.3H158.3z M243.3,75h-19.4
					V44.8c0-2.7-0.6-4.6-1.8-5.8c-1.2-1.2-2.6-1.8-4.1-1.8c-1.6,0-3.4,0.7-5.2,2.1c-1.8,1.4-3.2,3.3-4.1,5.5V75h-19.4V21.3h17.4v8
					c1.9-2.9,4.6-5.2,8-6.7c3.4-1.5,7.5-2.3,12.2-2.3c3.7,0,6.6,0.7,8.7,2c2.1,1.3,3.8,3,4.9,4.9s1.9,4.1,2.2,6.3
					c0.3,2.2,0.5,4.3,0.5,6.1V75z M276.6,76c-4.7,0-9.3-0.8-13.8-2.3c-4.5-1.5-8.3-3.8-11.4-6.7l6.6-11.6c3.3,2.2,6.5,4,9.6,5.2
					c3.1,1.2,5.9,1.8,8.5,1.8c2.7,0,4.1-0.8,4.1-2.5c0-1-0.5-1.8-1.6-2.4c-1.1-0.7-3.1-1.5-6.2-2.3c-3.8-1.1-7-2.2-9.5-3.2
					s-4.6-2.2-6.2-3.4c-1.6-1.2-2.7-2.6-3.4-4.1c-0.7-1.5-1-3.3-1-5.3c0-2.7,0.5-5.2,1.6-7.5c1.1-2.3,2.6-4.3,4.5-6s4.2-3,6.9-3.9
					c2.7-0.9,5.6-1.4,8.8-1.4c3.9,0,7.7,0.5,11.3,1.5c3.6,1,7.2,3.1,10.8,6.2L289,39.6c-3.3-2.2-6.1-3.7-8.4-4.6s-4.4-1.4-6.3-1.4
					c-1.2,0-2.1,0.2-2.9,0.7c-0.7,0.4-1.1,1.1-1.1,2.1c0,1,0.5,1.9,1.6,2.5c1.1,0.6,3.2,1.4,6.4,2.2c3.9,1,7.1,2.1,9.8,3.2
					s4.8,2.3,6.4,3.7c1.6,1.3,2.7,2.8,3.4,4.5s1,3.6,1,5.8c0,2.8-0.5,5.3-1.5,7.4c-1,2.2-2.5,4-4.4,5.6c-1.9,1.6-4.3,2.8-7,3.6
					C283.2,75.6,280.1,76,276.6,76z M323.6,76c-5.4,0-9.6-1.6-12.4-4.9c-2.9-3.3-4.3-8.1-4.3-14.4V21.3h19.4v30.9
					c0,2.4,0.5,4.2,1.6,5.5c1.1,1.3,2.5,1.9,4.3,1.9c1.5,0,3-0.3,4.6-1c1.6-0.7,3.1-2.2,4.7-4.5V21.3h19.4v32.2
					c0,1.8,0.3,3.1,0.8,3.8c0.5,0.7,1.5,1.1,2.9,1.3V75c-3.3,0.7-6.1,1-8.2,1c-6.6,0-10.4-2.5-11.4-7.4l-0.4-1.9
					c-2.5,3.3-5.5,5.7-9,7.2C332.1,75.3,328.1,76,323.6,76z M410.8,37.9c-3.7,0-7.1,0.4-10.2,1.2c-3.1,0.8-5.3,2.2-6.8,4.1V75h-19.4
					V21.3h17.7v10.2c1.9-3.6,4.3-6.4,7.1-8.3s5.9-2.9,9.1-2.9c1.3,0,2.1,0,2.4,0.1V37.9z M433.8,76c-2.7,0-5.1-0.4-7.4-1.3
					s-4.3-2.1-6-3.6c-1.7-1.5-3-3.3-3.9-5.5c-1-2.1-1.4-4.4-1.4-6.8c0-2.7,0.6-5.2,1.7-7.4s2.8-4.2,4.8-5.8s4.5-2.9,7.3-3.8
					c2.8-0.9,5.9-1.3,9.3-1.3c4.4,0,8,0.7,10.8,2v-1.6c0-2.5-0.7-4.4-2.2-5.6s-3.8-1.8-7.1-1.8c-3.1,0-5.9,0.5-8.5,1.5
					c-2.6,1-5.3,2.4-8.2,4.3l-5.6-12c7.1-4.6,15.1-6.8,24.2-6.8c8.6,0,15.2,1.9,19.8,5.7s6.9,9.5,6.9,17.1v10.4
					c0,1.8,0.3,3.1,0.8,3.8c0.5,0.7,1.5,1.1,2.9,1.3V75c-1.6,0.3-3,0.6-4.4,0.8S465,76,463.9,76c-3.5,0-6.1-0.6-7.9-1.9
					c-1.8-1.3-3-3.1-3.5-5.6l-0.4-1.9c-2.4,3.1-5.1,5.4-8.3,7C440.7,75.2,437.3,76,433.8,76z M439.6,62.1c1.2,0,2.3-0.2,3.6-0.6
					c1.2-0.4,2.3-0.9,3.3-1.5c0.7-0.5,1.4-1.1,1.8-1.8c0.5-0.6,0.7-1.3,0.7-2v-4c-1.2-0.4-2.4-0.7-3.8-1c-1.4-0.3-2.6-0.4-3.7-0.4
					c-2.4,0-4.4,0.6-5.9,1.7c-1.6,1.2-2.3,2.6-2.3,4.4c0,1.5,0.6,2.7,1.8,3.7C436.3,61.7,437.8,62.1,439.6,62.1z M534.9,75h-19.4
					V44.8c0-2.7-0.6-4.6-1.8-5.8c-1.2-1.2-2.6-1.8-4.1-1.8c-1.6,0-3.4,0.7-5.2,2.1c-1.8,1.4-3.2,3.3-4.1,5.5V75h-19.4V21.3h17.4v8
					c1.9-2.9,4.6-5.2,8-6.7c3.4-1.5,7.5-2.3,12.2-2.3c3.7,0,6.6,0.7,8.7,2c2.1,1.3,3.8,3,4.9,4.9s1.9,4.1,2.2,6.3
					c0.3,2.2,0.5,4.3,0.5,6.1V75z M543.1,48.2c0-3.7,0.6-7.2,1.9-10.6c1.3-3.4,3.2-6.3,5.7-8.9c2.5-2.6,5.6-4.6,9.2-6.1
					c3.7-1.5,7.9-2.3,12.6-2.3c6.5,0,12,1.4,16.4,4.1c4.4,2.7,7.7,6.2,9.8,10.5L580,40.6c-1.8-2.7-4.3-4-7.4-4c-2.7,0-4.9,1-6.7,3
					c-1.8,2-2.8,4.8-2.8,8.5s0.9,6.5,2.8,8.5c1.8,2,4.1,3,6.7,3c3.1,0,5.6-1.3,7.4-4l18.9,5.7c-2.2,4.3-5.5,7.8-9.8,10.5
					c-4.4,2.7-9.8,4.1-16.4,4.1c-4.8,0-9-0.8-12.6-2.3c-3.7-1.5-6.7-3.6-9.2-6.1c-2.5-2.6-4.4-5.5-5.7-8.9
					C543.8,55.4,543.1,51.8,543.1,48.2z M632.7,76c-4.7,0-8.9-0.7-12.5-2.2c-3.7-1.5-6.7-3.5-9.2-6c-2.5-2.5-4.4-5.4-5.7-8.7
					c-1.3-3.3-1.9-6.7-1.9-10.3c0-3.9,0.6-7.5,1.9-11c1.3-3.5,3.1-6.5,5.6-9.1c2.5-2.6,5.5-4.6,9.2-6.2c3.6-1.5,7.9-2.3,12.7-2.3
					c4.8,0,9,0.8,12.6,2.3c3.7,1.5,6.7,3.6,9.2,6.1c2.5,2.6,4.4,5.5,5.6,8.9c1.3,3.4,1.9,6.9,1.9,10.6c0,1-0.1,2.1-0.2,3.1
					c-0.1,1.1-0.2,2-0.4,2.8h-37.6c0.2,2.9,1.3,4.9,3.2,6.2c1.9,1.3,4,1.9,6.2,1.9c2.1,0,4.1-0.5,6-1.4c1.9-1,3.1-2.3,3.7-4
					l16.4,4.7c-2.2,4.3-5.5,7.8-10,10.5C644.9,74.7,639.3,76,632.7,76z M641.3,42.5c-0.3-2.6-1.3-4.6-2.9-6.1
					c-1.6-1.5-3.6-2.2-6-2.2c-2.4,0-4.5,0.7-6,2.2c-1.6,1.5-2.5,3.5-2.9,6.1H641.3z M675,48.6c0-1.4,0.1-2.8,0.2-4.2
					c0.1-1.4,0.5-2.7,1-4c0.5-1.3,1.4-2.5,2.4-3.6c1.1-1.2,2.5-2.2,4.4-3.2c0.7-0.4,1.8-1,3.2-1.6c1.4-0.7,2.8-1.5,4.2-2.4
					c1.4-1,2.6-2,3.6-3.2s1.5-2.5,1.5-3.9c0-1.6-0.6-2.8-1.8-3.7s-2.7-1.4-4.3-1.4c-1.2,0-2.3,0.2-3.2,0.7c-0.9,0.5-1.6,1.1-2.3,1.7
					c-0.6,0.7-1.2,1.4-1.6,2.1c-0.4,0.7-0.9,1.3-1.3,1.8l-12.3-8.8c1.8-4.1,4.6-7.4,8.4-9.7c3.8-2.3,8.2-3.5,13.1-3.5
					c2.6,0,5.2,0.4,7.9,1.1c2.7,0.7,5,1.9,7.2,3.6c2.1,1.6,3.9,3.8,5.2,6.4c1.3,2.7,2,5.9,2,9.7c0,3.3-0.6,6.2-1.8,8.9
					s-3.3,5-6.4,7.1c-1.5,1-3,1.9-4.6,2.7c-1.6,0.7-3,1.5-4.3,2.2c-1.3,0.7-2.4,1.5-3.3,2.3c-0.8,0.8-1.3,1.8-1.3,2.9H675z
					 M675.3,75V58.3h15.8V75H675.3z"/>
			</g>
		</g>
	</g>
</g>
</svg>
