<?xml version="1.0" encoding="utf-8"?>
<!-- Generator: Adobe Illustrator 21.1.0, SVG Export Plug-In . SVG Version: 6.00 Build 0)  -->
<svg version="1.1" id="Layer_1" xmlns="http://www.w3.org/2000/svg" xmlns:xlink="http://www.w3.org/1999/xlink" x="0px" y="0px"
	 viewBox="0 0 540 275" style="enable-background:new 0 0 540 275;" xml:space="preserve">
<style type="text/css">
	.st0{fill:#28A19E;}
	.st1{fill:#2E4A6F;}
	.st2{fill:#7DBC3A;}
</style>
<title>Group 2</title>
<desc>Created with Sketch.</desc>
<g id="Page-1">
	<g id="Desktop-HD" transform="translate(-154.000000, -169.000000)">
		<g id="slide1" transform="translate(-3.000000, 100.000000)">
			<g id="Group-2" transform="translate(154.000000, 43.000000)">
				<g>
					<path class="st0" d="M163.5,60.4c2.5-0.2,4.9-2.7,4.7-4.6c-0.2-1.8-1.2-2.3-2.8-2.2c-2.5,0.2-5.5,2.4-5.3,4.5
						C160.3,59.9,161.8,60.5,163.5,60.4z"/>
					<path class="st0" d="M410.1,59.9c-3.2,8.5-8.2,14.1-13.6,14.6c-3.1,0.3-4.5-1.3-4.9-5.8c-0.5-5.5,0.9-11.6,2.8-17.3l1.2-0.1
						c3.5-0.3,8-1,13.6-2.1l-0.1-1.4c-3.9,0.7-7.7,1.1-11.1,1.4l-2.9,0.3c3.7-10,8.8-18.5,8.6-21.3c-0.1-1.1-1-1.6-1.8-1.6
						c-3.2,0.3-8.2,11.4-11.6,23c-1.5,0.1-2.7,0-3.4,0L387,51c0.9,0.2,1.8,0.3,2.9,0.4c-1.2,4.2-2.1,8.4-2.6,12
						c-3.8,7.6-8,11.6-10.6,11.8c-1.9,0.2-2.8-1.6-2.9-3.2c-0.3-3.7,3.7-9.4,3.6-11.2c-0.1-1.2-2.3-1.6-3.3-1.7
						c-3.3,5.9-10,17.9-14.8,18.4c-1.4,0.1-2.2-0.7-2.4-2.8c-0.7-7.5,6.8-22.8,14.1-23.4c2.8-0.2,4,1.7,4.2,4c0.1,0.9,0,1.9-0.2,2.8
						c2.3-0.2,3.7-1.1,3.5-3.7c-0.3-3.5-3.5-5.6-7.6-5.2c-8,0.7-16,10.6-18.6,19.3c-3.5,6.2-8.9,11.1-14.4,11.6
						c-4.8,0.4-6.4-2.8-6.7-6c-0.1-0.8-0.1-1.8,0.1-2.8c8.8-1.6,18.6-8.8,18-16.8c-0.3-3.8-2.8-4.5-5.2-4.3
						c-8.3,0.7-16.7,12.2-17.7,21.2c-2.5,4.1-6.6,8.3-10.2,8.6c-1.2,0.1-2.4-0.3-2.5-2.1c-0.3-3.3,3.2-8.7,2.7-13.5
						c-0.6-6.6-8.6-7.2-8.9-10.1c0-0.3,0.7-2.4,0.6-2.9c0-0.5-0.2-1.9-1.3-1.8c-0.9,0.1-3.1,2.5-2.8,5.6c0.1,0.8,0.4,1.4,0.9,1.8
						c-1.7,6.8-3.8,12.5-5,15.3l0.8,1.3c1.4-2.9,3.7-9.2,5.6-15.5c2.1,1.2,4.6,2.2,4.9,5.5c0.4,4.1-3.4,10.3-3,14.9
						c0.3,3,2.6,4.9,6.1,4.6c4.6-0.4,8.9-4.2,11.9-8.7c0,0,0,0,0,0c0.4,5.1,4,8.7,10.3,8.2c5.6-0.5,11.1-4.2,15-9.9
						c-0.1,0.8-0.1,1.6,0,2.3c0.4,4.4,3.1,6.2,6.3,5.9c3.8-0.3,7-3.7,10.9-10c-0.1,0.9-0.1,1.7,0,2.3c0.2,2.7,2.3,5.3,6.1,4.9
						c4.4-0.4,9.2-4.5,12.2-10.6c0,1.1,0,2.1,0.1,3c0.4,5.1,3.1,7.5,7.6,7.1c7.3-0.6,13.7-7.9,16.7-17L410.1,59.9z M343.9,52.7
						c1.3-0.1,1.7,0.5,1.8,1.6c0.6,6.7-8.9,13.1-14.2,15.5C332.9,62.2,338.9,53.1,343.9,52.7z"/>
					<path class="st0" d="M282.6,59.2c-2.7,0.2-4.5,1.5-4.9,4.5c1.9-0.2,3.3-0.4,4.7-0.5c2-0.2,4.2-0.2,8.1,0.3
						c0.1,10.2-5.3,24.2-13.5,24.9c-6,0.5-10.9-4.8-11.7-14.2c-1.5-17.3,11-43.9,22.2-44.9c3.4-0.3,4.8,1.4,5,3.7
						c0.4,4.2-3,10.7-5,12.4c0.7,1.3,1.7,1.7,2.6,1.6c3.7-0.3,6.3-6.5,5.8-11.9c-0.4-4.6-2.9-8.6-8.8-8.1
						c-14.8,1.3-29.9,26.2-28.1,46.2c1.1,12.2,8.1,18.7,16.2,18c6.1-0.5,10.6-4.9,13.9-10.5c-0.3,1.4-0.3,2.5-0.2,3.6
						c0.2,2.8,2,4.4,4.7,5.2c-0.3-2.1-0.7-3.9-0.8-6c-0.3-3.7,0-8.7,3.1-19.4l0.3-2.5C292.5,61.2,287,58.8,282.6,59.2z"/>
					<path class="st0" d="M225.7,89.3c2.8-9.6,4.3-19.2,4.1-21.8c-0.6-0.1-1.2-0.1-1.7-0.1c-2.6,0.2-3.4,2.8-3.6,4.3l-0.6,4.2
						c-3.5,6-7.7,11-10.6,11.3c-1.6,0.1-2.8-1.1-3.1-3.6c-0.6-6.5,5.9-18.3,14.1-19c1.6-0.1,2.6,0.2,3.2,0.9
						c0.2-0.1,0.9-0.7,0.8-1.6c-0.1-1.3-1.5-2.4-4.4-2.1c-8,0.7-18.6,10.1-18.9,20.3c-2.2,4.5-5,8.5-7.9,8.8
						c-1.3,0.1-2.4-0.6-2.6-2.7c-0.3-3.8,2.5-7.7,2.1-12.6c-0.3-3.5-2.3-6.8-6.4-6.5c-5.9,0.5-11.4,8.4-15,15.1
						c1-4.4,1.7-8.8,1.6-10.5c-0.1-1.2-0.9-2-2.3-1.8c-1.5,0.1-2.9,1.2-3.4,1.9c0.2,2.2-0.2,4.9-0.7,7.6
						c-3.6,8.9-7.3,12.2-10.7,12.5c-2.6,0.2-3.9-0.6-4.2-4.3c-0.6-7.3,6.6-17.4,6.4-20c-0.1-1.1-0.9-1.6-1.9-1.6
						c-3.7,0.3-7,8.4-8.5,15.3c-3.3,8.1-8.1,13.4-13.3,13.9c-3.1,0.3-4.5-1.3-4.9-5.8c-0.5-5.5,0.9-11.6,2.8-17.3l1.2-0.1
						c3.5-0.3,8-1,13.6-2.1l-0.1-1.4c-3.9,0.7-7.7,1.1-11.1,1.4l-2.9,0.3c3.7-10,8.8-18.5,8.6-21.3c-0.1-1.1-1-1.6-1.8-1.6
						c-3.2,0.3-8.2,11.4-11.6,23c-1.5,0.1-2.7,0-3.4,0l0.1,1.4c0.9,0.2,1.8,0.3,2.9,0.4c-1.2,4.2-2.1,8.4-2.6,12
						c-3.8,7.6-8,11.6-10.6,11.8c-1.9,0.2-2.8-1.6-2.9-3.2c-0.3-3.7,3.7-9.4,3.6-11.2c-0.1-1.2-2.3-1.6-3.3-1.7
						c-3.3,5.9-10,17.9-14.8,18.4c-1.4,0.1-2.2-0.7-2.4-2.8c-0.7-7.5,6.8-22.8,14.1-23.4c2.8-0.2,4,1.7,4.2,4c0.1,0.9,0,1.9-0.2,2.8
						c2.3-0.2,3.7-1.1,3.5-3.7c-0.3-3.5-3.5-5.6-7.6-5.2c-8,0.7-16,10.6-18.6,19.3c-3.5,6.2-8.9,11.1-14.4,11.6
						c-4.8,0.4-6.4-2.8-6.7-6c-0.1-0.8-0.1-1.8,0.1-2.8c8.8-1.6,18.6-8.8,18-16.8c-0.3-3.8-2.8-4.5-5.2-4.3
						C77.4,73.6,68.9,85,67.9,94c-2.5,4.1-6.6,8.3-10.2,8.6c-1.2,0.1-2.4-0.3-2.5-2.1c-0.3-3.3,3.2-8.7,2.7-13.5
						c-0.6-6.6-8.6-7.2-8.9-10.1c0-0.3,0.7-2.4,0.6-2.9c0-0.5-0.2-1.9-1.3-1.8c-0.9,0.1-3.1,2.5-2.8,5.6c0.1,0.8,0.4,1.4,0.9,1.8
						c-1.7,6.8-3.8,12.5-5,15.3l0,0c-3.8,8.1-11.1,15-18.5,15.7c-7.8,0.7-11.6-6.3-12.3-14c-1.5-17.5,11-44,22.2-44.9
						c2.6-0.2,3.9,1.1,4.1,3.2c0.4,4.4-4.1,12.5-6.9,16.3c0.7,1.3,1.7,1.7,2.6,1.6c4.3-0.4,8.1-11.3,7.6-17.3
						c-0.4-4.8-3.5-6.4-7.7-6.1C17.8,50.7,2.7,75.3,4.5,95.8c0.8,9.5,5.9,18.6,17,17.6c10.4-0.9,18.1-10,22.5-20.7l-0.1-0.1
						c1.3-3.2,2.8-7.6,4.1-12c2.1,1.2,4.6,2.2,4.9,5.5c0.4,4.1-3.4,10.3-3,14.9c0.3,3,2.6,4.9,6.1,4.6c4.6-0.4,8.9-4.2,11.9-8.7
						c0,0,0,0,0,0c0.4,5.1,4,8.7,10.3,8.2c5.6-0.5,11.1-4.2,15-9.9c-0.1,0.8-0.1,1.6,0,2.3c0.4,4.4,3.1,6.2,6.3,5.9
						c3.8-0.3,7-3.7,10.9-10c-0.1,0.9-0.1,1.7,0,2.3c0.2,2.7,2.3,5.3,6.1,4.9c4.4-0.4,9.2-4.5,12.2-10.6c0,1.1,0,2.1,0.1,3
						c0.4,5.1,3.1,7.5,7.6,7.1c5.9-0.5,11.1-5.3,14.5-11.8c-0.1,0.9-0.1,1.7,0,2.4c0.3,3.7,2.5,6.4,6.6,6c4.3-0.4,8.4-3.2,11.3-8.1
						c-0.7,2.5-1.3,4.3-1.3,4.7c1,1.1,2.6,1.5,4.3,1.3c3.4-7.2,9.5-20.2,16-20.7c1.8-0.2,3.2,0.7,3.4,3.5c0.3,3.7-1.6,7.8-1.3,11
						c0.3,2.9,2.2,4.8,5.9,4.5c4.1-0.4,7.3-3.5,9.7-8c0.7,3.8,2.9,6.1,6.3,5.8c4.4-0.4,8.3-5,11.8-11.1c-0.8,5.2-1.8,9.5-2.8,13.2
						c-6.2,3.8-14.5,8.7-14,15c0.3,3.2,2.6,4.3,4.9,4.1c5.8-0.5,10.1-9.4,13.5-20.3c4.6-2.8,11.5-8.7,13.3-15.9l-1.1-0.7
						C235.4,81.2,230.5,86.5,225.7,89.3z M85.6,75.3c1.3-0.1,1.7,0.5,1.8,1.6C88,83.6,78.5,90,73.2,92.4
						C74.6,84.8,80.6,75.7,85.6,75.3z M211.1,109.5c-1.1,0.1-2-0.9-2.1-2.6c-0.4-4.4,5.1-8.3,10.9-11.9
						C216.6,105.3,213.1,109.3,211.1,109.5z"/>
				</g>
				<path id="at-DeFont-Family-Den" class="st1" d="M13.7,290.5c-1.2,0-2.2-0.2-3.2-0.6s-1.8-0.9-2.6-1.6c-0.7-0.7-1.3-1.5-1.7-2.4
					c-0.4-0.9-0.6-1.9-0.6-3s0.3-2.1,0.8-3c0.5-0.9,1.2-1.7,2.1-2.3c0.9-0.7,2-1.2,3.2-1.5c1.3-0.4,2.6-0.5,4.1-0.5
					c1.3,0,2.5,0.1,3.8,0.3s2.4,0.5,3.4,0.9v-2.2c0-2.2-0.6-3.9-1.8-5.1s-2.9-1.9-5.1-1.9c-1.3,0-2.5,0.3-3.9,0.8
					c-1.3,0.5-2.6,1.2-4,2.2l-1.1-2.1c3.2-2.1,6.2-3.2,9.2-3.2c3.1,0,5.5,0.9,7.2,2.6c1.8,1.7,2.6,4.1,2.6,7.1v11
					c0,0.9,0.4,1.3,1.2,1.3v2.8c-0.5,0.1-0.9,0.1-1.2,0.1c-0.8,0-1.4-0.2-1.9-0.6c-0.5-0.4-0.7-1-0.7-1.7l-0.1-1.9
					c-1.1,1.5-2.5,2.6-4.3,3.4C17.5,290.1,15.7,290.5,13.7,290.5z M14.4,288c1.7,0,3.2-0.3,4.6-0.9s2.5-1.5,3.2-2.5
					c0.3-0.3,0.5-0.6,0.6-0.9s0.2-0.6,0.2-0.9v-4c-1.1-0.4-2.2-0.7-3.3-0.9s-2.3-0.3-3.5-0.3c-2.3,0-4.1,0.5-5.5,1.4
					s-2.1,2.2-2.1,3.7c0,0.8,0.1,1.5,0.4,2.1c0.3,0.7,0.7,1.2,1.2,1.7c0.5,0.5,1.1,0.9,1.9,1.2C12.9,287.9,13.6,288,14.4,288z
					 M45.4,288.8c-0.2,0.1-0.5,0.2-0.8,0.4c-0.4,0.2-0.8,0.3-1.2,0.5c-0.5,0.2-1,0.3-1.6,0.4s-1.2,0.2-1.9,0.2c-0.7,0-1.3-0.1-2-0.3
					s-1.2-0.5-1.6-0.9s-0.8-0.9-1.1-1.5s-0.4-1.3-0.4-2.1v-17.5h-3.4v-2.5h3.4v-8.3h3.2v8.3h5.6v2.5h-5.6v16.6c0.1,0.9,0.4,1.6,1,2
					s1.2,0.6,2,0.6c0.9,0,1.7-0.1,2.4-0.4c0.7-0.3,1.1-0.5,1.3-0.6L45.4,288.8z M63.4,290v-33.4h11.3c2.7,0,5,0.4,7,1.3
					c2,0.9,3.7,2.1,5,3.6c1.3,1.5,2.3,3.3,3,5.3c0.7,2,1,4.2,1,6.5c0,2.5-0.4,4.8-1.1,6.9c-0.8,2.1-1.8,3.8-3.2,5.3
					c-1.4,1.5-3.1,2.6-5,3.4c-2,0.8-4.2,1.2-6.6,1.2H63.4z M87.5,273.3c0-2-0.3-3.8-0.8-5.5c-0.6-1.7-1.4-3.1-2.5-4.3
					c-1.1-1.2-2.4-2.2-4-2.8c-1.6-0.7-3.4-1-5.4-1h-8v27.5h8c2.1,0,3.9-0.4,5.5-1.1c1.6-0.7,2.9-1.7,4-2.9s1.9-2.7,2.4-4.4
					C87.2,277.1,87.5,275.2,87.5,273.3z M107.7,290.5c-1.8,0-3.4-0.3-4.9-1c-1.5-0.7-2.8-1.6-3.9-2.8c-1.1-1.2-2-2.5-2.6-4.1
					s-0.9-3.2-0.9-4.9c0-1.7,0.3-3.3,0.9-4.9s1.5-2.9,2.5-4c1.1-1.1,2.4-2.1,3.9-2.7c1.5-0.7,3.1-1,4.9-1c1.8,0,3.4,0.3,4.9,1
					c1.5,0.7,2.8,1.6,3.8,2.7s1.9,2.5,2.5,4s0.9,3.1,0.9,4.8v0.8c0,0.3,0,0.4,0,0.5h-21c0.1,1.3,0.4,2.5,0.9,3.6
					c0.5,1.1,1.2,2.1,2,2.9c0.8,0.8,1.7,1.4,2.8,1.9c1,0.5,2.2,0.7,3.4,0.7c0.8,0,1.6-0.1,2.3-0.3s1.5-0.5,2.2-0.9
					c0.7-0.4,1.3-0.8,1.8-1.4s0.9-1.2,1.2-1.8l2.8,0.8c-0.4,0.9-0.9,1.7-1.6,2.5c-0.7,0.7-1.5,1.4-2.4,1.9c-0.9,0.5-1.9,1-3,1.3
					S108.9,290.5,107.7,290.5z M116.7,276.5c-0.1-1.3-0.4-2.5-0.9-3.6s-1.2-2-2-2.8c-0.8-0.8-1.7-1.4-2.8-1.8
					c-1-0.4-2.2-0.7-3.4-0.7s-2.3,0.2-3.4,0.7c-1.1,0.4-2,1-2.8,1.8c-0.8,0.8-1.4,1.7-1.9,2.8c-0.5,1.1-0.8,2.3-0.9,3.6H116.7z
					 M125.8,290v-33.4h21.9v2.9h-18.6v12.3h15.7v2.7h-15.7V290H125.8z M162.4,290.5c-1.8,0-3.4-0.3-4.9-1s-2.7-1.6-3.8-2.7
					c-1.1-1.2-1.9-2.5-2.5-4s-0.9-3.1-0.9-4.8c0-1.7,0.3-3.4,0.9-4.9s1.5-2.9,2.5-4c1.1-1.2,2.4-2.1,3.8-2.8s3.1-1,4.8-1
					s3.4,0.3,4.9,1s2.8,1.6,3.9,2.8c1.1,1.2,1.9,2.5,2.5,4s0.9,3.2,0.9,4.9c0,1.7-0.3,3.3-0.9,4.8s-1.4,2.9-2.5,4
					c-1.1,1.2-2.4,2.1-3.9,2.7S164.1,290.5,162.4,290.5z M153.5,277.9c0,1.4,0.2,2.7,0.7,3.8s1.1,2.2,1.9,3.1
					c0.8,0.9,1.7,1.6,2.8,2.1c1.1,0.5,2.2,0.8,3.5,0.8s2.4-0.3,3.5-0.8c1.1-0.5,2-1.2,2.8-2.1c0.8-0.9,1.5-1.9,1.9-3.1
					s0.7-2.5,0.7-3.9c0-1.3-0.2-2.6-0.7-3.8c-0.5-1.2-1.1-2.3-1.9-3.1c-0.8-0.9-1.8-1.6-2.8-2.1c-1.1-0.5-2.2-0.8-3.5-0.8
					s-2.4,0.3-3.4,0.8c-1.1,0.5-2,1.2-2.8,2.1c-0.8,0.9-1.5,2-1.9,3.2C153.7,275.2,153.5,276.5,153.5,277.9z M201.2,290H198v-13.7
					c0-2.9-0.4-5-1.3-6.3c-0.9-1.3-2.2-2-4-2c-0.9,0-1.9,0.2-2.8,0.5s-1.8,0.8-2.6,1.5c-0.8,0.6-1.5,1.4-2.1,2.2
					c-0.6,0.9-1.1,1.8-1.4,2.8v15h-3.2v-24.5h2.9v5.5c1-1.8,2.4-3.2,4.3-4.3c1.9-1.1,3.9-1.6,6.1-1.6c1.3,0,2.5,0.3,3.4,0.8
					c0.9,0.5,1.7,1.2,2.3,2.1c0.6,0.9,1,2,1.2,3.3c0.3,1.3,0.4,2.8,0.4,4.4V290z M220.2,288.8c-0.2,0.1-0.5,0.2-0.8,0.4
					c-0.4,0.2-0.8,0.3-1.2,0.5c-0.5,0.2-1,0.3-1.6,0.4s-1.2,0.2-1.9,0.2c-0.7,0-1.3-0.1-2-0.3c-0.6-0.2-1.2-0.5-1.6-0.9
					c-0.5-0.4-0.8-0.9-1.1-1.5s-0.4-1.3-0.4-2.1v-17.5h-3.4v-2.5h3.4v-8.3h3.2v8.3h5.6v2.5h-5.6v16.6c0.1,0.9,0.4,1.6,1,2
					s1.2,0.6,2,0.6c0.9,0,1.7-0.1,2.4-0.4c0.7-0.3,1.1-0.5,1.3-0.6L220.2,288.8z M238.2,290v-33.4h21.9v2.9h-18.6v12.3h15.7v2.7
					h-15.7V290H238.2z M268.1,290.5c-1.2,0-2.2-0.2-3.2-0.6s-1.8-0.9-2.6-1.6c-0.7-0.7-1.3-1.5-1.7-2.4c-0.4-0.9-0.6-1.9-0.6-3
					s0.3-2.1,0.8-3c0.5-0.9,1.2-1.7,2.1-2.3c0.9-0.7,2-1.2,3.2-1.5c1.3-0.4,2.6-0.5,4.1-0.5c1.3,0,2.5,0.1,3.8,0.3
					c1.3,0.2,2.4,0.5,3.4,0.9v-2.2c0-2.2-0.6-3.9-1.8-5.1c-1.2-1.3-2.9-1.9-5.1-1.9c-1.3,0-2.5,0.3-3.9,0.8c-1.3,0.5-2.6,1.2-4,2.2
					l-1.1-2.1c3.2-2.1,6.2-3.2,9.2-3.2c3.1,0,5.5,0.9,7.2,2.6c1.8,1.7,2.6,4.1,2.6,7.1v11c0,0.9,0.4,1.3,1.2,1.3v2.8
					c-0.5,0.1-0.9,0.1-1.2,0.1c-0.8,0-1.4-0.2-1.9-0.6s-0.7-1-0.7-1.7l-0.1-1.9c-1.1,1.5-2.5,2.6-4.3,3.4
					C271.9,290.1,270.1,290.5,268.1,290.5z M268.9,288c1.7,0,3.2-0.3,4.6-0.9c1.4-0.6,2.5-1.5,3.2-2.5c0.3-0.3,0.5-0.6,0.6-0.9
					s0.2-0.6,0.2-0.9v-4c-1.1-0.4-2.2-0.7-3.3-0.9s-2.3-0.3-3.5-0.3c-2.3,0-4.1,0.5-5.5,1.4s-2.1,2.2-2.1,3.7c0,0.8,0.1,1.5,0.4,2.1
					c0.3,0.7,0.7,1.2,1.2,1.7c0.5,0.5,1.1,0.9,1.9,1.2S268.1,288,268.9,288z M324.7,290h-3.2v-13.7c0-2.9-0.5-5-1.4-6.3
					c-0.9-1.3-2.3-2-4-2c-0.9,0-1.8,0.2-2.7,0.5c-0.8,0.3-1.6,0.8-2.3,1.5c-0.7,0.6-1.3,1.4-1.9,2.2c-0.5,0.9-0.9,1.8-1.2,2.8V290
					h-3.2v-13.7c0-2.9-0.4-5-1.3-6.3s-2.2-2-4-2c-1.8,0-3.5,0.6-4.9,1.9c-1.4,1.3-2.5,3-3.1,5.1v15h-3.2v-24.5h2.9v5.5
					c1-1.9,2.3-3.3,3.9-4.4c1.6-1,3.4-1.6,5.4-1.6c2.1,0,3.7,0.6,5,1.7c1.2,1.2,2,2.7,2.3,4.6c2.3-4.2,5.4-6.3,9.4-6.3
					c1.4,0,2.5,0.3,3.5,0.8c1,0.5,1.7,1.2,2.3,2.1c0.6,0.9,1,2,1.3,3.3c0.3,1.3,0.4,2.7,0.4,4.3V290z M332.2,290v-24.5h3.2V290
					H332.2z M332.2,260.4v-4.7h3.2v4.7H332.2z M343.3,255.7h3.2v28.8c0,0.9,0.3,1.6,0.8,2.1c0.5,0.5,1.2,0.8,2.1,0.8
					c0.3,0,0.8,0,1.2-0.1c0.5-0.1,0.9-0.2,1.3-0.4l0.6,2.6c-0.6,0.3-1.3,0.5-2.2,0.6c-0.9,0.2-1.6,0.2-2.2,0.2
					c-1.5,0-2.6-0.4-3.5-1.2c-0.8-0.8-1.3-2-1.3-3.5V255.7z M357.5,297.5c0.3,0,0.5,0.1,0.7,0.1c0.2,0,0.5,0,0.7,0
					c0.6,0,1-0.1,1.3-0.2s0.7-0.5,1-1c0.3-0.5,0.7-1.3,1.1-2.3c0.4-1,0.9-2.3,1.7-4l-10.7-24.5h3.3l9.1,21.5l8.4-21.5h3.1
					l-12.7,31.6c-0.3,0.9-0.9,1.7-1.7,2.4c-0.8,0.7-1.9,1-3.3,1c-0.3,0-0.6,0-0.9,0c-0.3,0-0.6-0.1-1-0.1V297.5z M394.3,290v-33.4
					h11.3c2.7,0,5,0.4,7,1.3c2,0.9,3.7,2.1,5,3.6c1.3,1.5,2.3,3.3,3,5.3c0.7,2,1,4.2,1,6.5c0,2.5-0.4,4.8-1.1,6.9
					c-0.8,2.1-1.8,3.8-3.2,5.3c-1.4,1.5-3.1,2.6-5,3.4c-2,0.8-4.2,1.2-6.6,1.2H394.3z M418.4,273.3c0-2-0.3-3.8-0.8-5.5
					c-0.6-1.7-1.4-3.1-2.5-4.3c-1.1-1.2-2.4-2.2-4-2.8c-1.6-0.7-3.4-1-5.4-1h-8v27.5h8c2.1,0,3.9-0.4,5.5-1.1c1.6-0.7,2.9-1.7,4-2.9
					s1.9-2.7,2.4-4.4C418.1,277.1,418.4,275.2,418.4,273.3z M438.6,290.5c-1.8,0-3.4-0.3-4.9-1s-2.8-1.6-3.9-2.8
					c-1.1-1.2-2-2.5-2.6-4.1c-0.6-1.5-0.9-3.2-0.9-4.9c0-1.7,0.3-3.3,0.9-4.9c0.6-1.5,1.5-2.9,2.5-4c1.1-1.1,2.4-2.1,3.9-2.7
					c1.5-0.7,3.1-1,4.9-1c1.8,0,3.4,0.3,4.9,1s2.8,1.6,3.8,2.7s1.9,2.5,2.5,4s0.9,3.1,0.9,4.8v0.8c0,0.3,0,0.4,0,0.5h-21
					c0.1,1.3,0.4,2.5,0.9,3.6s1.2,2.1,2,2.9c0.8,0.8,1.7,1.4,2.8,1.9c1,0.5,2.2,0.7,3.4,0.7c0.8,0,1.6-0.1,2.4-0.3
					c0.8-0.2,1.5-0.5,2.2-0.9c0.7-0.4,1.3-0.8,1.8-1.4c0.5-0.5,0.9-1.2,1.2-1.8l2.8,0.8c-0.4,0.9-0.9,1.7-1.6,2.5
					c-0.7,0.7-1.5,1.4-2.4,1.9c-0.9,0.5-1.9,1-3,1.3C440.9,290.3,439.8,290.5,438.6,290.5z M447.6,276.5c-0.1-1.3-0.4-2.5-0.9-3.6
					s-1.2-2-2-2.8c-0.8-0.8-1.7-1.4-2.8-1.8c-1-0.4-2.2-0.7-3.4-0.7s-2.3,0.2-3.4,0.7c-1.1,0.4-2,1-2.8,1.8
					c-0.8,0.8-1.4,1.7-1.9,2.8c-0.5,1.1-0.8,2.3-0.9,3.6H447.6z M476.9,290h-3.2v-13.7c0-2.9-0.4-5-1.3-6.3s-2.2-2-4-2
					c-0.9,0-1.9,0.2-2.8,0.5s-1.8,0.8-2.6,1.5c-0.8,0.6-1.5,1.4-2.1,2.2c-0.6,0.9-1.1,1.8-1.4,2.8v15h-3.2v-24.5h2.9v5.5
					c1-1.8,2.4-3.2,4.3-4.3c1.9-1.1,3.9-1.6,6.1-1.6c1.3,0,2.5,0.3,3.4,0.8c0.9,0.5,1.7,1.2,2.3,2.1s1,2,1.2,3.3s0.4,2.8,0.4,4.4
					V290z M495.9,288.8c-0.2,0.1-0.5,0.2-0.8,0.4c-0.4,0.2-0.8,0.3-1.2,0.5c-0.5,0.2-1,0.3-1.6,0.4s-1.2,0.2-1.9,0.2
					c-0.7,0-1.3-0.1-2-0.3c-0.6-0.2-1.2-0.5-1.6-0.9s-0.8-0.9-1.1-1.5s-0.4-1.3-0.4-2.1v-17.5h-3.4v-2.5h3.4v-8.3h3.2v8.3h5.6v2.5
					h-5.6v16.6c0.1,0.9,0.4,1.6,1,2c0.6,0.4,1.2,0.6,2,0.6c0.9,0,1.7-0.1,2.4-0.4s1.1-0.5,1.3-0.6L495.9,288.8z M506.7,290.5
					c-1.2,0-2.2-0.2-3.2-0.6s-1.8-0.9-2.6-1.6c-0.7-0.7-1.3-1.5-1.7-2.4c-0.4-0.9-0.6-1.9-0.6-3s0.3-2.1,0.8-3
					c0.5-0.9,1.2-1.7,2.1-2.3c0.9-0.7,2-1.2,3.2-1.5c1.3-0.4,2.6-0.5,4.1-0.5c1.3,0,2.5,0.1,3.8,0.3s2.4,0.5,3.4,0.9v-2.2
					c0-2.2-0.6-3.9-1.8-5.1s-2.9-1.9-5.1-1.9c-1.3,0-2.5,0.3-3.9,0.8c-1.3,0.5-2.6,1.2-4,2.2l-1.1-2.1c3.2-2.1,6.2-3.2,9.2-3.2
					c3.1,0,5.5,0.9,7.2,2.6c1.8,1.7,2.6,4.1,2.6,7.1v11c0,0.9,0.4,1.3,1.2,1.3v2.8c-0.5,0.1-0.9,0.1-1.2,0.1c-0.8,0-1.4-0.2-1.9-0.6
					s-0.7-1-0.7-1.7l-0.1-1.9c-1.1,1.5-2.5,2.6-4.3,3.4C510.6,290.1,508.7,290.5,506.7,290.5z M507.5,288c1.7,0,3.2-0.3,4.6-0.9
					s2.5-1.5,3.2-2.5c0.3-0.3,0.5-0.6,0.6-0.9c0.1-0.3,0.2-0.6,0.2-0.9v-4c-1.1-0.4-2.2-0.7-3.3-0.9c-1.1-0.2-2.3-0.3-3.5-0.3
					c-2.3,0-4.1,0.5-5.5,1.4c-1.4,0.9-2.1,2.2-2.1,3.7c0,0.8,0.1,1.5,0.4,2.1c0.3,0.7,0.7,1.2,1.2,1.7c0.5,0.5,1.1,0.9,1.9,1.2
					S506.7,288,507.5,288z M527,255.7h3.2v28.8c0,0.9,0.3,1.6,0.8,2.1s1.2,0.8,2.1,0.8c0.3,0,0.8,0,1.2-0.1c0.5-0.1,0.9-0.2,1.3-0.4
					l0.6,2.6c-0.6,0.3-1.3,0.5-2.2,0.6c-0.9,0.2-1.6,0.2-2.2,0.2c-1.5,0-2.6-0.4-3.5-1.2c-0.8-0.8-1.3-2-1.3-3.5V255.7z"/>
				<path id="smiles" class="st2" d="M45.3,232.7c-7.9,0-15.6-1.3-23.1-3.8c-7.5-2.6-13.9-6.3-19.2-11.2l11.1-19.5
					c5.6,3.8,11,6.7,16.2,8.7c5.2,2.1,9.9,3.1,14.3,3.1c4.6,0,6.8-1.4,6.8-4.3c0-1.6-0.9-3-2.7-4.1c-1.8-1.1-5.2-2.5-10.3-3.9
					c-6.4-1.8-11.7-3.6-16-5.4c-4.3-1.8-7.8-3.7-10.4-5.7c-2.7-2.1-4.6-4.3-5.7-6.8s-1.7-5.5-1.7-8.9c0-4.6,0.9-8.8,2.7-12.7
					c1.8-3.9,4.4-7.2,7.6-10.1c3.2-2.9,7.1-5,11.6-6.6c4.5-1.5,9.4-2.3,14.8-2.3c6.6,0,12.9,0.9,18.9,2.6c6,1.7,12,5.2,18,10.4
					L66,171.7c-5.6-3.6-10.3-6.2-14-7.8c-3.8-1.5-7.3-2.3-10.6-2.3c-1.9,0-3.5,0.4-4.8,1.1c-1.3,0.7-1.9,1.9-1.9,3.5
					c0,1.7,0.9,3.1,2.7,4.2c1.8,1.1,5.4,2.3,10.8,3.7c6.5,1.7,12,3.5,16.4,5.4s8,3.9,10.7,6.2s4.6,4.7,5.7,7.5s1.7,6,1.7,9.7
					c0,4.7-0.9,8.8-2.6,12.5c-1.7,3.6-4.2,6.8-7.4,9.4c-3.2,2.6-7.2,4.6-11.8,6C56.3,232,51.1,232.7,45.3,232.7z M238.9,231h-32.5
					v-50.6c0-4.4-0.9-7.7-2.7-9.7c-1.8-2-3.9-3-6.4-3c-2.6,0-5.4,1.2-8.3,3.6s-5,5.5-6.4,9.2V231h-32.5v-50.6c0-4.4-0.9-7.7-2.7-9.7
					s-3.9-3-6.4-3c-2.6,0-5.4,1.2-8.3,3.6c-2.9,2.4-5,5.5-6.4,9.2V231H93.9v-89.9h29.2v13.3c3.2-4.9,7.6-8.6,13.2-11.2
					s12.2-3.8,19.8-3.8c3.6,0,6.8,0.4,9.6,1.3c2.7,0.9,5.1,2,7.1,3.5s3.6,3.1,4.8,5s2.1,3.8,2.8,5.8c3.2-4.9,7.6-8.7,13.1-11.5
					c5.5-2.7,11.8-4.1,18.9-4.1c5.9,0,10.6,1.1,14.1,3.3s6.1,5,8,8.3c1.8,3.3,3,6.8,3.6,10.6c0.6,3.8,0.9,7.2,0.9,10.3V231z
					 M254.6,231v-89.9h32.5V231H254.6z M254.6,133.5v-27.4h32.5v27.4H254.6z M302.8,106.2h32.5v89.1c0,6.8,2.8,10.3,8.4,10.3
					c1.4,0,2.9-0.2,4.4-0.7c1.6-0.5,3.1-1.1,4.4-1.9l4.1,23.9c-3.9,1.8-8.2,3.2-13.1,4.3c-4.8,1-9.4,1.5-13.8,1.5
					c-8.7,0-15.3-2.2-20-6.7c-4.7-4.4-7-10.9-7-19.3V106.2z M408.5,232.7c-7.9,0-14.9-1.2-21-3.7c-6.2-2.5-11.3-5.8-15.5-10
					s-7.3-9.1-9.5-14.5c-2.2-5.5-3.2-11.2-3.2-17.3c0-6.5,1.1-12.7,3.2-18.5s5.2-10.9,9.4-15.2c4.2-4.3,9.3-7.8,15.4-10.3
					s13.2-3.8,21.3-3.8c8,0,15,1.3,21.2,3.8s11.3,6,15.5,10.3c4.2,4.3,7.3,9.2,9.4,14.9c2.1,5.6,3.2,11.5,3.2,17.7
					c0,1.7-0.1,3.4-0.3,5.2c-0.2,1.8-0.4,3.3-0.6,4.7h-63.1c0.3,4.8,2.1,8.2,5.3,10.3s6.7,3.2,10.4,3.2c3.5,0,6.9-0.8,10-2.4
					s5.2-3.8,6.2-6.7l27.5,7.9c-3.6,7.2-9.3,13.1-16.8,17.6C428.9,230.4,419.6,232.7,408.5,232.7z M422.9,176.5
					c-0.6-4.3-2.2-7.8-4.8-10.3c-2.6-2.5-6-3.8-10.1-3.8c-4.1,0-7.5,1.3-10.1,3.8c-2.6,2.5-4.2,5.9-4.8,10.3H422.9z M505.5,232.7
					c-7.9,0-15.6-1.3-23.1-3.8c-7.5-2.6-13.9-6.3-19.2-11.2l11.1-19.5c5.6,3.8,11,6.7,16.2,8.7c5.2,2.1,9.9,3.1,14.3,3.1
					c4.6,0,6.8-1.4,6.8-4.3c0-1.6-0.9-3-2.7-4.1c-1.8-1.1-5.2-2.5-10.3-3.9c-6.4-1.8-11.7-3.6-16-5.4c-4.3-1.8-7.8-3.7-10.4-5.7
					c-2.7-2.1-4.6-4.3-5.7-6.8s-1.7-5.5-1.7-8.9c0-4.6,0.9-8.8,2.7-12.7c1.8-3.9,4.4-7.2,7.6-10.1c3.2-2.9,7.1-5,11.6-6.6
					c4.5-1.5,9.4-2.3,14.8-2.3c6.6,0,12.9,0.9,18.9,2.6c6,1.7,12,5.2,18,10.4l-12.3,19.5c-5.6-3.6-10.3-6.2-14-7.8
					c-3.8-1.5-7.3-2.3-10.6-2.3c-1.9,0-3.5,0.4-4.8,1.1c-1.3,0.7-1.9,1.9-1.9,3.5c0,1.7,0.9,3.1,2.7,4.2c1.8,1.1,5.4,2.3,10.8,3.7
					c6.5,1.7,12,3.5,16.4,5.4c4.4,1.9,8,3.9,10.7,6.2s4.6,4.7,5.7,7.5c1.1,2.8,1.7,6,1.7,9.7c0,4.7-0.9,8.8-2.6,12.5
					c-1.7,3.6-4.2,6.8-7.4,9.4c-3.2,2.6-7.2,4.6-11.8,6C516.5,232,511.3,232.7,505.5,232.7z"/>
			</g>
		</g>
	</g>
</g>
</svg>
