<?xml version="1.0" encoding="UTF-8"?>
<svg width="540px" height="275px" viewBox="0 0 540 275" version="1.1" xmlns="http://www.w3.org/2000/svg" xmlns:xlink="http://www.w3.org/1999/xlink">
    <!-- Generator: Sketch 44.1 (41455) - http://www.bohemiancoding.com/sketch -->
    <title>Group 2</title>
    <desc>Created with Sketch.</desc>
    <defs></defs>
    <g id="Page-1" stroke="none" stroke-width="1" fill="none" fill-rule="evenodd">
        <g id="Desktop-HD" transform="translate(-154.000000, -169.000000)">
            <g id="slide1" transform="translate(-3.000000, 100.000000)">
                <g id="Group-2" transform="translate(154.000000, 43.000000)">
                    <path d="M35.5815959,36.5561683 C24.3495959,36.5561683 9.5295959,61.8281683 9.5295959,79.3781683 C9.5295959,87.1001683 12.6495959,94.4321683 20.5275959,94.4321683 C28.7955959,94.4321683 37.6095959,86.5541683 41.7435959,77.6621683 L42.8355959,78.4421683 C37.6095959,88.6601683 29.1075959,97.0841683 18.6555959,97.0841683 C7.5795959,97.0841683 3.2895959,87.5681683 3.2895959,78.0521683 C3.2895959,57.4601683 20.5275959,34.2161683 35.3475959,34.2161683 C39.5595959,34.2161683 42.5235959,36.0881683 42.5235959,40.9241683 C42.5235959,47.0081683 37.7655959,57.5381683 33.4755959,57.5381683 C32.6175959,57.5381683 31.6815959,57.0701683 31.0575959,55.7441683 C34.2555959,52.1561683 39.4035959,44.5121683 39.4035959,40.0661683 C39.4035959,37.9601683 38.2335959,36.5561683 35.5815959,36.5561683 Z M40.9635959,81.7181683 L40.2615959,80.3921683 C41.6655959,77.6621683 44.3175959,72.2021683 46.5795959,65.5721683 C46.1115959,65.1041683 45.7995959,64.4801683 45.7995959,63.7001683 C45.7995959,60.5801683 48.2175959,58.3961683 49.0755959,58.3961683 C50.1675959,58.3961683 50.1675959,59.7221683 50.1675959,60.2681683 C50.1675959,60.8141683 49.3095959,62.8421683 49.3095959,63.1541683 C49.3095959,66.0401683 57.2655959,67.3661683 57.2655959,73.9961683 C57.2655959,78.7541683 53.3655959,83.9021683 53.3655959,87.1781683 C53.3655959,89.0501683 54.4575959,89.5181683 55.7055959,89.5181683 C60.6195959,89.5181683 67.0155959,82.4201683 68.9655959,77.8961683 L69.9795959,78.6761683 C67.0155959,85.3061683 60.3075959,92.3261683 53.6775959,92.3261683 C50.1675959,92.3261683 47.9835959,90.2981683 47.9835959,87.2561683 C47.9835959,82.6541683 52.2735959,76.8041683 52.2735959,72.6701683 C52.2735959,69.3161683 49.8555959,68.1461683 47.9055959,66.7421683 C45.4875959,72.9041683 42.6015959,78.9101683 40.9635959,81.7181683 Z M90.9615959,66.9761683 C90.9615959,74.9321683 80.5095959,81.2501683 71.6175959,82.1081683 C71.3835959,83.1221683 71.3055959,84.1361683 71.3055959,84.9161683 C71.3055959,88.1141683 72.6315959,91.4681683 77.4675959,91.4681683 C84.0975959,91.4681683 91.0395959,85.1501683 94.9395959,77.6621683 L95.8755959,78.3641683 C91.6635959,87.7241683 83.5515959,93.7301683 75.8295959,93.7301683 C69.5115959,93.7301683 66.3135959,89.7521683 66.3135959,84.6821683 C66.3135959,75.4001683 76.9215959,62.2181683 86.1255959,62.2181683 C88.5435959,62.2181683 90.9615959,63.1541683 90.9615959,66.9761683 Z M85.8915959,64.6361683 C80.8995959,64.6361683 74.1135959,73.2161683 72.0075959,80.6261683 C77.5455959,78.6761683 87.5295959,73.1381683 87.5295959,66.4301683 C87.5295959,65.2601683 87.2175959,64.6361683 85.8915959,64.6361683 Z M115.297596,73.7621683 C116.233596,73.9181683 118.417596,74.5421683 118.417596,75.7121683 C118.417596,77.5061683 113.893596,82.8101683 113.893596,86.5541683 C113.893596,88.1141683 114.673596,89.9861683 116.545596,89.9861683 C119.353596,89.9861683 124.345596,85.9301683 129.025596,77.6621683 L129.805596,78.4421683 C126.529596,86.8661683 119.899596,92.6381683 114.361596,92.6381683 C110.539596,92.6381683 108.745596,89.9081683 108.745596,87.1781683 C108.745596,86.5541683 108.823596,85.7741683 108.979596,84.9161683 C104.455596,90.9221683 101.023596,93.9641683 97.2015959,93.9641683 C93.9255959,93.9641683 91.4295959,91.8581683 91.4295959,87.4901683 C91.4295959,78.2081683 102.895596,63.5441683 113.035596,63.5441683 C117.091596,63.5441683 120.133596,65.8841683 120.133596,69.3941683 C120.133596,71.9681683 118.573596,72.7481683 116.311596,72.7481683 C116.545596,71.8901683 116.701596,70.8761683 116.701596,70.0181683 C116.701596,67.6781683 115.687596,65.6501683 112.879596,65.6501683 C105.547596,65.6501683 96.8115959,80.1581683 96.8115959,87.7241683 C96.8115959,89.8301683 97.5135959,90.7661683 98.9175959,90.7661683 C103.753596,90.7661683 111.475596,79.3781683 115.297596,73.7621683 Z M151.255596,65.4161683 L151.255596,66.8201683 C145.561596,67.4441683 141.037596,67.7561683 137.527596,67.7561683 L136.357596,67.7561683 C133.939596,73.2941683 132.067596,79.2221683 132.067596,84.7601683 C132.067596,89.2841683 133.315596,91.0001683 136.435596,91.0001683 C141.817596,91.0001683 147.277596,85.8521683 151.255596,77.6621683 L152.269596,78.4421683 C148.525596,87.2561683 141.505596,93.8861683 134.173596,93.8861683 C129.649596,93.8861683 127.231596,91.3121683 127.231596,86.1641683 C127.231596,81.5621683 129.103596,74.4641683 131.755596,67.3661683 C130.741596,67.2101683 129.805596,67.0541683 128.947596,66.7421683 L128.947596,65.3381683 C129.727596,65.4161683 130.897596,65.5721683 132.379596,65.6501683 C136.747596,54.4181683 142.753596,43.7321683 145.951596,43.7321683 C146.731596,43.7321683 147.589596,44.3561683 147.589596,45.4481683 C147.589596,48.1781683 141.739596,56.2901683 137.215596,65.8841683 L140.101596,65.8841683 C143.533596,65.8841683 147.355596,65.8061683 151.255596,65.4161683 Z M160.693596,63.8561683 C161.629596,63.8561683 162.409596,64.4801683 162.409596,65.5721683 C162.409596,68.1461683 154.297596,77.5841683 154.297596,84.9161683 C154.297596,88.6601683 155.545596,89.5961683 158.119596,89.5961683 C161.629596,89.5961683 165.685596,86.5541683 170.131596,77.6621683 L170.833596,78.4421683 C167.791596,87.4121683 161.551596,92.3261683 155.467596,92.3261683 C151.411596,92.3261683 149.461596,89.4401683 149.461596,85.7741683 C149.461596,79.8461683 155.389596,63.8561683 160.693596,63.8561683 Z M164.827596,56.6021683 C167.323596,56.6021683 169.897596,54.3401683 169.897596,52.3901683 C169.897596,50.5961683 168.883596,49.9721683 167.323596,49.9721683 C164.827596,49.9721683 161.629596,51.8441683 161.629596,54.0281683 C161.629596,55.8221683 163.111596,56.6021683 164.827596,56.6021683 Z M165.763596,89.7521683 C165.763596,88.8161683 171.223596,77.3501683 171.301596,70.5641683 C171.925596,69.8621683 173.407596,68.9261683 174.889596,68.9261683 C176.293596,68.9261683 176.995596,69.7061683 176.995596,70.9541683 C176.995596,72.5921683 175.903596,76.9601683 174.499596,81.2501683 C178.633596,74.9321683 184.795596,67.5221683 190.723596,67.5221683 C194.779596,67.5221683 196.495596,71.0321683 196.495596,74.5421683 C196.495596,79.3781683 193.297596,83.0441683 193.297596,86.8661683 C193.297596,89.0501683 194.311596,89.8301683 195.637596,89.8301683 C199.537596,89.8301683 203.671596,83.4341683 206.557596,77.6621683 L207.415596,78.6761683 C204.139596,86.3201683 199.771596,91.8581683 193.921596,91.8581683 C190.255596,91.8581683 188.461596,89.7521683 188.461596,86.8661683 C188.461596,83.6681683 190.723596,79.6901683 190.723596,76.0241683 C190.723596,73.1381683 189.397596,72.2021683 187.603596,72.2021683 C181.129596,72.2021683 173.953596,84.6041683 169.897596,91.4681683 C168.259596,91.4681683 166.621596,90.9221683 165.763596,89.7521683 Z M228.163596,67.2881683 C227.617596,66.5081683 226.603596,66.1181683 225.043596,66.1181683 C216.853596,66.1181683 209.365596,77.2721683 209.365596,83.8241683 C209.365596,86.3201683 210.457596,87.6461683 212.095596,87.6461683 C215.059596,87.6461683 219.661596,83.0441683 223.639596,77.3501683 L224.575596,73.2161683 C224.887596,71.7341683 225.979596,69.2381683 228.553596,69.2381683 C229.021596,69.2381683 229.567596,69.3161683 230.191596,69.4721683 C230.191596,72.0461683 227.773596,81.5621683 224.185596,90.8441683 C229.255596,88.4261683 234.559596,83.5901683 236.899596,77.6621683 L237.913596,78.4421683 C235.495596,85.4621683 228.163596,90.7661683 223.327596,93.1061683 C218.959596,103.636168 213.967596,112.138168 208.117596,112.138168 C205.855596,112.138168 203.593596,110.812168 203.593596,107.614168 C203.593596,101.296168 212.251596,97.1621683 218.803596,93.8861683 C220.207596,90.2981683 221.533596,86.0861683 222.781596,81.0161683 C218.803596,86.7101683 214.435596,91.0001683 210.067596,91.0001683 C206.323596,91.0001683 204.217596,87.9581683 204.217596,83.4341683 C204.217596,72.5921683 216.463596,63.2321683 224.887596,63.2321683 C227.851596,63.2321683 229.099596,64.4021683 229.099596,65.7281683 C229.099596,66.6641683 228.397596,67.2101683 228.163596,67.2881683 Z M207.883596,109.642168 C209.911596,109.642168 213.811596,105.976168 217.945596,95.9921683 C211.783596,99.1121683 206.011596,102.466168 206.011596,106.912168 C206.011596,108.550168 206.791596,109.642168 207.883596,109.642168 Z M291.733596,97.0841683 C291.655596,94.9781683 291.421596,93.1061683 291.421596,91.0001683 C291.421596,87.2561683 292.201596,82.3421683 296.179596,71.9681683 L296.725596,69.4721683 C293.215596,68.6141683 287.911596,65.8061683 283.543596,65.8061683 C280.813596,65.8061683 278.941596,66.8981683 278.239596,69.8621683 C280.189596,69.8621683 281.593596,69.7841683 282.997596,69.7841683 C285.025596,69.7841683 287.209596,69.9401683 291.031596,70.7981683 C290.251596,81.0161683 283.621596,94.4321683 275.431596,94.4321683 C269.425596,94.4321683 264.979596,88.7381683 264.979596,79.3001683 C264.979596,61.9841683 279.799596,36.5561683 291.031596,36.5561683 C294.463596,36.5561683 295.711596,38.3501683 295.711596,40.6901683 C295.711596,44.9021683 291.811596,51.0641683 289.627596,52.6241683 C290.251596,53.9501683 291.187596,54.4181683 292.045596,54.4181683 C295.789596,54.4181683 298.909596,48.4901683 298.909596,43.0301683 C298.909596,38.4281683 296.725596,34.2161683 290.797596,34.2161683 C275.977596,34.2161683 258.739596,57.6941683 258.739596,77.7401683 C258.739596,89.9861683 265.135596,97.0841683 273.325596,97.0841683 C279.487596,97.0841683 284.323596,93.1061683 288.067596,87.8801683 C287.677596,89.2061683 287.521596,90.3761683 287.521596,91.4681683 C287.521596,94.2761683 289.159596,96.0701683 291.733596,97.0841683 Z M300.235596,81.7181683 L299.533596,80.3921683 C300.937596,77.6621683 303.589596,72.2021683 305.851596,65.5721683 C305.383596,65.1041683 305.071596,64.4801683 305.071596,63.7001683 C305.071596,60.5801683 307.489596,58.3961683 308.347596,58.3961683 C309.439596,58.3961683 309.439596,59.7221683 309.439596,60.2681683 C309.439596,60.8141683 308.581596,62.8421683 308.581596,63.1541683 C308.581596,66.0401683 316.537596,67.3661683 316.537596,73.9961683 C316.537596,78.7541683 312.637596,83.9021683 312.637596,87.1781683 C312.637596,89.0501683 313.729596,89.5181683 314.977596,89.5181683 C319.891596,89.5181683 326.287596,82.4201683 328.237596,77.8961683 L329.251596,78.6761683 C326.287596,85.3061683 319.579596,92.3261683 312.949596,92.3261683 C309.439596,92.3261683 307.255596,90.2981683 307.255596,87.2561683 C307.255596,82.6541683 311.545596,76.8041683 311.545596,72.6701683 C311.545596,69.3161683 309.127596,68.1461683 307.177596,66.7421683 C304.759596,72.9041683 301.873596,78.9101683 300.235596,81.7181683 Z M350.233596,66.9761683 C350.233596,74.9321683 339.781596,81.2501683 330.889596,82.1081683 C330.655596,83.1221683 330.577596,84.1361683 330.577596,84.9161683 C330.577596,88.1141683 331.903596,91.4681683 336.739596,91.4681683 C343.369596,91.4681683 350.311596,85.1501683 354.211596,77.6621683 L355.147596,78.3641683 C350.935596,87.7241683 342.823596,93.7301683 335.101596,93.7301683 C328.783596,93.7301683 325.585596,89.7521683 325.585596,84.6821683 C325.585596,75.4001683 336.193596,62.2181683 345.397596,62.2181683 C347.815596,62.2181683 350.233596,63.1541683 350.233596,66.9761683 Z M345.163596,64.6361683 C340.171596,64.6361683 333.385596,73.2161683 331.279596,80.6261683 C336.817596,78.6761683 346.801596,73.1381683 346.801596,66.4301683 C346.801596,65.2601683 346.489596,64.6361683 345.163596,64.6361683 Z M374.569596,73.7621683 C375.505596,73.9181683 377.689596,74.5421683 377.689596,75.7121683 C377.689596,77.5061683 373.165596,82.8101683 373.165596,86.5541683 C373.165596,88.1141683 373.945596,89.9861683 375.817596,89.9861683 C378.625596,89.9861683 383.617596,85.9301683 388.297596,77.6621683 L389.077596,78.4421683 C385.801596,86.8661683 379.171596,92.6381683 373.633596,92.6381683 C369.811596,92.6381683 368.017596,89.9081683 368.017596,87.1781683 C368.017596,86.5541683 368.095596,85.7741683 368.251596,84.9161683 C363.727596,90.9221683 360.295596,93.9641683 356.473596,93.9641683 C353.197596,93.9641683 350.701596,91.8581683 350.701596,87.4901683 C350.701596,78.2081683 362.167596,63.5441683 372.307596,63.5441683 C376.363596,63.5441683 379.405596,65.8841683 379.405596,69.3941683 C379.405596,71.9681683 377.845596,72.7481683 375.583596,72.7481683 C375.817596,71.8901683 375.973596,70.8761683 375.973596,70.0181683 C375.973596,67.6781683 374.959596,65.6501683 372.151596,65.6501683 C364.819596,65.6501683 356.083596,80.1581683 356.083596,87.7241683 C356.083596,89.8301683 356.785596,90.7661683 358.189596,90.7661683 C363.025596,90.7661683 370.747596,79.3781683 374.569596,73.7621683 Z M410.527596,65.4161683 L410.527596,66.8201683 C404.833596,67.4441683 400.309596,67.7561683 396.799596,67.7561683 L395.629596,67.7561683 C393.211596,73.2941683 391.339596,79.2221683 391.339596,84.7601683 C391.339596,89.2841683 392.587596,91.0001683 395.707596,91.0001683 C401.089596,91.0001683 406.549596,85.8521683 410.527596,77.6621683 L411.541596,78.4421683 C407.797596,87.2561683 400.777596,93.8861683 393.445596,93.8861683 C388.921596,93.8861683 386.503596,91.3121683 386.503596,86.1641683 C386.503596,81.5621683 388.375596,74.4641683 391.027596,67.3661683 C390.013596,67.2101683 389.077596,67.0541683 388.219596,66.7421683 L388.219596,65.3381683 C388.999596,65.4161683 390.169596,65.5721683 391.651596,65.6501683 C396.019596,54.4181683 402.025596,43.7321683 405.223596,43.7321683 C406.003596,43.7321683 406.861596,44.3561683 406.861596,45.4481683 C406.861596,48.1781683 401.011596,56.2901683 396.487596,65.8841683 L399.373596,65.8841683 C402.805596,65.8841683 406.627596,65.8061683 410.527596,65.4161683 Z" id="Creating-Great" fill="#28A19E" transform="translate(207.415596, 73.177168) rotate(-5.000000) translate(-207.415596, -73.177168) "></path>
                    <path d="M13.682,290.47 C12.5226609,290.47 11.4495049,290.274169 10.4625,289.8825 C9.47549507,289.490831 8.61383702,288.950337 7.8775,288.261 C7.14116299,287.571663 6.56933537,286.764838 6.162,285.8405 C5.75466463,284.916162 5.551,283.921339 5.551,282.856 C5.551,281.790661 5.80166416,280.803671 6.303,279.895 C6.80433584,278.986329 7.50932879,278.203003 8.418,277.545 C9.32667121,276.886997 10.4076604,276.377835 11.661,276.0175 C12.9143396,275.657165 14.2929925,275.477 15.797,275.477 C17.0503396,275.477 18.3193269,275.586666 19.604,275.806 C20.8886731,276.025334 22.0323283,276.338665 23.035,276.746 L23.035,274.537 C23.035,272.374989 22.4240061,270.659506 21.202,269.3905 C19.9799939,268.121494 18.2880108,267.487 16.126,267.487 C14.8726604,267.487 13.5880066,267.737664 12.272,268.239 C10.9559934,268.740336 9.62434007,269.460995 8.277,270.401 L7.149,268.286 C10.3136825,266.155323 13.3843184,265.09 16.361,265.09 C19.431682,265.09 21.8443246,265.951658 23.599,267.675 C25.3536754,269.398342 26.231,271.779651 26.231,274.819 L26.231,285.864 C26.231,286.741338 26.6226628,287.18 27.406,287.18 L27.406,290 C26.8733307,290.094 26.4660014,290.141 26.184,290.141 C25.3693293,290.141 24.7348356,289.937335 24.2805,289.53 C23.8261644,289.122665 23.5833335,288.55867 23.552,287.838 L23.458,285.911 C22.3299944,287.383674 20.9121752,288.511663 19.2045,289.295 C17.4968248,290.078337 15.6560099,290.47 13.682,290.47 Z M14.434,288.026 C16.094675,288.026 17.6221597,287.71267 19.0165,287.086 C20.4108403,286.45933 21.4683297,285.629005 22.189,284.595 C22.4710014,284.312999 22.6824993,284.007502 22.8235,283.6785 C22.9645007,283.349498 23.035,283.044001 23.035,282.762 L23.035,278.767 C21.9696613,278.359665 20.8651724,278.046334 19.7215,277.827 C18.5778276,277.607666 17.4106726,277.498 16.22,277.498 C13.9639887,277.498 12.1310071,277.967995 10.721,278.908 C9.31099295,279.848005 8.606,281.085659 8.606,282.621 C8.606,283.373004 8.75483185,284.077997 9.0525,284.736 C9.35016815,285.394003 9.75749741,285.965831 10.2745,286.4515 C10.7915026,286.937169 11.4103297,287.320999 12.131,287.603 C12.8516703,287.885001 13.6193293,288.026 14.434,288.026 Z M45.402,288.825 C45.213999,288.919 44.9398351,289.044333 44.5795,289.201 C44.2191649,289.357667 43.8040023,289.514333 43.334,289.671 C42.8639976,289.827667 42.3313363,289.968666 41.736,290.094 C41.1406637,290.219334 40.5140033,290.282 39.856,290.282 C39.1666632,290.282 38.5086698,290.188001 37.882,290 C37.2553302,289.811999 36.7070023,289.522169 36.237,289.1305 C35.7669976,288.738831 35.3910014,288.245336 35.109,287.65 C34.8269986,287.054664 34.686,286.365337 34.686,285.582 L34.686,268.051 L31.302,268.051 L31.302,265.513 L34.686,265.513 L34.686,257.241 L37.882,257.241 L37.882,265.513 L43.522,265.513 L43.522,268.051 L37.882,268.051 L37.882,284.689 C37.944667,285.597671 38.2658304,286.263498 38.8455,286.6865 C39.4251696,287.109502 40.0909962,287.321 40.843,287.321 C41.7516712,287.321 42.5506632,287.172168 43.24,286.8745 C43.9293368,286.576832 44.367999,286.365334 44.556,286.24 L45.402,288.825 Z M63.44,290 L63.44,256.63 L74.767,256.63 C77.4303466,256.63 79.7568233,257.068662 81.7465,257.946 C83.7361766,258.823338 85.3968266,260.013992 86.7285,261.518 C88.0601733,263.022008 89.0628299,264.78449 89.7365,266.8055 C90.41017,268.82651 90.747,270.980655 90.747,273.268 C90.747,275.806013 90.3710037,278.101156 89.619,280.1535 C88.8669962,282.205844 87.7938403,283.960493 86.3995,285.4175 C85.0051597,286.874507 83.3288431,288.002496 81.3705,288.8015 C79.4121568,289.600504 77.2110122,290 74.767,290 L63.44,290 Z M87.457,273.268 C87.457,271.262657 87.1750028,269.421842 86.611,267.7455 C86.0469971,266.069158 85.2245054,264.620006 84.1435,263.398 C83.0624946,262.175994 81.7386745,261.22817 80.172,260.5545 C78.6053255,259.88083 76.8036768,259.544 74.767,259.544 L66.73,259.544 L66.73,287.086 L74.767,287.086 C76.8350103,287.086 78.6601587,286.733504 80.2425,286.0285 C81.8248412,285.323496 83.1486613,284.352173 84.214,283.1145 C85.2793386,281.876827 86.0861639,280.419842 86.6345,278.7435 C87.182836,277.067158 87.457,275.24201 87.457,273.268 Z M107.662,290.47 C105.875991,290.47 104.238841,290.13317 102.7505,289.4595 C101.262159,288.78583 99.9696721,287.861506 98.873,286.6865 C97.7763278,285.511494 96.922503,284.156341 96.3115,282.621 C95.7004969,281.085659 95.395,279.440675 95.395,277.686 C95.395,275.962658 95.7004969,274.341174 96.3115,272.8215 C96.922503,271.301826 97.7684945,269.970172 98.8495,268.8265 C99.9305054,267.682828 101.222992,266.77417 102.727,266.1005 C104.231007,265.42683 105.860325,265.09 107.615,265.09 C109.401009,265.09 111.038159,265.42683 112.5265,266.1005 C114.014841,266.77417 115.291661,267.690661 116.357,268.85 C117.422339,270.009339 118.252664,271.340992 118.848,272.845 C119.443336,274.349008 119.741,275.946992 119.741,277.639 L119.741,278.391 C119.741,278.641668 119.725333,278.814 119.694,278.908 L98.732,278.908 C98.8260004,280.224007 99.1314974,281.438161 99.6485,282.5505 C100.165503,283.662839 100.831329,284.626329 101.646,285.441 C102.460671,286.255671 103.392828,286.890164 104.4425,287.3445 C105.492172,287.798836 106.612327,288.026 107.803,288.026 C108.586337,288.026 109.369663,287.916334 110.153,287.697 C110.936337,287.477666 111.656997,287.180002 112.315,286.804 C112.973003,286.427998 113.568331,285.965836 114.101,285.4175 C114.633669,284.869164 115.040999,284.266003 115.323,283.608 L118.096,284.36 C117.719998,285.268671 117.187337,286.091163 116.498,286.8275 C115.808663,287.563837 115.009671,288.206164 114.101,288.7545 C113.192329,289.302836 112.189672,289.725832 111.093,290.0235 C109.996328,290.321168 108.852673,290.47 107.662,290.47 Z M116.686,276.464 C116.591999,275.147993 116.286503,273.949505 115.7695,272.8685 C115.252497,271.787495 114.594504,270.855337 113.7955,270.072 C112.996496,269.288663 112.072172,268.677669 111.0225,268.239 C109.972828,267.800331 108.852673,267.581 107.662,267.581 C106.471327,267.581 105.343339,267.800331 104.278,268.239 C103.212661,268.677669 102.280504,269.288663 101.4815,270.072 C100.682496,270.855337 100.040169,271.795328 99.5545,272.892 C99.0688309,273.988672 98.7790004,275.179327 98.685,276.464 L116.686,276.464 Z M125.799,290 L125.799,256.63 L147.701,256.63 L147.701,259.544 L129.089,259.544 L129.089,271.811 L144.787,271.811 L144.787,274.537 L129.089,274.537 L129.089,290 L125.799,290 Z M162.36,290.47 C160.573991,290.47 158.944674,290.13317 157.472,289.4595 C155.999326,288.78583 154.722505,287.869339 153.6415,286.71 C152.560495,285.550661 151.722336,284.203341 151.127,282.668 C150.531664,281.132659 150.234,279.519008 150.234,277.827 C150.234,276.103658 150.539497,274.474341 151.1505,272.939 C151.761503,271.403659 152.607495,270.056339 153.6885,268.897 C154.769505,267.737661 156.046326,266.813337 157.519,266.124 C158.991674,265.434663 160.605324,265.09 162.36,265.09 C164.114675,265.09 165.736159,265.434663 167.2245,266.124 C168.712841,266.813337 169.997495,267.737661 171.0785,268.897 C172.159505,270.056339 173.005497,271.403659 173.6165,272.939 C174.227503,274.474341 174.533,276.103658 174.533,277.827 C174.533,279.519008 174.235336,281.132659 173.64,282.668 C173.044664,284.203341 172.206505,285.550661 171.1255,286.71 C170.044495,287.869339 168.759841,288.78583 167.2715,289.4595 C165.783159,290.13317 164.146009,290.47 162.36,290.47 Z M153.477,277.874 C153.477,279.252674 153.711998,280.529494 154.182,281.7045 C154.652002,282.879506 155.286496,283.913496 156.0855,284.8065 C156.884504,285.699504 157.824495,286.396664 158.9055,286.898 C159.986505,287.399336 161.137994,287.65 162.36,287.65 C163.582006,287.65 164.733495,287.391503 165.8145,286.8745 C166.895505,286.357497 167.843329,285.652504 168.658,284.7595 C169.472671,283.866496 170.114998,282.824673 170.585,281.634 C171.055002,280.443327 171.29,279.158674 171.29,277.78 C171.29,276.43266 171.055002,275.155839 170.585,273.9495 C170.114998,272.743161 169.472671,271.693504 168.658,270.8005 C167.843329,269.907496 166.895505,269.202503 165.8145,268.6855 C164.733495,268.168497 163.582006,267.91 162.36,267.91 C161.137994,267.91 159.994339,268.168497 158.929,268.6855 C157.863661,269.202503 156.923671,269.915329 156.109,270.824 C155.294329,271.732671 154.652002,272.790161 154.182,273.9965 C153.711998,275.202839 153.477,276.495326 153.477,277.874 Z M201.177,290 L197.981,290 L197.981,276.323 C197.981,273.408985 197.550171,271.294007 196.6885,269.978 C195.826829,268.661993 194.503009,268.004 192.717,268.004 C191.776995,268.004 190.837005,268.176332 189.897,268.521 C188.956995,268.865668 188.087504,269.35133 187.2885,269.978 C186.489496,270.60467 185.77667,271.348829 185.15,272.2105 C184.52333,273.072171 184.069001,274.004328 183.787,275.007 L183.787,290 L180.591,290 L180.591,265.513 L183.505,265.513 L183.505,271.059 C184.507672,269.272991 185.941157,267.831672 187.8055,266.735 C189.669843,265.638328 191.698656,265.09 193.892,265.09 C195.23934,265.09 196.382995,265.340664 197.323,265.842 C198.263005,266.343336 199.014997,267.048329 199.579,267.957 C200.143003,268.865671 200.550332,269.977993 200.801,271.294 C201.051668,272.610007 201.177,274.066992 201.177,275.665 L201.177,290 Z M220.207,288.825 C220.018999,288.919 219.744835,289.044333 219.3845,289.201 C219.024165,289.357667 218.609002,289.514333 218.139,289.671 C217.668998,289.827667 217.136336,289.968666 216.541,290.094 C215.945664,290.219334 215.319003,290.282 214.661,290.282 C213.971663,290.282 213.31367,290.188001 212.687,290 C212.06033,289.811999 211.512002,289.522169 211.042,289.1305 C210.571998,288.738831 210.196001,288.245336 209.914,287.65 C209.631998,287.054664 209.491,286.365337 209.491,285.582 L209.491,268.051 L206.107,268.051 L206.107,265.513 L209.491,265.513 L209.491,257.241 L212.687,257.241 L212.687,265.513 L218.327,265.513 L218.327,268.051 L212.687,268.051 L212.687,284.689 C212.749667,285.597671 213.07083,286.263498 213.6505,286.6865 C214.230169,287.109502 214.895996,287.321 215.648,287.321 C216.556671,287.321 217.355663,287.172168 218.045,286.8745 C218.734337,286.576832 219.172999,286.365334 219.361,286.24 L220.207,288.825 Z M238.245,290 L238.245,256.63 L260.147,256.63 L260.147,259.544 L241.535,259.544 L241.535,271.811 L257.233,271.811 L257.233,274.537 L241.535,274.537 L241.535,290 L238.245,290 Z M268.132,290.47 C266.972661,290.47 265.899505,290.274169 264.9125,289.8825 C263.925495,289.490831 263.063837,288.950337 262.3275,288.261 C261.591163,287.571663 261.019335,286.764838 260.612,285.8405 C260.204664,284.916162 260.001,283.921339 260.001,282.856 C260.001,281.790661 260.251664,280.803671 260.753,279.895 C261.254336,278.986329 261.959329,278.203003 262.868,277.545 C263.776671,276.886997 264.85766,276.377835 266.111,276.0175 C267.364339,275.657165 268.742992,275.477 270.247,275.477 C271.500339,275.477 272.769327,275.586666 274.054,275.806 C275.338673,276.025334 276.482328,276.338665 277.485,276.746 L277.485,274.537 C277.485,272.374989 276.874006,270.659506 275.652,269.3905 C274.429994,268.121494 272.738011,267.487 270.576,267.487 C269.32266,267.487 268.038006,267.737664 266.722,268.239 C265.405993,268.740336 264.07434,269.460995 262.727,270.401 L261.599,268.286 C264.763682,266.155323 267.834318,265.09 270.811,265.09 C273.881682,265.09 276.294324,265.951658 278.049,267.675 C279.803675,269.398342 280.681,271.779651 280.681,274.819 L280.681,285.864 C280.681,286.741338 281.072663,287.18 281.856,287.18 L281.856,290 C281.323331,290.094 280.916001,290.141 280.634,290.141 C279.819329,290.141 279.184835,289.937335 278.7305,289.53 C278.276164,289.122665 278.033333,288.55867 278.002,287.838 L277.908,285.911 C276.779994,287.383674 275.362175,288.511663 273.6545,289.295 C271.946825,290.078337 270.10601,290.47 268.132,290.47 Z M268.884,288.026 C270.544675,288.026 272.07216,287.71267 273.4665,287.086 C274.86084,286.45933 275.91833,285.629005 276.639,284.595 C276.921001,284.312999 277.132499,284.007502 277.2735,283.6785 C277.414501,283.349498 277.485,283.044001 277.485,282.762 L277.485,278.767 C276.419661,278.359665 275.315172,278.046334 274.1715,277.827 C273.027827,277.607666 271.860672,277.498 270.67,277.498 C268.413989,277.498 266.581007,277.967995 265.171,278.908 C263.760993,279.848005 263.056,281.085659 263.056,282.621 C263.056,283.373004 263.204832,284.077997 263.5025,284.736 C263.800168,285.394003 264.207497,285.965831 264.7245,286.4515 C265.241502,286.937169 265.86033,287.320999 266.581,287.603 C267.30167,287.885001 268.069329,288.026 268.884,288.026 Z M324.715,290 L321.519,290 L321.519,276.323 C321.519,273.471652 321.064671,271.37234 320.156,270.025 C319.247329,268.67766 317.900009,268.004 316.114,268.004 C315.173995,268.004 314.288837,268.176332 313.4585,268.521 C312.628162,268.865668 311.860503,269.35133 311.1555,269.978 C310.450496,270.60467 309.831669,271.348829 309.299,272.2105 C308.766331,273.072171 308.359001,274.019995 308.077,275.054 L308.077,290 L304.881,290 L304.881,276.323 C304.881,273.408985 304.442338,271.294007 303.565,269.978 C302.687662,268.661993 301.340342,268.004 299.523,268.004 C297.674324,268.004 296.02934,268.646327 294.588,269.931 C293.146659,271.215673 292.11267,272.907656 291.486,275.007 L291.486,290 L288.29,290 L288.29,265.513 L291.204,265.513 L291.204,271.059 C292.206672,269.178991 293.522658,267.714172 295.152,266.6645 C296.781341,265.614828 298.58299,265.09 300.557,265.09 C302.62501,265.09 304.277827,265.669661 305.5155,266.829 C306.753173,267.988339 307.512998,269.507991 307.795,271.388 C310.082345,267.189312 313.231313,265.09 317.242,265.09 C318.620673,265.09 319.787828,265.340664 320.7435,265.842 C321.699171,266.343336 322.46683,267.056162 323.0465,267.9805 C323.626169,268.904838 324.049165,270.01716 324.3155,271.3175 C324.581835,272.61784 324.715,274.066992 324.715,275.665 L324.715,290 Z M332.183,290 L332.183,265.513 L335.379,265.513 L335.379,290 L332.183,290 Z M332.183,260.39 L332.183,255.69 L335.379,255.69 L335.379,260.39 L332.183,260.39 Z M343.27,255.69 L346.466,255.69 L346.466,284.454 C346.466,285.362671 346.716664,286.075497 347.218,286.5925 C347.719336,287.109503 348.424329,287.368 349.333,287.368 C349.677668,287.368 350.084997,287.321 350.555,287.227 C351.025002,287.133 351.463664,287.007667 351.871,286.851 L352.435,289.436 C351.839664,289.686668 351.111171,289.890333 350.2495,290.047 C349.387829,290.203667 348.64367,290.282 348.017,290.282 C346.544326,290.282 345.385004,289.866837 344.539,289.0365 C343.692996,288.206163 343.27,287.039008 343.27,285.535 L343.27,255.69 Z M357.506,297.52 C357.756668,297.551333 357.999499,297.574833 358.2345,297.5905 C358.469501,297.606167 358.696665,297.614 358.916,297.614 C359.480003,297.614 359.926498,297.535667 360.2555,297.379 C360.584501,297.222333 360.905665,296.877669 361.219,296.345 C361.532335,295.812331 361.884831,295.044672 362.2765,294.042 C362.668168,293.039328 363.22433,291.692008 363.945,290 L353.276,265.513 L356.566,265.513 L365.637,287.039 L374.05,265.513 L377.105,265.513 L364.415,297.097 C364.070331,298.005671 363.498504,298.79683 362.6995,299.4705 C361.900496,300.14417 360.811673,300.481 359.433,300.481 C359.119665,300.481 358.822001,300.473167 358.54,300.4575 C358.257998,300.441833 357.913335,300.402667 357.506,300.34 L357.506,297.52 Z M394.344,290 L394.344,256.63 L405.671,256.63 C408.334346,256.63 410.660823,257.068662 412.6505,257.946 C414.640176,258.823338 416.300826,260.013992 417.6325,261.518 C418.964173,263.022008 419.96683,264.78449 420.6405,266.8055 C421.31417,268.82651 421.651,270.980655 421.651,273.268 C421.651,275.806013 421.275004,278.101156 420.523,280.1535 C419.770996,282.205844 418.69784,283.960493 417.3035,285.4175 C415.909159,286.874507 414.232843,288.002496 412.2745,288.8015 C410.316157,289.600504 408.115012,290 405.671,290 L394.344,290 Z M418.361,273.268 C418.361,271.262657 418.079003,269.421842 417.515,267.7455 C416.950997,266.069158 416.128505,264.620006 415.0475,263.398 C413.966494,262.175994 412.642674,261.22817 411.076,260.5545 C409.509325,259.88083 407.707677,259.544 405.671,259.544 L397.634,259.544 L397.634,287.086 L405.671,287.086 C407.73901,287.086 409.564159,286.733504 411.1465,286.0285 C412.728841,285.323496 414.052661,284.352173 415.118,283.1145 C416.183338,281.876827 416.990164,280.419842 417.5385,278.7435 C418.086836,277.067158 418.361,275.24201 418.361,273.268 Z M438.566,290.47 C436.779991,290.47 435.142841,290.13317 433.6545,289.4595 C432.166159,288.78583 430.873672,287.861506 429.777,286.6865 C428.680328,285.511494 427.826503,284.156341 427.2155,282.621 C426.604497,281.085659 426.299,279.440675 426.299,277.686 C426.299,275.962658 426.604497,274.341174 427.2155,272.8215 C427.826503,271.301826 428.672494,269.970172 429.7535,268.8265 C430.834505,267.682828 432.126992,266.77417 433.631,266.1005 C435.135007,265.42683 436.764324,265.09 438.519,265.09 C440.305009,265.09 441.942159,265.42683 443.4305,266.1005 C444.918841,266.77417 446.195661,267.690661 447.261,268.85 C448.326338,270.009339 449.156663,271.340992 449.752,272.845 C450.347336,274.349008 450.645,275.946992 450.645,277.639 L450.645,278.391 C450.645,278.641668 450.629333,278.814 450.598,278.908 L429.636,278.908 C429.73,280.224007 430.035497,281.438161 430.5525,282.5505 C431.069502,283.662839 431.735329,284.626329 432.55,285.441 C433.364671,286.255671 434.296828,286.890164 435.3465,287.3445 C436.396172,287.798836 437.516327,288.026 438.707,288.026 C439.490337,288.026 440.273663,287.916334 441.057,287.697 C441.840337,287.477666 442.560996,287.180002 443.219,286.804 C443.877003,286.427998 444.47233,285.965836 445.005,285.4175 C445.537669,284.869164 445.944998,284.266003 446.227,283.608 L449,284.36 C448.623998,285.268671 448.091337,286.091163 447.402,286.8275 C446.712663,287.563837 445.913671,288.206164 445.005,288.7545 C444.096329,289.302836 443.093672,289.725832 441.997,290.0235 C440.900328,290.321168 439.756672,290.47 438.566,290.47 Z M447.59,276.464 C447.495999,275.147993 447.190502,273.949505 446.6735,272.8685 C446.156497,271.787495 445.498504,270.855337 444.6995,270.072 C443.900496,269.288663 442.976172,268.677669 441.9265,268.239 C440.876828,267.800331 439.756672,267.581 438.566,267.581 C437.375327,267.581 436.247338,267.800331 435.182,268.239 C434.116661,268.677669 433.184504,269.288663 432.3855,270.072 C431.586496,270.855337 430.944169,271.795328 430.4585,272.892 C429.972831,273.988672 429.683,275.179327 429.589,276.464 L447.59,276.464 Z M476.866,290 L473.67,290 L473.67,276.323 C473.67,273.408985 473.239171,271.294007 472.3775,269.978 C471.515829,268.661993 470.192009,268.004 468.406,268.004 C467.465995,268.004 466.526004,268.176332 465.586,268.521 C464.645995,268.865668 463.776504,269.35133 462.9775,269.978 C462.178496,270.60467 461.46567,271.348829 460.839,272.2105 C460.21233,273.072171 459.758001,274.004328 459.476,275.007 L459.476,290 L456.28,290 L456.28,265.513 L459.194,265.513 L459.194,271.059 C460.196671,269.272991 461.630157,267.831672 463.4945,266.735 C465.358842,265.638328 467.387655,265.09 469.581,265.09 C470.92834,265.09 472.071995,265.340664 473.012,265.842 C473.952004,266.343336 474.703997,267.048329 475.268,267.957 C475.832003,268.865671 476.239332,269.977993 476.49,271.294 C476.740668,272.610007 476.866,274.066992 476.866,275.665 L476.866,290 Z M495.896,288.825 C495.707999,288.919 495.433835,289.044333 495.0735,289.201 C494.713165,289.357667 494.298002,289.514333 493.828,289.671 C493.357997,289.827667 492.825336,289.968666 492.23,290.094 C491.634663,290.219334 491.008003,290.282 490.35,290.282 C489.660663,290.282 489.00267,290.188001 488.376,290 C487.74933,289.811999 487.201002,289.522169 486.731,289.1305 C486.260997,288.738831 485.885001,288.245336 485.603,287.65 C485.320998,287.054664 485.18,286.365337 485.18,285.582 L485.18,268.051 L481.796,268.051 L481.796,265.513 L485.18,265.513 L485.18,257.241 L488.376,257.241 L488.376,265.513 L494.016,265.513 L494.016,268.051 L488.376,268.051 L488.376,284.689 C488.438667,285.597671 488.75983,286.263498 489.3395,286.6865 C489.919169,287.109502 490.584996,287.321 491.337,287.321 C492.245671,287.321 493.044663,287.172168 493.734,286.8745 C494.423337,286.576832 494.861999,286.365334 495.05,286.24 L495.896,288.825 Z M506.748,290.47 C505.588661,290.47 504.515505,290.274169 503.5285,289.8825 C502.541495,289.490831 501.679837,288.950337 500.9435,288.261 C500.207163,287.571663 499.635335,286.764838 499.228,285.8405 C498.820664,284.916162 498.617,283.921339 498.617,282.856 C498.617,281.790661 498.867664,280.803671 499.369,279.895 C499.870336,278.986329 500.575329,278.203003 501.484,277.545 C502.392671,276.886997 503.47366,276.377835 504.727,276.0175 C505.980339,275.657165 507.358992,275.477 508.863,275.477 C510.116339,275.477 511.385327,275.586666 512.67,275.806 C513.954673,276.025334 515.098328,276.338665 516.101,276.746 L516.101,274.537 C516.101,272.374989 515.490006,270.659506 514.268,269.3905 C513.045994,268.121494 511.354011,267.487 509.192,267.487 C507.93866,267.487 506.654006,267.737664 505.338,268.239 C504.021993,268.740336 502.69034,269.460995 501.343,270.401 L500.215,268.286 C503.379682,266.155323 506.450318,265.09 509.427,265.09 C512.497682,265.09 514.910324,265.951658 516.665,267.675 C518.419675,269.398342 519.297,271.779651 519.297,274.819 L519.297,285.864 C519.297,286.741338 519.688662,287.18 520.472,287.18 L520.472,290 C519.93933,290.094 519.532001,290.141 519.25,290.141 C518.435329,290.141 517.800835,289.937335 517.3465,289.53 C516.892164,289.122665 516.649333,288.55867 516.618,287.838 L516.524,285.911 C515.395994,287.383674 513.978175,288.511663 512.2705,289.295 C510.562825,290.078337 508.72201,290.47 506.748,290.47 Z M507.5,288.026 C509.160675,288.026 510.688159,287.71267 512.0825,287.086 C513.47684,286.45933 514.534329,285.629005 515.255,284.595 C515.537001,284.312999 515.748499,284.007502 515.8895,283.6785 C516.0305,283.349498 516.101,283.044001 516.101,282.762 L516.101,278.767 C515.035661,278.359665 513.931172,278.046334 512.7875,277.827 C511.643827,277.607666 510.476672,277.498 509.286,277.498 C507.029988,277.498 505.197007,277.967995 503.787,278.908 C502.376993,279.848005 501.672,281.085659 501.672,282.621 C501.672,283.373004 501.820832,284.077997 502.1185,284.736 C502.416168,285.394003 502.823497,285.965831 503.3405,286.4515 C503.857502,286.937169 504.476329,287.320999 505.197,287.603 C505.91767,287.885001 506.685329,288.026 507.5,288.026 Z M527.047,255.69 L530.243,255.69 L530.243,284.454 C530.243,285.362671 530.493664,286.075497 530.995,286.5925 C531.496336,287.109503 532.201329,287.368 533.11,287.368 C533.454668,287.368 533.861997,287.321 534.332,287.227 C534.802002,287.133 535.240664,287.007667 535.648,286.851 L536.212,289.436 C535.616663,289.686668 534.888171,289.890333 534.0265,290.047 C533.164829,290.203667 532.42067,290.282 531.794,290.282 C530.321326,290.282 529.162004,289.866837 528.316,289.0365 C527.469996,288.206163 527.047,287.039008 527.047,285.535 L527.047,255.69 Z" id="at-DeFont-Family-Den" fill="#2E4A6F"></path>
                    <path d="M45.315,232.71 C37.4489607,232.71 29.7540376,231.427513 22.23,228.8625 C14.7059624,226.297487 8.32202622,222.564025 3.078,217.662 L14.193,198.168 C19.7790279,201.930019 25.1654741,204.83699 30.3525,206.889 C35.5395259,208.94101 40.2989783,209.967 44.631,209.967 C49.1910228,209.967 51.471,208.542014 51.471,205.692 C51.471,204.095992 50.5875088,202.728006 48.8205,201.588 C47.0534912,200.447994 43.6050256,199.137007 38.475,197.655 C32.0909681,195.830991 26.7615214,194.035509 22.4865,192.2685 C18.2114786,190.501491 14.7345134,188.59201 12.0555,186.54 C9.37648661,184.48799 7.4670057,182.208013 6.327,179.7 C5.1869943,177.191987 4.617,174.228017 4.617,170.808 C4.617,166.247977 5.52899088,162.030019 7.353,158.154 C9.17700912,154.277981 11.7134838,150.915014 14.9625,148.065 C18.2115162,145.214986 22.0874775,143.020508 26.5905,141.4815 C31.0935225,139.942492 36.0239732,139.173 41.382,139.173 C47.9940331,139.173 54.2924701,140.027991 60.2775,141.738 C66.2625299,143.448009 72.2759698,146.924974 78.318,152.169 L66.006,171.663 C60.4199721,168.014982 55.7460188,165.421508 51.984,163.8825 C48.2219812,162.343492 44.6880165,161.574 41.382,161.574 C39.4439903,161.574 37.8480063,161.944496 36.594,162.6855 C35.3399937,163.426504 34.713,164.594992 34.713,166.191 C34.713,167.901009 35.6249909,169.297495 37.449,170.3805 C39.2730091,171.463505 42.8639732,172.688993 48.222,174.057 C54.7200325,175.767009 60.1919778,177.562491 64.638,179.4435 C69.0840222,181.324509 72.6464866,183.376489 75.3255,185.5995 C78.0045134,187.822511 79.9139943,190.330486 81.054,193.1235 C82.1940057,195.916514 82.764,199.136982 82.764,202.785 C82.764,207.459023 81.9090085,211.619982 80.199,215.268 C78.4889914,218.916018 76.0095162,222.050987 72.7605,224.673 C69.5114838,227.295013 65.5785231,229.289993 60.9615,230.658 C56.3444769,232.026007 51.1290291,232.71 45.315,232.71 Z M238.887,231 L206.397,231 L206.397,180.384 C206.397,175.937978 205.513509,172.71751 203.7465,170.7225 C201.979491,168.72749 199.842013,167.73 197.334,167.73 C194.711987,167.73 191.947515,168.926988 189.0405,171.321 C186.133485,173.715012 183.996007,176.792981 182.628,180.555 L182.628,231 L150.138,231 L150.138,180.384 C150.138,175.937978 149.254509,172.71751 147.4875,170.7225 C145.720491,168.72749 143.583013,167.73 141.075,167.73 C138.452987,167.73 135.688515,168.926988 132.7815,171.321 C129.874485,173.715012 127.737007,176.792981 126.369,180.555 L126.369,231 L93.879,231 L93.879,141.054 L123.12,141.054 L123.12,154.392 C126.312016,149.489975 130.700972,145.756513 136.287,143.1915 C141.873028,140.626487 148.484962,139.344 156.123,139.344 C159.771018,139.344 162.962986,139.771496 165.699,140.6265 C168.435014,141.481504 170.80049,142.649993 172.7955,144.132 C174.79051,145.614007 176.386494,147.266991 177.5835,149.091 C178.780506,150.915009 179.720997,152.85299 180.405,154.905 C183.597016,150.002975 187.957472,146.184014 193.4865,143.448 C199.015528,140.711986 205.313965,139.344 212.382,139.344 C218.31003,139.344 223.012483,140.455489 226.4895,142.6785 C229.966517,144.901511 232.616991,147.665983 234.441,150.972 C236.265009,154.278017 237.461997,157.811981 238.032,161.574 C238.602003,165.336019 238.887,168.755985 238.887,171.834 L238.887,231 Z M254.619,231 L254.619,141.054 L287.109,141.054 L287.109,231 L254.619,231 Z M254.619,133.53 L254.619,106.17 L287.109,106.17 L287.109,133.53 L254.619,133.53 Z M302.841,106.17 L335.331,106.17 L335.331,195.261 C335.331,202.101034 338.123972,205.521 343.71,205.521 C345.078007,205.521 346.559992,205.293002 348.156,204.837 C349.752008,204.380998 351.233993,203.754004 352.602,202.956 L356.706,226.896 C352.829981,228.720009 348.469524,230.144995 343.6245,231.171 C338.779476,232.197005 334.191022,232.71 329.859,232.71 C321.194957,232.71 314.526023,230.487022 309.852,226.041 C305.177977,221.594978 302.841,215.154042 302.841,206.718 L302.841,106.17 Z M408.519,232.71 C400.652961,232.71 393.642031,231.484512 387.486,229.0335 C381.329969,226.582488 376.171521,223.248021 372.0105,219.03 C367.849479,214.811979 364.686011,209.967027 362.52,204.495 C360.353989,199.022973 359.271,193.26603 359.271,187.224 C359.271,180.725968 360.325489,174.570029 362.4345,168.756 C364.543511,162.941971 367.678479,157.869022 371.8395,153.537 C376.000521,149.204978 381.13047,145.756513 387.2295,143.1915 C393.32853,140.626487 400.42496,139.344 408.519,139.344 C416.49904,139.344 423.566969,140.626487 429.723,143.1915 C435.879031,145.756513 441.037479,149.176479 445.1985,153.4515 C449.359521,157.726521 452.494489,162.685472 454.6035,168.3285 C456.712511,173.971528 457.767,179.870969 457.767,186.027 C457.767,187.737009 457.681501,189.475491 457.5105,191.2425 C457.339499,193.009509 457.140001,194.576993 456.912,195.945 L393.813,195.945 C394.155002,200.733024 395.921984,204.181489 399.114,206.2905 C402.306016,208.399511 405.782981,209.454 409.545,209.454 C413.079018,209.454 416.413484,208.656008 419.5485,207.06 C422.683516,205.463992 424.763995,203.241014 425.79,200.391 L453.321,208.257 C449.672982,215.439036 444.058538,221.309977 436.4775,225.87 C428.896462,230.430023 419.577055,232.71 408.519,232.71 Z M422.883,176.451 C422.312997,172.118978 420.717013,168.699013 418.095,166.191 C415.472987,163.682987 412.110021,162.429 408.006,162.429 C403.901979,162.429 400.539013,163.682987 397.917,166.191 C395.294987,168.699013 393.699003,172.118978 393.129,176.451 L422.883,176.451 Z M505.476,232.71 C497.609961,232.71 489.915038,231.427513 482.391,228.8625 C474.866962,226.297487 468.483026,222.564025 463.239,217.662 L474.354,198.168 C479.940028,201.930019 485.326474,204.83699 490.5135,206.889 C495.700526,208.94101 500.459978,209.967 504.792,209.967 C509.352023,209.967 511.632,208.542014 511.632,205.692 C511.632,204.095992 510.748509,202.728006 508.9815,201.588 C507.214491,200.447994 503.766026,199.137007 498.636,197.655 C492.251968,195.830991 486.922521,194.035509 482.6475,192.2685 C478.372479,190.501491 474.895513,188.59201 472.2165,186.54 C469.537487,184.48799 467.628006,182.208013 466.488,179.7 C465.347994,177.191987 464.778,174.228017 464.778,170.808 C464.778,166.247977 465.689991,162.030019 467.514,158.154 C469.338009,154.277981 471.874484,150.915014 475.1235,148.065 C478.372516,145.214986 482.248477,143.020508 486.7515,141.4815 C491.254523,139.942492 496.184973,139.173 501.543,139.173 C508.155033,139.173 514.45347,140.027991 520.4385,141.738 C526.42353,143.448009 532.43697,146.924974 538.479,152.169 L526.167,171.663 C520.580972,168.014982 515.907019,165.421508 512.145,163.8825 C508.382981,162.343492 504.849017,161.574 501.543,161.574 C499.60499,161.574 498.009006,161.944496 496.755,162.6855 C495.500994,163.426504 494.874,164.594992 494.874,166.191 C494.874,167.901009 495.785991,169.297495 497.61,170.3805 C499.434009,171.463505 503.024973,172.688993 508.383,174.057 C514.881032,175.767009 520.352978,177.562491 524.799,179.4435 C529.245022,181.324509 532.807487,183.376489 535.4865,185.5995 C538.165513,187.822511 540.074994,190.330486 541.215,193.1235 C542.355006,195.916514 542.925,199.136982 542.925,202.785 C542.925,207.459023 542.070009,211.619982 540.36,215.268 C538.649991,218.916018 536.170516,222.050987 532.9215,224.673 C529.672484,227.295013 525.739523,229.289993 521.1225,230.658 C516.505477,232.026007 511.290029,232.71 505.476,232.71 Z" id="smiles" fill="#7DBC3A"></path>
                </g>
            </g>
        </g>
    </g>
</svg>